<?xml version="1.0" encoding="UTF-8"?><svg id="Layer_1" xmlns="http://www.w3.org/2000/svg" viewBox="0 0 29.83 21.72"><defs><style>.cls-1{fill:#ff4200;}.cls-2{fill:#0b32a0;}</style></defs><path class="cls-2" d="M14.92,21.72c-3.83,0-7.46-1.03-10.22-2.9C1.67,16.77,0,13.95,0,10.86S1.67,4.95,4.7,2.9C7.45,1.03,11.08,0,14.92,0s7.46,1.03,10.22,2.9h0c3.03,2.05,4.7,4.88,4.7,7.96s-1.67,5.91-4.7,7.97c-2.76,1.87-6.39,2.9-10.22,2.9ZM14.92,1.63c-3.51,0-6.82.93-9.31,2.62-2.57,1.74-3.98,4.09-3.98,6.62s1.41,4.88,3.98,6.62c2.49,1.69,5.8,2.62,9.31,2.62s6.82-.93,9.31-2.62c2.57-1.74,3.98-4.09,3.98-6.62s-1.41-4.88-3.98-6.62h0c-2.49-1.69-5.8-2.62-9.31-2.62Z"/><path class="cls-1" d="M9.51,4.82c-3.57,0-5.96,2.42-5.96,6.06s2.38,6.02,5.96,6.02,5.96-2.42,5.96-6.02-2.38-6.06-5.96-6.06ZM9.51,13.55c-1.38,0-2.3-1.07-2.3-2.67s.92-2.67,2.3-2.67,2.3,1.07,2.3,2.67-.92,2.67-2.3,2.67Z"/><path class="cls-1" d="M24.58,9.57h-4.63c-.15,0-.23.12-.22.22l.23,2.35c.02.1.13.22.29.22h1.54v.97c-.18.2-.6.32-1.23.32-1.54,0-2.58-1.11-2.58-2.79s1.04-2.75,2.58-2.75c.84,0,1.73.22,2.42.59.15.03.27-.02.32-.13l.84-2.47c.03-.1-.02-.24-.15-.3-.97-.6-2.28-.97-3.52-.97-2.19,0-3.94.88-4.98,2.38.58,1.05.89,2.3.89,3.68s-.3,2.6-.89,3.65c1.04,1.5,2.79,2.38,4.98,2.38,1.61,0,3.16-.5,4.16-1.36.12-.1.2-.25.2-.4v-5.34c0-.12-.12-.24-.25-.24Z"/></svg>