<?xml version="1.0" encoding="UTF-8"?>
<svg id="Layer_1" xmlns="http://www.w3.org/2000/svg" version="1.1" viewBox="0 0 432 73.7">
  <!-- Generator: Adobe Illustrator 30.2.1, SVG Export Plug-In . SVG Version: 2.1.1 Build 1)  -->
  <defs>
    <style>
      .st0 {
        fill: #ffffff;
      }

      .st1 {
        fill: #00ff36;
      }

      .st2 {
        fill: none;
      }
    </style>
  </defs>
  <path class="st0" d="M418.79,67.53H13.21c-3.4,0-6.16-2.75-6.16-6.13V12.3c0-3.39,2.76-6.13,6.16-6.13h405.57c3.4,0,6.16,2.75,6.16,6.13v49.1c0,3.39-2.76,6.13-6.16,6.13Z"/>
  <g>
    <g>
      <path class="st2" d="M36.46,54.74c-10.62,0-17.7-7.18-17.7-17.89s7.08-17.99,17.7-17.99,17.7,7.18,17.7,17.99-7.08,17.89-17.7,17.89ZM36.46,28.92c-4.09,0-6.83,3.19-6.83,7.93s2.74,7.93,6.83,7.93,6.83-3.19,6.83-7.93-2.74-7.93-6.83-7.93Z"/>
      <path class="st2" d="M84.59,53.25c.25.45-.1.8-.55.8h-10.67c-.5,0-.95-.35-1.15-.8l-5.19-10.87h-.6v10.97c0,.35-.35.7-.8.7h-8.78c-.4,0-.75-.35-.75-.7V20.39c0-.4.35-.75.75-.75h13.16c7.68,0,12.76,4.49,12.76,11.27,0,3.94-2.39,7.93-6.13,9.52l7.93,12.81ZM69.38,33.91c1.7,0,2.84-1.05,2.84-2.64s-1.15-2.64-2.84-2.64h-2.41c-.29,0-.53.24-.53.53v4.21c0,.3.24.54.54.54h2.4Z"/>
      <path class="st2" d="M121.47,53.4c.15.3-.05.65-.45.65h-9.87c-.45,0-.85-.25-1.05-.65l-1.5-5.24h-9.37l-1.5,5.24c-.2.4-.6.65-1.05.65h-9.87c-.4,0-.6-.35-.45-.65l11.27-33.11c.15-.3.7-.65,1.2-.65h10.17c.5,0,1.05.35,1.2.65l11.27,33.11ZM103.32,33.65l-2.1,7.38h5.39l-2.1-7.38c-.17-.6-1.02-.6-1.19,0Z"/>
      <path class="st2" d="M151.68,19.65c.45,0,.75.35.75.75v32.96c0,.35-.3.7-.75.7h-8.63c-.35,0-.8-.25-1.05-.65l-8.68-15.51v15.46c0,.35-.3.7-.75.7h-8.83c-.4,0-.7-.35-.7-.7V20.39c0-.4.3-.75.7-.75h8.63c.45,0,.95.25,1.15.65l8.63,15.51v-15.41c0-.4.35-.75.7-.75h8.83Z"/>
      <path class="st2" d="M176.9,43.38v.2-.2Z"/>
      <path class="st1" d="M203.69,32.76v-.2s0,.2,0,.2Z"/>
      <path class="st2" d="M212,45.07c.4,0,.75.3.75.65v7.63c0,.35-.35.7-.75.7h-23.19c-.35,0-.7-.4-.8-.75V20.34c0-.45.25-.7.7-.7h22.69c.45,0,.8.35.8.7v7.53c0,.45-.35.75-.8.75h-13.01v3.94h10.57c.45,0,.7.35.65.65l-.7,6.98c-.05.3-.4.65-.85.65h-9.67v4.24h13.61Z"/>
      <path class="st2" d="M184.79,32.96h-13.74c-.45,0-.7.35-.65.65l.7,6.98c.05.3.4.65.85.65h4.57v2.89c-.55.6-1.79.95-3.64.95-4.59,0-7.68-3.29-7.68-8.28s3.09-8.18,7.68-8.18c2.49,0,5.14.65,7.18,1.75.45.1.8-.05.95-.4l2.49-7.33c.1-.3-.05-.7-.45-.9-2.89-1.79-6.78-2.89-10.47-2.89-10.77,0-17.95,7.18-17.95,17.95s7.18,17.95,17.95,17.95c4.79,0,9.37-1.5,12.37-4.04.35-.3.6-.75.6-1.2v-15.86c0-.35-.35-.7-.75-.7Z"/>
    </g>
    <g>
      <path class="st2" d="M276.14,54.72c-10.62,0-17.7-7.18-17.7-17.9s7.08-18,17.7-18,17.7,7.18,17.7,18-7.08,17.9-17.7,17.9ZM276.14,28.9c-4.09,0-6.83,3.19-6.83,7.93s2.74,7.93,6.83,7.93,6.83-3.19,6.83-7.93-2.74-7.93-6.83-7.93Z"/>
      <path class="st2" d="M313.59,54.72c-10.62,0-17.7-7.18-17.7-17.9s7.08-18,17.7-18,17.7,7.18,17.7,18-7.08,17.9-17.7,17.9ZM313.59,28.9c-4.09,0-6.83,3.19-6.83,7.93s2.74,7.93,6.83,7.93,6.83-3.19,6.83-7.93-2.74-7.93-6.83-7.93Z"/>
      <path class="st2" d="M345.87,19.62c10.57,0,17.6,6.83,17.6,17.2s-7.03,17.2-17.6,17.2h-11.57c-.35,0-.7-.35-.7-.75V20.37c0-.4.35-.75.7-.75h11.57ZM346.47,45.05c3.84,0,6.43-3.29,6.43-8.23s-2.59-8.23-6.43-8.23h-2.06c-.29,0-.53.24-.53.53v15.39c0,.29.24.53.53.53h2.06Z"/>
      <path class="st2" d="M368.6,43.55c.15-.5.5-.65.9-.4,2.29,1.3,5.04,2.24,6.93,2.39,1.6,0,2.64-.75,2.64-1.89,0-2.94-14.01-2.79-14.01-13.66,0-6.68,5.04-11.12,12.61-11.12,3.54,0,8.03,1.45,11.17,3.59.4.25.55.65.4.9l-3.14,7.03c-.15.5-.5.65-.9.4-2.44-1.4-5.29-2.44-7.03-2.59-1.55,0-2.54.7-2.54,1.8,0,2.94,14.11,2.74,14.11,13.71,0,6.63-5.14,11.07-12.81,11.07-4.19,0-8.58-1.3-11.07-3.29-.4-.3-.55-.65-.4-.9l3.14-7.03Z"/>
      <path class="st2" d="M255.35,32.93h-13.74c-.45,0-.7.35-.65.65l.7,6.98c.05.3.4.65.85.65h4.57v2.89c-.55.6-1.79.95-3.64.95-4.59,0-7.68-3.29-7.68-8.28s3.09-8.18,7.68-8.18c2.49,0,5.14.65,7.18,1.75.45.1.8-.05.95-.4l2.49-7.33c.1-.3-.05-.7-.45-.9-2.89-1.79-6.78-2.89-10.47-2.89-10.77,0-17.95,7.18-17.95,17.95s7.18,17.95,17.95,17.95c4.79,0,9.37-1.5,12.37-4.04.35-.3.6-.75.6-1.2v-15.86c0-.35-.35-.7-.75-.7Z"/>
      <g>
        <path class="st2" d="M402.8,54.71c-5.75,0-10.43-4.68-10.43-10.43s4.68-10.43,10.43-10.43,10.43,4.68,10.43,10.43-4.68,10.43-10.43,10.43ZM402.8,36.42c-4.34,0-7.86,3.53-7.86,7.86s3.53,7.86,7.86,7.86,7.86-3.53,7.86-7.86-3.53-7.86-7.86-7.86Z"/>
        <circle class="st0" cx="402.8" cy="44.28" r="7.86"/>
      </g>
    </g>
  </g>
</svg>