<?xml version="1.0" encoding="UTF-8"?>
<svg id="Layer_1" xmlns="http://www.w3.org/2000/svg" version="1.1" viewBox="0 0 432 238.06">
  <!-- Generator: Adobe Illustrator 30.2.1, SVG Export Plug-In . SVG Version: 2.1.1 Build 1)  -->
  <defs>
    <style>
      .st0 {
        fill: #fff;
      }
    </style>
  </defs>
  <g>
    <path class="st0" d="M196.46,61.53c-.31-.24-.76-.24-1.05.03-5.88,5.34-10.81.38-13.37-5.69,4.88-8.82,5.59-24.03-8.72-21.13-7.67,1.56-10.33,11.35-9.65,18.1.11,1.09,1.12,2.84.99,3.61-.16.92-1.82,1.18-1.14,2.44.11.21.83.88,1.31,1.24.21.16.5.15.71,0,1.86-1.36,1.84.39,3.72,1.3,3.77,1.83,6.96-.08,9.92-2.49,3.4,5.28,6.96,10.1,14.1,8.17.8-.21,4.52-2.53,4.83-3.04.54-.89-.77-1.85-1.65-2.52ZM169.48,56.88c.93-1.12,2.5-2.57,3.94-2.89,1.47-.33,2.78-.03,3.81,1.1-1.12,2.97-5.59,4.83-7.75,1.79ZM179.48,52.12c-3.55-3.1-8.5-1.98-11.42,1.41-1.03.05-.96-3.55-.91-4.39.22-4.38,3.1-10.54,7.84-11.35,8.44-1.44,7.49,9.66,4.48,14.33Z"/>
    <path class="st0" d="M244.56,37.79c1.37-.99.53-3.76-1.27-3.64-4.34.28-2.1,6.08,1.27,3.64Z"/>
    <path class="st0" d="M280.57,54.2l-1.63-.51c-.42-.13-.86.07-1.05.47-1.63,3.33-4.05,6.2-7.81,7.33,0,0-.2.08-.31.13.92-4.84,2.61-9.25,5.07-13.22.31-.67-.04-1.45-.75-1.66l-1.64-.47c-.56-.16-1.27.11-1.58.6-1.8,2.88-3.01,7.18-8,7.73-.78.09-1.75-.55-1.63-1.46.4-2.96,1.59-5.71,2.38-8.27-.02-1.24-1.66-1.31-2.78-1.54-.43-.09-.94.15-1.15.55-1.97,3.77-2.64,8.74-7.42,10.1-1.07.3-2.13-.39-1.9-1.47.53-2.53,1.38-4.74,1.95-6.19l.7-1.7c.14-.41.32-.79.74-.77,0,0,2.61.2,2.72.17.21-.07.37-.29.36-.51l.21-2.45c-.02-.27-.24-.48-.52-.48l-2.3-.12c-.15,0-.26-.14-.23-.29l1.32-5.19c.09-.39-.2-.77-.6-.78l-2.18-.05c-.37,0-.69.24-.78.59l-1.36,5.25c-.04.16-.19.28-.36.27l-2.62-.19c-.27,0-.5.21-.52.48l-.14,2.55c-.01.24.15.48.39.51,1.4.19,2.22-.14,1.85,1.23-.38,1.4-2.05,8.9-7.01,8.77-.38,0-1.16-.24-1.03-2.14.2-2.85,1.46-6.3,2.69-9.26.07-.28-.06-.57-.31-.71-.82-.45-2.86-.41-3.27-.1-.97.72-2.03,7.06-6.33,10.36-1.85,1.42-3.63,1.11-3.2-.96,1.33-6.35,3.52-12.42,5.91-18.36.2-.5-.12-1.05-.66-1.12l-1.46-.19c-.51-.07-1.01.21-1.23.68-.07.15-.14.31-.22.46-.5,1.07-1.01,2.14-1.5,3.21-.08.17-.87,2-.89,2.04h0c-1.31,3.26-2.71,7.28-3.98,10.18-.16.36-.5,1.2-.92,2-.78,1.5-1.92,3.07-3.52,3.18-1.24.08-1.25-1.41-1.25-1.41.11-3.47,2.5-6.65,3.77-9.98.17-.44-.07-.92-.53-1.04l-1.84-.48c-.41-.11-.84.07-1.05.43l-1.17,1.97c-9.81-7.74-11.42,5.84-16.09,10.15-1.13,1.04-3.49,3.2-3.42.37.08-3.23,1.85-6.86,2.44-10.17.08-.45-.23-.87-.68-.92l-2.03-.22c-.29-.03-.58.1-.73.35-2.38,3.98-3.23,9.38-7.02,12.49-.59.48-1.45.14-1.55-.61-.48-3.51.98-6.91,2.08-10.22.11-.33-.09-.67-.42-.75l-1.62-.38c-.34-.08-.71.05-.9.35-4.84,7.46-4.3,23.91,7.16,12.28,2.73,5.4,6.83,2.22,10.13-.85,2.27,4.51,7.15,3.99,9.91.22,1.94,3.46,6.73,2.77,9.03-.28l.09.5c1.06,5.03,8.47,1.42,11.24-1.4.12,5.93,5.29,4.26,8.93,2.34,2.85,5.24,8.75,1.44,10.87-.97-.37,3.36,2.38,4.62,5.52,3.99,1.44-.29,2.26-.57,3.38-1.16l-.81,4c-3.95-.45-7.42-.92-11.1.51-9.06,3.49-2.35,13.96,8.65,9.69,2.94-1.15,5.33-3.76,6.05-6.25,1.37-.19,3.33-.91,4.4-1.47,2.91-1.55,6.84-5.3,7.66-8.74.1-.43-.15-.86-.57-.99ZM217.72,47.28c-.24,1.95-3.19,5.14-4.14,5.74-5.05,3.21-2.76-7.79.33-8.8,2.07-.68,4.05,1.11,3.81,3.06ZM254.49,67.75c-1.83-4.43,8.1-3.16,10.18-2.79-.34,3.66-8.99,5.68-10.18,2.79Z"/>
  </g>
  <g>
    <path class="st0" d="M158.86,185.17l11.78,2.55c.34.07.59.46.53.74l-3,13.83c-.09.4-.34.73-.76.92-3.29,1.75-7.19,2.13-11.75,1.14-9.1-1.97-14.06-9.62-12.03-19,2.03-9.38,9.63-14.29,19.03-12.25,3.4.74,6.25,2.24,8.58,4.5.34.25.42.53.23.87l-3.57,5.91c-.22.29-.52.35-.9.16-1.67-1.41-3.56-2.35-5.7-2.81-4.26-.92-7.54,1.37-8.47,5.67-.93,4.31,1.26,7.74,4.88,8.52,1.8.41,3,.38,3.61-.06l.54-2.5-3.99-.86c-.4-.09-.6-.31-.59-.64l.72-6.11c.04-.5.33-.71.86-.59Z"/>
    <path class="st0" d="M205.46,194.86c-.92,9.59-7.75,15.28-17.21,14.42-9.51-.87-15.12-7.88-14.2-17.46.92-9.57,7.73-15.33,17.26-14.42,9.46.91,15.08,7.88,14.16,17.45ZM195.82,193.96c.39-4.02-1.64-7.24-5.4-7.6-3.61-.35-6.32,2.25-6.72,6.44-.4,4.19,1.77,7.28,5.37,7.62,3.61.35,6.35-2.27,6.75-6.46Z"/>
    <path class="st0" d="M240.4,194.44c.16,9.64-5.98,16.06-15.49,16.26-9.55.2-15.91-6.14-16.07-15.75-.16-9.62,5.96-16.1,15.53-16.26,9.51-.16,15.87,6.14,16.03,15.76ZM230.72,194.62c-.07-4.04-2.44-7.02-6.22-6.95-3.63.06-6.03,2.95-5.96,7.16s2.57,7.03,6.2,6.97c3.63-.06,6.05-2.97,5.98-7.18Z"/>
    <path class="st0" d="M242.89,178.77l10.26-1.29c9.37-1.2,16.31,4.1,17.46,13.24,1.14,9.13-4.27,16.03-13.64,17.2l-10.26,1.29c-.28.04-.64-.23-.69-.59l-3.65-29.11c-.04-.34.24-.73.52-.74ZM252.38,185.65l1.82,14.54,2.28-.29c3.43-.43,5.34-3.62,4.77-8-.55-4.39-3.15-6.98-6.6-6.55l-2.28.29Z"/>
    <path class="st0" d="M271.93,184.25c-1.32-5.78,2.14-10.67,8.74-12.18,3.07-.7,7.29-.34,10.43.91.46.16.64.39.51.68l-1.33,6.74c-.04.5-.27.68-.7.54-2.68-.81-4.89-1.11-6.61-.87-1.33.33-2.07,1.16-1.88,2.01.17.74,1.4,1.24,3.67,1.45,2.28.21,4.47.78,6.6,1.69,2.15.91,4.06,3.03,4.74,6.02,1.35,5.77-2.28,10.65-8.94,12.18-3.64.83-7.75.57-10.26-.65-.45-.21-.63-.43-.54-.7l1.33-6.74c.04-.5.27-.66.71-.52,2.49.74,4.65.96,6.5.69,1.37-.32,2.12-1.24,1.93-2.09-.19-.74-1.42-1.23-3.7-1.49-2.28-.23-4.46-.8-6.51-1.69-2.08-.93-4.02-3.04-4.69-5.98Z"/>
  </g>
  <g>
    <path class="st0" d="M383.65,160.88c-8.68,11.14-20.88,21.44-36.26,30.42-34.16,19.95-79.68,30.94-128.16,30.94s-94-10.99-128.16-30.94c-15.23-8.89-27.32-19.07-35.99-30.08-3.34.72-6.85,1.09-10.52,1.1,9.54,13.67,23.67,26.17,41.93,36.84,35.53,20.75,82.68,32.18,132.75,32.18s97.22-11.43,132.75-32.18c18.9-11.04,33.36-24.05,42.9-38.28h-11.23Z"/>
    <path class="st0" d="M55.07,76.84c8.67-11.01,20.76-21.19,35.99-30.09,34.16-19.95,79.68-30.94,128.16-30.94s94,10.99,128.16,30.94c15.48,9.04,27.73,19.41,36.42,30.63h11.2c-9.54-14.31-24.05-27.39-43.04-38.48C316.44,18.15,269.3,6.72,219.23,6.72s-97.22,11.43-132.75,32.18c-18.26,10.67-32.39,23.17-41.93,36.84,3.67,0,7.19.38,10.52,1.1Z"/>
  </g>
  <g>
    <path class="st0" d="M44.46,156.25c-22.03,0-36.71-14.89-36.71-37.12s14.68-37.33,36.71-37.33,36.71,14.89,36.71,37.33-14.68,37.12-36.71,37.12ZM44.46,102.69c-8.48,0-14.17,6.62-14.17,16.44s5.69,16.44,14.17,16.44,14.17-6.62,14.17-16.44-5.69-16.44-14.17-16.44Z"/>
    <path class="st0" d="M147.47,153.16c.52.93-.21,1.65-1.14,1.65h-22.14c-1.03,0-1.97-.72-2.38-1.65l-10.55-22.12c-.13-.26-.39-.43-.69-.43h0c-.42,0-.76.34-.76.76v21.99c0,.72-.72,1.45-1.65,1.45h-18.2c-.83,0-1.55-.72-1.55-1.45v-68.37c0-.85.7-1.55,1.55-1.55h27.31c15.93,0,26.48,9.31,26.48,23.38,0,8.17-4.96,16.45-12.72,19.76l16.45,26.58ZM115.92,113.03c3.52,0,5.9-2.17,5.9-5.48s-2.38-5.48-5.9-5.48h-5c-.61,0-1.11.5-1.11,1.11v8.74c0,.62.5,1.12,1.12,1.12h4.98Z"/>
    <path class="st0" d="M226.42,153.47c.31.62-.1,1.34-.93,1.34h-20.48c-.93,0-1.76-.52-2.17-1.34l-3.1-10.86h-19.45l-3.1,10.86c-.41.83-1.24,1.34-2.17,1.34h-20.48c-.83,0-1.24-.72-.93-1.34l23.38-68.68c.31-.62,1.45-1.34,2.48-1.34h21.1c1.03,0,2.17.72,2.48,1.34l23.38,68.68ZM188.78,112.5l-4.35,15.32h11.17l-4.35-15.32c-.35-1.24-2.11-1.24-2.46,0Z"/>
    <path class="st0" d="M291.79,83.45c.93,0,1.55.72,1.55,1.55v68.37c0,.72-.62,1.45-1.55,1.45h-17.89c-.72,0-1.65-.52-2.17-1.34l-17.23-30.79c-.21-.37-.77-.22-.77.2v30.49c0,.72-.62,1.45-1.55,1.45h-18.31c-.83,0-1.45-.72-1.45-1.45v-68.37c0-.85.7-1.55,1.55-1.55h17.79c.93,0,1.97.52,2.38,1.34l17.2,30.92c.19.33.69.2.69-.18v-30.53c0-.83.72-1.55,1.45-1.55h18.31Z"/>
    <path class="st0" d="M422.7,136.2c.83,0,1.55.62,1.55,1.34v15.83c0,.72-.72,1.45-1.55,1.45h-48.1c-.72,0-1.45-.83-1.65-1.55v-68.37c0-.93.52-1.45,1.45-1.45h47.06c.93,0,1.65.72,1.65,1.45v15.62c0,.93-.72,1.55-1.65,1.55h-27v8.17h21.93c.93,0,1.45.72,1.34,1.34l-1.45,14.48c-.1.62-.83,1.34-1.76,1.34h-20.07v8.79h28.24Z"/>
    <path class="st0" d="M363.54,111.06h-28.5c-.93,0-1.45.72-1.34,1.34l1.45,14.48c.1.62.83,1.34,1.76,1.34h9.47v6c-1.14,1.24-3.72,1.97-7.55,1.97-9.52,0-15.93-6.83-15.93-17.17s6.41-16.96,15.93-16.96c5.17,0,10.65,1.34,14.89,3.62.93.21,1.66-.1,1.97-.83l5.17-15.21c.21-.62-.1-1.45-.93-1.86-6-3.72-14.07-6-21.72-6-22.34,0-37.24,14.89-37.24,37.24s14.89,37.24,37.24,37.24c9.93,0,19.45-3.1,25.65-8.38.72-.62,1.24-1.55,1.24-2.48v-32.89c0-.72-.72-1.45-1.55-1.45Z"/>
  </g>
</svg>