<?xml version="1.0" encoding="UTF-8"?>
<svg id="Layer_1" xmlns="http://www.w3.org/2000/svg" version="1.1" viewBox="0 0 432 204.32">
  <!-- Generator: Adobe Illustrator 30.2.1, SVG Export Plug-In . SVG Version: 2.1.1 Build 1)  -->
  <defs>
    <style>
      .st0 {
        fill: #ff4200;
      }

      .st1 {
        fill: #00ff36;
      }

      .st2 {
        fill: #fff;
      }
    </style>
  </defs>
  <g>
    <rect class="st0" x="7.05" y="5.32" width="417.9" height="193.69" rx="11.73" ry="11.73"/>
    <g>
      <path class="st2" d="M63.03,97.78c-20.21,0-33.68-13.66-33.68-34.06s13.47-34.25,33.68-34.25,33.68,13.66,33.68,34.25-13.47,34.06-33.68,34.06ZM63.03,48.63c-7.78,0-13,6.07-13,15.08s5.22,15.08,13,15.08,13-6.07,13-15.08-5.22-15.08-13-15.08Z"/>
      <path class="st2" d="M154.62,94.94c.47.85-.19,1.52-1.04,1.52h-20.31c-.95,0-1.8-.66-2.18-1.52l-9.87-20.69h-1.14v20.88c0,.66-.66,1.33-1.52,1.33h-16.7c-.76,0-1.42-.66-1.42-1.33v-62.73c0-.76.66-1.42,1.42-1.42h25.05c14.61,0,24.29,8.54,24.29,21.45,0,7.5-4.56,15.09-11.67,18.13l15.09,24.39ZM125.68,58.12c3.23,0,5.41-1.99,5.41-5.03s-2.18-5.03-5.41-5.03h-4.58c-.56,0-1.01.45-1.01,1.01v8.02c0,.57.46,1.03,1.03,1.03h4.57Z"/>
      <path class="st2" d="M224.82,95.22c.28.57-.09,1.23-.85,1.23h-18.79c-.85,0-1.61-.47-1.99-1.23l-2.85-9.96h-17.84l-2.85,9.96c-.38.76-1.14,1.23-1.99,1.23h-18.79c-.76,0-1.14-.66-.85-1.23l21.45-63.01c.29-.57,1.33-1.23,2.28-1.23h19.36c.95,0,1.99.66,2.28,1.23l21.45,63.01ZM190.28,57.63l-3.99,14.06h10.25l-3.99-14.06c-.32-1.14-1.94-1.14-2.26,0Z"/>
      <path class="st2" d="M282.32,30.98c.85,0,1.42.66,1.42,1.42v62.73c0,.66-.57,1.33-1.42,1.33h-16.42c-.66,0-1.52-.47-1.99-1.23l-16.51-29.51v29.42c0,.66-.57,1.33-1.42,1.33h-16.8c-.76,0-1.33-.66-1.33-1.33v-62.73c0-.76.57-1.42,1.33-1.42h16.42c.85,0,1.8.47,2.18,1.23l16.42,29.51v-29.32c0-.76.66-1.42,1.33-1.42h16.8Z"/>
      <path class="st2" d="M330.33,76.15v.38-.38Z"/>
      <path class="st1" d="M381.31,55.93v-.38s0,.38,0,.38Z"/>
      <path class="st2" d="M128.76,174.77c-20.21,0-33.69-13.67-33.69-34.07s13.48-34.26,33.69-34.26,33.69,13.67,33.69,34.26-13.48,34.07-33.69,34.07ZM128.76,125.61c-7.78,0-13,6.07-13,15.09s5.22,15.09,13,15.09,13-6.07,13-15.09-5.22-15.09-13-15.09Z"/>
      <path class="st2" d="M200.04,174.77c-20.21,0-33.69-13.67-33.69-34.07s13.48-34.26,33.69-34.26,33.69,13.67,33.69,34.26-13.48,34.07-33.69,34.07ZM200.04,125.61c-7.78,0-13,6.07-13,15.09s5.22,15.09,13,15.09,13-6.07,13-15.09-5.22-15.09-13-15.09Z"/>
      <path class="st2" d="M261.48,107.96c20.12,0,33.5,13,33.5,32.74s-13.38,32.74-33.5,32.74h-22.02c-.66,0-1.33-.66-1.33-1.42v-62.63c0-.76.66-1.42,1.33-1.42h22.02ZM262.62,156.36c7.31,0,12.24-6.26,12.24-15.66s-4.94-15.66-12.24-15.66h-3.92c-.56,0-1.01.45-1.01,1.01v29.29c0,.56.45,1.01,1.01,1.01h3.92Z"/>
      <path class="st2" d="M304.76,153.51c.29-.95.95-1.23,1.71-.76,4.36,2.47,9.58,4.27,13.19,4.56,3.04,0,5.03-1.42,5.03-3.61,0-5.6-26.67-5.31-26.67-26,0-12.72,9.58-21.16,24.01-21.16,6.74,0,15.28,2.75,21.26,6.83.76.47,1.04,1.23.76,1.71l-5.98,13.38c-.28.95-.95,1.23-1.71.76-4.65-2.66-10.06-4.65-13.38-4.94-2.94,0-4.84,1.33-4.84,3.42,0,5.6,26.86,5.22,26.86,26.1,0,12.62-9.77,21.07-24.39,21.07-7.97,0-16.32-2.47-21.07-6.26-.76-.57-1.04-1.23-.76-1.71l5.98-13.38Z"/>
      <path class="st2" d="M397.14,79.37c.76,0,1.42.57,1.42,1.23v14.52c0,.66-.66,1.33-1.42,1.33h-44.13c-.66,0-1.33-.76-1.52-1.42v-62.73c0-.85.47-1.33,1.33-1.33h43.18c.85,0,1.52.66,1.52,1.33v14.33c0,.85-.66,1.42-1.52,1.42h-24.77v7.5h20.12c.85,0,1.33.66,1.23,1.23l-1.33,13.29c-.1.57-.76,1.23-1.61,1.23h-18.41v8.07h25.91Z"/>
      <path class="st2" d="M345.34,56.31h-26.15c-.85,0-1.33.66-1.23,1.23l1.33,13.29c.1.57.76,1.23,1.61,1.23h8.69v5.5c-1.04,1.14-3.42,1.8-6.93,1.8-8.73,0-14.61-6.26-14.61-15.75s5.88-15.56,14.61-15.56c4.74,0,9.77,1.23,13.67,3.32.85.19,1.52-.09,1.8-.76l4.74-13.95c.19-.57-.09-1.33-.85-1.71-5.5-3.42-12.91-5.5-19.93-5.5-20.5,0-34.16,13.67-34.16,34.16s13.67,34.16,34.16,34.16c9.11,0,17.84-2.85,23.53-7.69.66-.57,1.14-1.42,1.14-2.28v-30.18c0-.66-.66-1.33-1.42-1.33Z"/>
      <path class="st2" d="M89.2,133.3h-26.15c-.85,0-1.33.66-1.23,1.23l1.33,13.29c.1.57.76,1.23,1.61,1.23h8.69v5.5c-1.04,1.14-3.42,1.8-6.93,1.8-8.73,0-14.61-6.26-14.61-15.75s5.88-15.56,14.61-15.56c4.74,0,9.77,1.23,13.67,3.32.85.19,1.52-.09,1.8-.76l4.74-13.95c.19-.57-.09-1.33-.85-1.71-5.5-3.42-12.91-5.5-19.93-5.5-20.5,0-34.16,13.67-34.16,34.16s13.67,34.16,34.16,34.16c9.11,0,17.84-2.85,23.53-7.69.66-.57,1.14-1.42,1.14-2.28v-30.18c0-.66-.66-1.33-1.42-1.33Z"/>
    </g>
  </g>
  <g>
    <path class="st2" d="M369.84,174.76c-10.95,0-19.86-8.91-19.86-19.86s8.91-19.86,19.86-19.86,19.86,8.91,19.86,19.86-8.91,19.86-19.86,19.86ZM369.84,139.93c-8.25,0-14.97,6.71-14.97,14.97s6.71,14.97,14.97,14.97,14.97-6.71,14.97-14.97-6.71-14.97-14.97-14.97Z"/>
    <circle class="st0" cx="369.84" cy="154.9" r="14.97"/>
  </g>
</svg>