<?xml version="1.0" encoding="UTF-8"?>
<svg id="Layer_1" xmlns="http://www.w3.org/2000/svg" version="1.1" viewBox="0 0 432 238.06">
  <!-- Generator: Adobe Illustrator 30.2.1, SVG Export Plug-In . SVG Version: 2.1.1 Build 1)  -->
  <defs>
    <style>
      .st0 {
        fill: #ff4200;
      }

      .st1 {
        fill: #283a86;
      }

      .st2 {
        fill: #fff;
      }

      .st3 {
        fill: #0b32a0;
      }
    </style>
  </defs>
  <path class="st2" d="M216,234.05c-49.68,0-96.55-11.39-131.96-32.08-37.16-21.7-57.62-51.16-57.62-82.95s20.46-61.24,57.62-82.95C119.45,15.4,166.32,4.01,216,4.01s96.55,11.39,131.96,32.08c37.16,21.7,57.62,51.16,57.62,82.95s-20.46,61.24-57.62,82.95c-35.41,20.69-82.28,32.08-131.96,32.08ZM216,15.79c-47.63,0-92.38,10.82-126.02,30.47-33.39,19.5-51.78,45.35-51.78,72.77s18.39,53.27,51.78,72.77c33.64,19.65,78.39,30.47,126.02,30.47s92.38-10.82,126.02-30.47c33.39-19.5,51.78-45.35,51.78-72.77s-18.39-53.27-51.78-72.77c-33.64-19.65-78.39-30.47-126.02-30.47Z"/>
  <path class="st2" d="M216,232.58c-49.43,0-96.03-11.32-131.22-31.88-36.68-21.43-56.89-50.43-56.89-81.67s20.2-60.25,56.89-81.67C119.97,16.8,166.57,5.48,216,5.48s96.03,11.32,131.22,31.88c36.68,21.43,56.89,50.43,56.89,81.67s-20.2,60.25-56.89,81.67c-35.19,20.56-81.79,31.88-131.22,31.88ZM216,14.32c-47.88,0-92.9,10.89-126.76,30.67-33.86,19.78-52.51,46.07-52.51,74.04s18.65,54.27,52.51,74.04c33.86,19.78,78.88,30.67,126.76,30.67s92.9-10.89,126.76-30.67c33.86-19.78,52.51-46.07,52.51-74.04s-18.65-54.27-52.51-74.04c-33.86-19.78-78.88-30.67-126.76-30.67Z"/>
  <g>
    <ellipse class="st2" cx="216" cy="119.03" rx="179.27" ry="104.71"/>
    <path class="st3" d="M216,228.16c-48.66,0-94.47-11.11-128.99-31.27-35.27-20.6-54.7-48.25-54.7-77.86s19.43-57.26,54.7-77.86c34.53-20.17,80.34-31.27,128.99-31.27s94.47,11.11,128.99,31.27c35.27,20.6,54.7,48.25,54.7,77.86s-19.43,57.26-54.7,77.86c-34.53,20.17-80.34,31.27-128.99,31.27ZM216,18.74c-47.11,0-91.34,10.68-124.53,30.07-32.45,18.95-50.32,43.89-50.32,70.23s17.87,51.27,50.32,70.23c33.19,19.39,77.42,30.07,124.53,30.07s91.34-10.68,124.53-30.07c32.45-18.95,50.32-43.89,50.32-70.23s-17.87-51.27-50.32-70.23c-33.19-19.39-77.42-30.07-124.53-30.07Z"/>
  </g>
  <rect class="st2" x="30.54" y="98.4" width="37.49" height="37.49"/>
  <g>
    <path class="st0" d="M393.24,110.89v-.4s0,.4,0,.4Z"/>
    <rect class="st1" x="391.77" y="110.49" width="2.95" height=".4"/>
  </g>
  <g>
    <path class="st2" d="M49.31,161.09c-12.11,0-22.5-4.03-30.04-11.66-7.53-7.62-11.52-18.09-11.52-30.3s3.98-22.79,11.51-30.44c7.55-7.67,17.94-11.73,30.05-11.73s22.5,4.05,30.05,11.73c7.53,7.65,11.51,18.18,11.51,30.44s-3.98,22.69-11.52,30.3c-7.55,7.63-17.94,11.66-30.04,11.66ZM49.31,88.75c-8.89,0-16.38,2.84-21.66,8.2-5.31,5.4-8.12,13.07-8.12,22.18,0,18.33,11.69,30.18,29.78,30.18s29.78-11.85,29.78-30.18c0-9.11-2.81-16.78-8.12-22.18-5.28-5.37-12.77-8.2-21.66-8.2Z"/>
    <path class="st2" d="M148.3,159.7h-21.51c-3.27,0-6.28-1.98-7.67-5.04l-.51-1.07c-.58,3.46-3.68,6.11-7.4,6.11h-17.69c-4.01,0-7.4-3.34-7.4-7.3v-66.44c0-4.08,3.32-7.4,7.4-7.4h26.53c18.62,0,31.62,11.76,31.62,28.61,0,8.1-3.94,16.08-10.14,21.11l13.02,21.06c1.09,1.95,1.2,4.2.35,6.15l.78,1.26h-1.5c-1.32,1.83-3.52,2.95-5.89,2.95ZM97.94,90.35l-.03,57.57h9.02v-16.89c0-2.29,1.17-4.32,2.95-5.51v-10.77l4.64,9.72c2.16.32,4.08,1.7,5.03,3.71l9.42,19.74h10.86l-15.02-24.28,6.3-2.69c5.09-2.17,8.78-7.97,8.78-13.78,0-10.38-7.6-16.82-19.84-16.82h-22.12Z"/>
    <path class="st2" d="M225.08,159.7h-19.9c-3.15,0-5.97-1.75-7.38-4.56l-.4-1.02-1.79-6.28h-10.02l-2,6.93-.18.36c-1.41,2.81-4.23,4.56-7.38,4.56h-19.9c-2.43,0-4.64-1.21-5.89-3.24-1.13-1.83-1.32-4.08-.52-6.07l22.77-66.91.18-.36c1.34-2.68,4.5-4.55,7.68-4.55h20.5c3.18,0,6.34,1.88,7.68,4.56l.31.74,22.64,66.53c.79,1.99.61,4.24-.52,6.07-1.25,2.03-3.46,3.24-5.89,3.24ZM207.88,147.91h10.31l-19.59-57.57h-16l-19.59,57.57h10.31l3.39-11.86h27.78l3.39,11.86Z"/>
    <path class="st2" d="M289.64,159.7h-17.39c-2.77,0-5.56-1.6-7.11-4.07l-.11-.19-6.49-11.6v8.56c0,4.02-3.32,7.3-7.4,7.3h-17.79c-4.02,0-7.3-3.27-7.3-7.3v-66.44c0-4.08,3.32-7.4,7.4-7.4h17.29c3.18,0,6.12,1.75,7.53,4.46l6.28,11.29v-8.35c0-4.01,3.34-7.4,7.3-7.4h17.79c4.08,0,7.4,3.32,7.4,7.4v66.44c0,4.02-3.32,7.3-7.4,7.3ZM274.33,147.91h10.9l.03-57.57h-8.92v25.28c0,2.2-1.15,4.19-2.95,5.31v7.44l-3.62-6.5c-2.11-.11-4.08-1.28-5.15-3.2l-15.76-28.33h-10.99l-.03,57.57h8.89l.03-25.15c0-2.2,1.15-4.2,2.95-5.32v-7.5l3.66,6.54c2.15.11,4.11,1.32,5.17,3.21l15.79,28.21Z"/>
    <path class="st2" d="M416.85,159.7h-46.74c-3.86,0-6.48-3-7.27-5.78l-.23-.79v-67.26c0-4.16,3.14-7.3,7.3-7.3h45.73c4.14,0,7.5,3.27,7.5,7.3v15.18c0,3.66-2.57,6.63-6.07,7.27.69,1.27.98,2.73.8,4.18l-1.45,14.35c-.18,1.1-.62,2.11-1.24,2.99h1.66c4.08,0,7.4,3.23,7.4,7.2v15.38c0,3.96-3.39,7.3-7.4,7.3ZM374.4,147.91h38.07v-6.31h-28.95v-20.33h21.64l.49-4.9h-22.13v-19.73h27.85v-6.31h-36.97v57.57Z"/>
    <path class="st2" d="M334.73,161.1c-12.25,0-22.76-4.04-30.4-11.68-7.64-7.64-11.68-18.15-11.68-30.4s4.04-22.76,11.68-30.4c7.64-7.64,18.15-11.68,30.4-11.68,8.31,0,17.29,2.47,24.05,6.61,3.18,1.77,4.67,5.43,3.55,8.78l-4.44,13.05h1.47c4.01,0,7.4,3.34,7.4,7.3v31.96c0,2.56-1.22,5.13-3.26,6.89-7.05,5.99-17.79,9.56-28.76,9.56ZM334.73,88.74c-18.4,0-30.29,11.89-30.29,30.29s11.89,30.29,30.29,30.29c7.79,0,15.25-2.24,20.24-6.04v-26.1h-18.24l.49,4.9h11.34v14.01l-1.55,1.69c-2.36,2.57-6.18,3.82-11.68,3.82-12.58,0-21.37-9.28-21.37-22.58s8.79-22.38,21.37-22.38c4.14,0,8.45.74,12.37,2.1l2.24-6.58c-4.56-2.17-10.04-3.43-15.22-3.43Z"/>
  </g>
  <g>
    <path class="st0" d="M49.31,155.2c-21.4,0-35.67-14.47-35.67-36.07s14.27-36.27,35.67-36.27,35.67,14.47,35.67,36.27-14.27,36.07-35.67,36.07ZM49.31,103.15c-8.24,0-13.77,6.43-13.77,15.98s5.53,15.98,13.77,15.98,13.77-6.43,13.77-15.98-5.53-15.98-13.77-15.98Z"/>
    <path class="st0" d="M149.41,152.2c.5.9-.2,1.61-1.11,1.61h-21.51c-1.01,0-1.91-.7-2.31-1.61l-10.25-21.49c-.12-.26-.38-.42-.67-.42h0c-.41,0-.74.33-.74.74v21.37c0,.7-.7,1.41-1.61,1.41h-17.69c-.8,0-1.51-.7-1.51-1.41v-66.44c0-.83.68-1.51,1.51-1.51h26.53c15.48,0,25.73,9.05,25.73,22.71,0,7.94-4.82,15.98-12.36,19.2l15.98,25.83ZM118.76,113.2c3.42,0,5.73-2.11,5.73-5.33s-2.31-5.33-5.73-5.33h-4.86c-.59,0-1.07.48-1.07,1.07v8.49c0,.6.49,1.09,1.09,1.09h4.84Z"/>
    <path class="st0" d="M225.98,152.5c.3.6-.1,1.31-.9,1.31h-19.9c-.9,0-1.71-.5-2.11-1.31l-3.02-10.55h-18.9l-3.02,10.55c-.4.8-1.21,1.31-2.11,1.31h-19.9c-.8,0-1.21-.7-.9-1.31l22.71-66.74c.3-.6,1.41-1.31,2.41-1.31h20.5c1,0,2.11.7,2.41,1.31l22.71,66.74ZM189.41,112.69l-4.23,14.89h10.86l-4.23-14.89c-.34-1.21-2.05-1.21-2.39,0Z"/>
    <path class="st0" d="M289.64,84.46c.9,0,1.51.7,1.51,1.51v66.44c0,.7-.6,1.41-1.51,1.41h-17.39c-.7,0-1.61-.5-2.11-1.31l-16.74-29.92c-.2-.36-.75-.22-.75.19v29.63c0,.7-.6,1.41-1.51,1.41h-17.79c-.8,0-1.41-.7-1.41-1.41v-66.44c0-.83.68-1.51,1.51-1.51h17.29c.9,0,1.91.5,2.31,1.31l16.71,30.04c.18.32.68.2.68-.18v-29.67c0-.8.7-1.51,1.41-1.51h17.79Z"/>
    <path class="st0" d="M416.85,135.71c.8,0,1.51.6,1.51,1.31v15.38c0,.7-.7,1.41-1.51,1.41h-46.74c-.7,0-1.41-.8-1.61-1.51v-66.44c0-.9.5-1.41,1.41-1.41h45.73c.9,0,1.61.7,1.61,1.41v15.18c0,.9-.7,1.51-1.61,1.51h-26.23v7.94h21.31c.9,0,1.41.7,1.31,1.31l-1.41,14.07c-.1.6-.8,1.31-1.71,1.31h-19.5v8.54h27.44Z"/>
    <path class="st0" d="M359.36,111.29h-27.7c-.9,0-1.41.7-1.31,1.31l1.41,14.07c.1.6.8,1.31,1.71,1.31h9.2v5.83c-1.11,1.21-3.62,1.91-7.34,1.91-9.25,0-15.48-6.63-15.48-16.68s6.23-16.48,15.48-16.48c5.03,0,10.35,1.31,14.47,3.52.9.2,1.61-.1,1.91-.8l5.03-14.78c.2-.6-.1-1.41-.9-1.81-5.83-3.62-13.67-5.83-21.11-5.83-21.71,0-36.18,14.47-36.18,36.18s14.47,36.18,36.18,36.18c9.65,0,18.9-3.02,24.93-8.14.7-.6,1.21-1.51,1.21-2.41v-31.96c0-.7-.7-1.41-1.51-1.41Z"/>
  </g>
  <g>
    <path class="st3" d="M157.36,183.29l11.44,2.48c.33.07.57.45.51.72l-2.91,13.44c-.09.39-.33.71-.73.9-3.2,1.7-6.99,2.07-11.42,1.11-8.84-1.92-13.67-9.35-11.69-18.46,1.97-9.11,9.35-13.88,18.49-11.9,3.3.71,6.07,2.18,8.33,4.37.34.25.41.52.23.85l-3.47,5.75c-.21.28-.51.34-.88.16-1.62-1.37-3.46-2.28-5.54-2.73-4.14-.9-7.32,1.33-8.23,5.51-.91,4.18,1.22,7.52,4.75,8.28,1.75.4,2.92.37,3.51-.06l.53-2.43-3.88-.84c-.39-.09-.58-.3-.58-.62l.7-5.93c.04-.49.32-.69.84-.57Z"/>
    <path class="st3" d="M202.64,192.72c-.89,9.32-7.53,14.85-16.73,14.01-9.24-.84-14.69-7.66-13.8-16.96.89-9.3,7.51-14.9,16.77-14.01,9.2.88,14.65,7.66,13.76,16.96ZM193.27,191.84c.37-3.91-1.59-7.04-5.25-7.39-3.51-.34-6.14,2.19-6.53,6.26-.39,4.07,1.72,7.07,5.22,7.41,3.51.34,6.17-2.21,6.56-6.28Z"/>
    <path class="st3" d="M236.62,192.29c.16,9.37-5.81,15.61-15.04,15.81-9.28.2-15.46-5.96-15.63-15.3-.16-9.34,5.78-15.65,15.09-15.81,9.24-.16,15.42,5.96,15.58,15.3ZM227.21,192.47c-.07-3.92-2.38-6.82-6.05-6.75-3.52.06-5.86,2.87-5.79,6.96s2.5,6.83,6.02,6.77c3.52-.06,5.88-2.89,5.81-6.98Z"/>
    <path class="st3" d="M239.01,177.08l9.97-1.25c9.1-1.16,15.85,3.99,16.96,12.86,1.11,8.88-4.15,15.57-13.26,16.72l-9.97,1.25c-.27.03-.62-.22-.67-.57l-3.55-28.28c-.04-.34.23-.71.5-.72ZM248.23,183.77l1.77,14.13,2.22-.28c3.33-.42,5.19-3.52,4.64-7.77-.54-4.27-3.06-6.78-6.41-6.36l-2.22.28Z"/>
    <path class="st3" d="M267.26,182.4c-1.29-5.61,2.08-10.36,8.49-11.83,2.98-.68,7.09-.33,10.13.88.45.16.63.38.5.66l-1.29,6.55c-.04.49-.26.67-.68.52-2.6-.79-4.75-1.08-6.42-.84-1.29.32-2.01,1.13-1.82,1.95.16.72,1.36,1.2,3.57,1.41,2.21.21,4.35.76,6.41,1.65,2.09.89,3.94,2.95,4.61,5.85,1.31,5.61-2.21,10.35-8.69,11.84-3.54.81-7.53.56-9.97-.64-.44-.2-.62-.42-.52-.68l1.29-6.55c.04-.49.26-.64.69-.5,2.42.72,4.52.93,6.32.67,1.34-.31,2.06-1.21,1.87-2.03-.19-.71-1.38-1.2-3.6-1.45-2.22-.23-4.33-.78-6.33-1.64-2.02-.9-3.9-2.96-4.56-5.81Z"/>
  </g>
  <g>
    <path class="st3" d="M193.34,63.16c-.3-.24-.74-.23-1.02.03-5.72,5.19-10.5.37-13-5.53,4.74-8.57,5.44-23.35-8.47-20.53-7.46,1.51-10.04,11.02-9.38,17.59.11,1.06,1.09,2.76.96,3.51-.15.89-1.77,1.15-1.11,2.37.11.2.8.85,1.27,1.2.21.15.48.15.69,0,1.81-1.32,1.79.38,3.61,1.27,3.67,1.78,6.77-.07,9.64-2.42,3.3,5.13,6.76,9.81,13.7,7.94.77-.21,4.4-2.46,4.7-2.96.53-.87-.75-1.8-1.6-2.45ZM167.12,58.64c.9-1.09,2.43-2.5,3.83-2.81,1.43-.32,2.7-.03,3.7,1.07-1.09,2.89-5.43,4.69-7.53,1.74ZM176.83,54.01c-3.45-3.01-8.26-1.92-11.09,1.37-1,.04-.93-3.45-.89-4.26.21-4.26,3.01-10.24,7.62-11.03,8.2-1.4,7.28,9.39,4.36,13.93Z"/>
    <path class="st3" d="M240.08,40.09c1.33-.97.51-3.65-1.23-3.54-4.22.27-2.04,5.91,1.23,3.54Z"/>
    <path class="st3" d="M275.06,56.04l-1.58-.49c-.41-.13-.83.07-1.02.45-1.58,3.24-3.94,6.02-7.59,7.12,0,0-.2.08-.3.12.9-4.71,2.53-8.99,4.93-12.84.3-.65-.04-1.41-.73-1.61l-1.59-.46c-.54-.16-1.23.1-1.53.58-1.75,2.8-2.93,6.98-7.77,7.51-.76.08-1.7-.54-1.58-1.42.38-2.88,1.54-5.55,2.31-8.03-.02-1.2-1.61-1.27-2.7-1.49-.42-.09-.92.15-1.12.53-1.91,3.67-2.57,8.49-7.21,9.82-1.04.3-2.07-.37-1.85-1.43.52-2.46,1.34-4.61,1.89-6.01l.68-1.65c.14-.4.31-.77.72-.75,0,0,2.54.2,2.65.16.2-.07.36-.28.35-.49l.2-2.38c-.01-.27-.24-.47-.5-.47l-2.24-.12c-.15,0-.26-.14-.22-.28l1.28-5.04c.09-.38-.2-.75-.59-.75l-2.12-.05c-.36,0-.67.23-.76.57l-1.32,5.1c-.04.16-.19.27-.35.27l-2.55-.19c-.27,0-.49.2-.5.47l-.14,2.48c-.01.24.14.47.38.5,1.36.18,2.15-.14,1.79,1.2-.37,1.36-1.99,8.65-6.81,8.52-.37,0-1.13-.23-1-2.08.2-2.77,1.42-6.12,2.61-9,.07-.27-.05-.55-.3-.69-.79-.44-2.78-.4-3.18-.1-.94.7-1.97,6.86-6.15,10.06-1.8,1.38-3.53,1.08-3.11-.93,1.29-6.17,3.42-12.07,5.75-17.84.2-.49-.12-1.02-.64-1.09l-1.42-.19c-.5-.07-.98.2-1.19.66-.07.15-.14.3-.21.45-.49,1.04-.98,2.08-1.46,3.12-.08.17-.85,1.95-.86,1.99h0c-1.27,3.17-2.64,7.07-3.87,9.9-.15.35-.48,1.17-.9,1.95-.76,1.46-1.87,2.99-3.42,3.09-1.2.08-1.22-1.37-1.22-1.37.11-3.37,2.43-6.46,3.66-9.69.16-.43-.07-.9-.51-1.01l-1.79-.47c-.4-.1-.81.07-1.02.42l-1.14,1.92c-9.53-7.52-11.09,5.67-15.63,9.86-1.1,1.01-3.39,3.11-3.32.36.08-3.14,1.8-6.67,2.37-9.88.08-.44-.22-.85-.66-.9l-1.97-.22c-.28-.03-.56.1-.71.34-2.31,3.87-3.14,9.11-6.82,12.13-.57.47-1.41.14-1.51-.59-.47-3.41.96-6.72,2.02-9.93.1-.32-.09-.65-.41-.73l-1.58-.36c-.33-.08-.69.05-.87.34-4.7,7.25-4.18,23.23,6.95,11.93,2.65,5.24,6.64,2.15,9.85-.83,2.21,4.38,6.95,3.87,9.63.22,1.88,3.36,6.54,2.7,8.77-.27l.08.48c1.03,4.88,8.23,1.38,10.92-1.36.11,5.76,5.14,4.14,8.67,2.27,2.77,5.1,8.5,1.4,10.56-.95-.36,3.27,2.31,4.49,5.36,3.87,1.4-.28,2.2-.55,3.29-1.13l-.79,3.89c-3.84-.44-7.21-.89-10.79.49-8.8,3.39-2.28,13.57,8.41,9.41,2.86-1.11,5.17-3.66,5.88-6.07,1.33-.18,3.24-.88,4.28-1.43,2.83-1.51,6.64-5.15,7.44-8.5.1-.42-.14-.84-.55-.97ZM214,49.31c-.23,1.9-3.1,5-4.02,5.58-4.9,3.12-2.68-7.57.32-8.55,2.01-.66,3.93,1.08,3.7,2.97ZM249.72,69.21c-1.78-4.3,7.87-3.07,9.89-2.71-.33,3.56-8.73,5.52-9.89,2.71Z"/>
  </g>
</svg>