<?xml version="1.0" encoding="UTF-8"?>
<svg id="Layer_1" xmlns="http://www.w3.org/2000/svg" xmlns:xlink="http://www.w3.org/1999/xlink" version="1.1" viewBox="0 0 432 238.06">
  <!-- Generator: Adobe Illustrator 30.2.1, SVG Export Plug-In . SVG Version: 2.1.1 Build 1)  -->
  <defs>
    <style>
      .st0 {
        stroke-width: 9.03px;
      }

      .st0, .st1, .st2 {
        fill: none;
        stroke: #fff;
      }

      .st0, .st1, .st2, .st3, .st4 {
        stroke-miterlimit: 10;
      }

      .st1, .st3 {
        stroke-width: 9.03px;
      }

      .st2 {
        stroke-width: 12.04px;
      }

      .st5, .st4 {
        fill: #ff4200;
      }

      .st3 {
        stroke: #0b32a0;
      }

      .st3, .st6 {
        fill: #fff;
      }

      .st4 {
        stroke: #283a86;
        stroke-width: 3.01px;
      }

      .st7, .st8 {
        fill: #0b32a0;
      }

      .st8 {
        font-family: FatFrank-Regular, FatFrank;
        font-size: 44.13px;
      }
    </style>
    <path id="path" d="M49.51,100.4c0,53.71,74.54,93.83,166.49,93.83s166.49-40.12,166.49-93.83"/>
  </defs>
  <path class="st2" d="M216,230.53c-49.71,0-96.51-11.35-131.79-31.95-36.04-21.05-55.88-49.3-55.88-79.55s19.85-58.5,55.88-79.55C119.49,18.88,166.29,7.53,216,7.53s96.51,11.35,131.79,31.95c36.04,21.05,55.88,49.3,55.88,79.55s-19.85,58.5-55.88,79.55c-35.27,20.6-82.08,31.95-131.79,31.95Z"/>
  <path class="st0" d="M216,230.53c-49.71,0-96.51-11.35-131.79-31.95-36.04-21.05-55.88-49.3-55.88-79.55s19.85-58.5,55.88-79.55C119.49,18.88,166.29,7.53,216,7.53s96.51,11.35,131.79,31.95c36.04,21.05,55.88,49.3,55.88,79.55s-19.85,58.5-55.88,79.55c-35.27,20.6-82.08,31.95-131.79,31.95Z"/>
  <ellipse class="st3" cx="216" cy="119.03" rx="183.16" ry="106.98"/>
  <rect class="st6" x="26.52" y="97.95" width="38.3" height="38.3"/>
  <path class="st4" d="M397.08,110.71v-.41s0,.41,0,.41Z"/>
  <g>
    <path class="st1" d="M45.7,157.49c-22.7,0-37.95-15.42-37.95-38.36s15.25-38.56,37.95-38.56,37.95,15.5,37.95,38.56-15.25,38.36-37.95,38.36ZM45.7,83.58c-10.32,0-19.09,3.36-25.35,9.73-6.27,6.37-9.59,15.31-9.59,25.83,0,21.14,14.04,35.35,34.94,35.35s34.94-14.21,34.94-35.35c0-10.52-3.32-19.45-9.59-25.83-6.26-6.36-15.03-9.73-25.35-9.73Z"/>
    <path class="st1" d="M146.84,156.06h-21.97c-1.56,0-3.06-1.02-3.74-2.54l-9.03-18.93v18.52c0,1.6-1.44,2.94-3.15,2.94h-18.07c-1.62,0-3.05-1.38-3.05-2.94v-67.88c0-1.68,1.37-3.05,3.05-3.05h27.11c16.62,0,27.79,9.93,27.79,24.71,0,8.36-4.85,16.44-11.97,20.24l15.48,25.03c.47.85.48,1.78.03,2.56-.48.81-1.43,1.32-2.47,1.32ZM90.84,153.03s.04.03.05.03h18.06c.06,0,.11-.02.14-.04v-21.72c0-1.25,1.01-2.26,2.26-2.26.87,0,1.67.51,2.04,1.29l10.47,21.95c.21.46.63.79,1,.79h21.42l-16.84-27.23,1.61-.69c6.9-2.94,11.72-10.44,11.72-18.23,0-13.18-9.73-21.7-24.78-21.7h-27.11l-.04,67.81Z"/>
    <path class="st1" d="M225.27,156.06h-20.33c-1.49,0-2.83-.83-3.5-2.17l-.1-.26-2.77-9.69h-17.04l-2.87,9.95c-.67,1.34-2.01,2.17-3.5,2.17h-20.33c-.91,0-1.72-.44-2.18-1.17-.42-.67-.47-1.5-.15-2.23l23.21-68.21.05-.09c.6-1.19,2.31-2.16,3.81-2.16h20.95c1.5,0,3.21.97,3.81,2.17l.08.19,23.18,68.11c.32.73.27,1.56-.15,2.23-.45.73-1.27,1.17-2.18,1.17ZM204.19,152.65c.17.26.44.41.76.41h19.61l-22.93-67.37c-.15-.16-.68-.47-1.09-.47h-20.95c-.4,0-.92.3-1.1.49l-22.92,67.35h19.61c.31,0,.59-.15.76-.41l3.35-11.71h21.58l3.35,11.71Z"/>
    <path class="st1" d="M291.24,156.06h-17.76c-1.29,0-2.67-.82-3.43-2.04l-15.09-26.96v26.06c0,1.62-1.37,2.94-3.05,2.94h-18.18c-1.59,0-2.94-1.35-2.94-2.94v-67.88c0-1.68,1.37-3.05,3.05-3.05h17.66c1.57,0,3.06.87,3.71,2.17l14.91,26.81v-25.93c0-1.62,1.38-3.05,2.94-3.05h18.18c1.71,0,3.05,1.34,3.05,3.05v67.88c0,1.62-1.37,2.94-3.05,2.94ZM253.86,120.94c.68,0,1.33.36,1.67.98l17.1,30.57c.22.34.68.56.84.56h17.76l.04-67.81-.04-.04h-18.08s-.03.04-.03.05v30.3c0,.85-.58,1.6-1.4,1.81-.82.21-1.69-.16-2.11-.9l-17.07-30.7c-.15-.3-.61-.56-1.05-.56h-17.66l-.04,67.84h18.11l.04-30.2c0-.87.59-1.63,1.43-1.85.16-.04.32-.06.48-.06Z"/>
    <path class="st1" d="M421.2,156.06h-47.75c-1.52,0-2.73-1.36-3.09-2.63l-.06-.2v-68.09c0-1.76,1.18-2.94,2.94-2.94h46.72c1.71,0,3.15,1.35,3.15,2.94v15.51c0,1.74-1.35,3.05-3.15,3.05h-25.3v5.1h20.26c.88,0,1.69.36,2.22,1,.49.58.71,1.31.6,2.03l-1.45,14.44c-.21,1.27-1.48,2.59-3.23,2.59h-18.42v5.72h26.53c1.65,0,3.05,1.3,3.05,2.84v15.71c0,1.57-1.42,2.94-3.05,2.94ZM373.57,153.05h47.63s.02-.02.04-.03v-15.44s-.02,0-.04,0h-29.54v-11.74h21.43c.12,0,.22-.08.26-.13l1.39-13.9h-23.08v-11.12h28.31c.09,0,.14-.02.15-.03l-.02-15.4s-.07-.04-.14-.04h-46.66v67.53c.07.13.18.25.25.31ZM373.13,85.22h0ZM420.11,85.14h0s0,0,0,0Z"/>
    <path class="st1" d="M337.31,157.5c-23.01,0-38.47-15.46-38.47-38.47s15.46-38.47,38.47-38.47c7.74,0,16.07,2.3,22.31,6.15,1.37.72,2.06,2.27,1.61,3.63l-5.18,15.21c-.6,1.39-2.03,2.06-3.66,1.7l-.2-.05-.18-.1c-3.99-2.14-9.25-3.42-14.08-3.42-8.56,0-14.31,6.16-14.31,15.34s5.62,15.54,14.31,15.54c3.64,0,5.29-.68,5.99-1.14v-3.76h-7.9c-1.75,0-3.02-1.32-3.23-2.59v-.1s-1.45-14.34-1.45-14.34c-.1-.72.12-1.46.6-2.03.54-.63,1.35-1,2.22-1h28.3c1.62,0,3.05,1.37,3.05,2.94v32.65c0,1.32-.66,2.66-1.76,3.61-6.4,5.44-16.28,8.68-26.44,8.68ZM337.31,83.57c-21.21,0-35.46,14.25-35.46,35.46s14.25,35.46,35.46,35.46c9.47,0,18.63-2.98,24.49-7.96.42-.36.7-.89.7-1.32v-32.56s-.03-.02-.05-.03h-28.09l1.39,13.9c.04.05.14.13.26.13h10.91v8.05l-.4.43c-1.48,1.62-4.38,2.44-8.61,2.44-10.36,0-17.32-7.45-17.32-18.55s6.96-18.35,17.32-18.35c5.29,0,10.84,1.33,15.28,3.65.04,0,.06,0,.08,0l5.06-14.87s-.06-.07-.14-.11l-.12-.07c-5.78-3.59-13.55-5.73-20.77-5.73Z"/>
  </g>
  <g>
    <path class="st5" d="M45.7,155.99c-21.87,0-36.44-14.78-36.44-36.85s14.58-37.06,36.44-37.06,36.44,14.78,36.44,37.06-14.58,36.85-36.44,36.85ZM45.7,102.81c-8.42,0-14.06,6.57-14.06,16.32s5.65,16.32,14.06,16.32,14.06-6.57,14.06-16.32-5.65-16.32-14.06-16.32Z"/>
    <path class="st5" d="M147.97,152.92c.51.92-.21,1.64-1.13,1.64h-21.97c-1.03,0-1.95-.72-2.36-1.64l-10.47-21.96c-.13-.26-.39-.43-.68-.43h0c-.42,0-.76.34-.76.76v21.84c0,.72-.72,1.44-1.64,1.44h-18.07c-.82,0-1.54-.72-1.54-1.44v-67.88c0-.85.69-1.54,1.54-1.54h27.11c15.81,0,26.29,9.24,26.29,23.21,0,8.11-4.93,16.33-12.63,19.61l16.33,26.39ZM116.65,113.07c3.49,0,5.85-2.16,5.85-5.44s-2.36-5.44-5.85-5.44h-4.96c-.61,0-1.1.49-1.1,1.1v8.68c0,.61.5,1.11,1.11,1.11h4.95Z"/>
    <path class="st5" d="M226.2,153.22c.31.62-.1,1.34-.92,1.34h-20.33c-.92,0-1.75-.51-2.16-1.34l-3.08-10.78h-19.31l-3.08,10.78c-.41.82-1.23,1.34-2.16,1.34h-20.33c-.82,0-1.23-.72-.92-1.34l23.21-68.18c.31-.62,1.44-1.33,2.46-1.33h20.95c1.03,0,2.16.72,2.46,1.33l23.21,68.18ZM188.83,112.55l-4.32,15.21h11.09l-4.32-15.21c-.35-1.23-2.1-1.23-2.45,0Z"/>
    <path class="st5" d="M291.24,83.71c.92,0,1.54.72,1.54,1.54v67.88c0,.72-.62,1.44-1.54,1.44h-17.76c-.72,0-1.64-.51-2.16-1.34l-17.1-30.57c-.21-.37-.76-.22-.76.2v30.27c0,.72-.62,1.44-1.54,1.44h-18.18c-.82,0-1.44-.72-1.44-1.44v-67.88c0-.85.69-1.54,1.54-1.54h17.66c.92,0,1.95.51,2.36,1.33l17.07,30.7c.18.33.69.2.69-.18v-30.31c0-.82.72-1.54,1.44-1.54h18.18Z"/>
    <path class="st5" d="M421.2,136.08c.82,0,1.54.62,1.54,1.34v15.71c0,.72-.72,1.44-1.54,1.44h-47.75c-.72,0-1.44-.82-1.64-1.54v-67.88c0-.92.51-1.44,1.44-1.44h46.72c.92,0,1.64.72,1.64,1.44v15.51c0,.92-.72,1.54-1.64,1.54h-26.8v8.11h21.77c.92,0,1.44.72,1.33,1.34l-1.44,14.38c-.1.62-.82,1.34-1.75,1.34h-19.92v8.73h28.03Z"/>
    <path class="st5" d="M362.47,111.12h-28.3c-.92,0-1.44.72-1.33,1.34l1.44,14.38c.1.62.82,1.34,1.75,1.34h9.4v5.96c-1.13,1.23-3.7,1.95-7.5,1.95-9.45,0-15.81-6.78-15.81-17.05s6.37-16.84,15.81-16.84c5.13,0,10.58,1.34,14.79,3.59.92.21,1.64-.1,1.95-.82l5.13-15.1c.21-.62-.1-1.44-.92-1.85-5.96-3.7-13.97-5.96-21.56-5.96-22.18,0-36.97,14.79-36.97,36.97s14.79,36.97,36.97,36.97c9.86,0,19.3-3.08,25.47-8.32.72-.62,1.23-1.54,1.23-2.46v-32.65c0-.72-.72-1.44-1.54-1.44Z"/>
  </g>
  <text>
    <textPath xlink:href="#path"><tspan class="st8"><tspan x="0" y="0">GOODS</tspan></tspan>
    </textPath></text>
  <g>
    <path class="st7" d="M192.84,61.95c-.31-.24-.75-.24-1.04.03-5.84,5.31-10.73.38-13.28-5.65,4.84-8.75,5.55-23.86-8.65-20.98-7.62,1.55-10.26,11.26-9.58,17.97.11,1.08,1.11,2.82.98,3.58-.16.91-1.8,1.18-1.13,2.42.11.2.82.87,1.3,1.23.21.16.49.15.71,0,1.85-1.35,1.83.39,3.69,1.29,3.75,1.82,6.91-.08,9.85-2.48,3.38,5.24,6.91,10.02,14,8.11.79-.21,4.49-2.51,4.8-3.02.54-.89-.77-1.83-1.64-2.51ZM166.06,57.33c.92-1.11,2.48-2.55,3.91-2.87,1.46-.33,2.76-.03,3.78,1.09-1.11,2.95-5.55,4.79-7.69,1.78ZM175.99,52.61c-3.53-3.08-8.44-1.97-11.33,1.4-1.02.05-.95-3.53-.91-4.36.21-4.35,3.08-10.47,7.79-11.27,8.38-1.43,7.44,9.59,4.45,14.23Z"/>
    <path class="st7" d="M240.6,38.38c1.36-.99.52-3.73-1.26-3.62-4.31.28-2.08,6.04,1.26,3.62Z"/>
    <path class="st7" d="M276.34,54.67l-1.62-.5c-.41-.13-.85.07-1.04.46-1.61,3.31-4.02,6.15-7.76,7.28,0,0-.2.08-.31.13.92-4.81,2.59-9.19,5.03-13.12.31-.66-.04-1.44-.75-1.65l-1.63-.47c-.55-.16-1.26.1-1.56.59-1.79,2.86-2.99,7.13-7.94,7.68-.78.09-1.73-.55-1.61-1.45.39-2.94,1.58-5.67,2.36-8.21-.02-1.23-1.64-1.3-2.76-1.53-.43-.09-.94.15-1.14.54-1.95,3.74-2.62,8.68-7.37,10.03-1.06.3-2.12-.38-1.89-1.46.53-2.51,1.37-4.71,1.94-6.14l.69-1.69c.14-.41.32-.78.73-.77,0,0,2.59.2,2.7.17.21-.07.37-.28.36-.5l.2-2.44c-.02-.27-.24-.48-.51-.48l-2.29-.12c-.15,0-.26-.14-.23-.29l1.31-5.15c.09-.39-.2-.76-.6-.77l-2.16-.05c-.36,0-.68.23-.78.59l-1.35,5.21c-.04.16-.19.28-.36.27l-2.6-.19c-.27,0-.5.21-.51.48l-.14,2.53c-.01.24.15.48.39.51,1.39.18,2.2-.14,1.83,1.22-.38,1.39-2.03,8.83-6.96,8.71-.38,0-1.15-.23-1.02-2.13.2-2.83,1.45-6.26,2.67-9.19.07-.28-.06-.56-.31-.7-.81-.45-2.84-.41-3.24-.1-.96.72-2.01,7-6.29,10.28-1.84,1.41-3.61,1.1-3.18-.95,1.32-6.3,3.5-12.33,5.87-18.22.2-.5-.12-1.05-.65-1.12l-1.45-.19c-.51-.07-1,.2-1.22.67-.07.15-.14.31-.22.46-.5,1.06-1.01,2.12-1.49,3.19-.08.17-.87,1.99-.88,2.03h0c-1.3,3.23-2.69,7.23-3.95,10.11-.15.35-.49,1.2-.92,1.99-.77,1.49-1.91,3.05-3.49,3.16-1.23.08-1.24-1.4-1.24-1.4.11-3.45,2.48-6.6,3.74-9.91.17-.44-.07-.92-.52-1.04l-1.83-.48c-.4-.11-.83.07-1.04.43l-1.16,1.96c-9.74-7.69-11.33,5.8-15.97,10.08-1.12,1.03-3.46,3.18-3.39.36.08-3.21,1.83-6.81,2.42-10.1.08-.45-.22-.87-.67-.92l-2.01-.22c-.29-.03-.57.1-.72.35-2.36,3.95-3.21,9.31-6.97,12.4-.58.48-1.44.14-1.54-.61-.48-3.49.98-6.86,2.07-10.14.11-.32-.09-.67-.42-.74l-1.61-.37c-.34-.08-.7.05-.89.35-4.8,7.4-4.27,23.74,7.1,12.19,2.71,5.36,6.79,2.2,10.06-.84,2.26,4.48,7.1,3.96,9.84.22,1.92,3.44,6.68,2.75,8.96-.27l.09.5c1.06,4.99,8.41,1.41,11.16-1.39.12,5.89,5.25,4.22,8.86,2.32,2.83,5.21,8.69,1.43,10.79-.97-.37,3.34,2.36,4.59,5.48,3.96,1.43-.29,2.24-.56,3.36-1.15l-.81,3.98c-3.92-.45-7.36-.91-11.02.5-8.99,3.47-2.33,13.86,8.59,9.62,2.92-1.14,5.29-3.74,6-6.2,1.36-.19,3.31-.9,4.37-1.46,2.89-1.54,6.79-5.26,7.6-8.68.1-.43-.15-.86-.56-.99ZM213.96,47.8c-.24,1.94-3.16,5.11-4.11,5.7-5.01,3.18-2.74-7.73.32-8.74,2.06-.68,4.02,1.1,3.78,3.03ZM250.45,68.13c-1.82-4.4,8.04-3.13,10.11-2.77-.33,3.64-8.92,5.64-10.11,2.77Z"/>
  </g>
</svg>