<?xml version="1.0" encoding="utf-8"?>
<!-- Generator: Adobe Illustrator 30.2.1, SVG Export Plug-In . SVG Version: 9.03 Build 0)  -->
<svg version="1.0" id="Layer_1" xmlns="http://www.w3.org/2000/svg" xmlns:xlink="http://www.w3.org/1999/xlink" x="0px" y="0px"
	 viewBox="0 0 136.49 136.49" style="enable-background:new 0 0 136.49 136.49;" xml:space="preserve">
<style type="text/css">
	.st0{fill:#0C329E;}
	.st1{fill:#FD4301;}
	.st2{fill:#FFFFFF;}
	.st3{fill:#FD7E00;}
</style>
<g>
	<g>
		<path class="st0" d="M68.25,131.62L68.25,131.62c-24.07,0-43.58-19.51-43.58-43.58V48.45c0-24.07,19.51-43.58,43.58-43.58h0
			c24.07,0,43.58,19.51,43.58,43.58v39.59C111.82,112.11,92.31,131.62,68.25,131.62z"/>
	</g>
	<g>
		<g>
			<path class="st1" d="M68.25,126.46c-10.26,0-19.91-4-27.16-11.25c-7.26-7.26-11.25-16.9-11.25-27.16V48.45
				c0-10.26,4-19.91,11.25-27.16c7.26-7.26,16.9-11.25,27.16-11.25s19.91,4,27.16,11.25c7.26,7.26,11.25,16.9,11.25,27.16v39.59
				c0,10.26-4,19.91-11.25,27.16C88.15,122.46,78.51,126.46,68.25,126.46z M68.25,12.23c-9.68,0-18.77,3.77-25.61,10.61
				c-6.84,6.84-10.61,15.94-10.61,25.61v39.59c0,9.68,3.77,18.77,10.61,25.61c6.84,6.84,15.94,10.61,25.61,10.61
				s18.77-3.77,25.61-10.61c6.84-6.84,10.61-15.94,10.61-25.61V48.45c0-9.68-3.77-18.77-10.61-25.61
				C87.02,16,77.92,12.23,68.25,12.23z"/>
		</g>
	</g>
	<g>
		<path class="st2" d="M36.27,91.24V71.46c0-0.27,0.27-0.44,0.68-0.44h8c0.41,0,0.68,0.18,0.68,0.44v2.16
			c0,0.27-0.27,0.44-0.68,0.44h-2.39c-0.38,0-0.65,0.18-0.65,0.44v1.24c0,0.27,0.27,0.44,0.65,0.44h1.74c0.38,0,0.65,0.18,0.65,0.44
			v2.16c0,0.27-0.27,0.44-0.65,0.44h-1.74c-0.38,0-0.65,0.18-0.65,0.44v11.57c0,0.27-0.27,0.44-0.68,0.44h-4.28
			C36.54,91.68,36.27,91.51,36.27,91.24z"/>
		<path class="st2" d="M46.99,91.24V71.43c0-0.27,0.18-0.44,0.44-0.44h5.37c5.7,0,7.79,1.98,7.79,4.87c0,2.78-2.1,4.31-3.69,4.72
			c-0.24,0.06-0.33,0.15-0.33,0.21c0,0.06,0.12,0.12,0.38,0.18c2.33,0.56,3.28,1.15,3.28,2.83v7.44c0,0.27-0.18,0.44-0.44,0.44H55.2
			c-0.27,0-0.44-0.18-0.44-0.44v-7.62c0-0.92-0.77-1.15-1.42-1.15c-0.44,0-0.71,0.12-0.71,0.41v8.36c0,0.27-0.18,0.44-0.44,0.44
			h-4.75C47.17,91.68,46.99,91.51,46.99,91.24z M52.98,78.6c0.77,0,2.42-0.62,2.42-2.42c0-1.56-1.48-2.07-2.27-2.07
			c-0.3,0-0.5,0.06-0.5,0.18v4.16C52.63,78.54,52.78,78.6,52.98,78.6z"/>
		<path class="st2" d="M70.49,91.68h-4.4c-2.57,0-4.07-1.39-4.07-3.99V71.46c0-0.27,0.27-0.44,0.68-0.44h7.56
			c0.41,0,0.68,0.18,0.68,0.44v2.16c0,0.27-0.27,0.44-0.68,0.44h-1.95c-0.38,0-0.65,0.18-0.65,0.44v1.24c0,0.27,0.27,0.44,0.65,0.44
			h1.3c0.38,0,0.65,0.18,0.65,0.44v2.16c0,0.27-0.27,0.44-0.65,0.44h-1.3c-0.38,0-0.65,0.12-0.65,0.15v0.92
			c0,0.27,0.27,0.44,0.65,0.44h2.18c0.38,0,0.65,0.18,0.65,0.44v10.07C71.14,91.51,70.88,91.68,70.49,91.68z"/>
		<path class="st2" d="M73.09,91.24V81.11c0-0.27,0.18-0.44,0.44-0.44c2.66,0,3.54-0.18,3.54-0.8c0-1.39-4.25-1.21-4.25-4.87
			c0-1.62,1.42-4.25,5.85-4.25c4.16,0,5.91,1.33,5.91,5.34v0.03c0,0.27-0.18,0.44-0.44,0.44h-3.01c-0.27,0-0.44-0.18-0.44-0.44
			c0-1.36-0.15-2.54-1.68-2.54c-1.24,0-1.51,0.92-1.51,1.62c0,3.78,7.88,2.39,7.88,10.22c0,4.49-2.63,6.26-7.5,6.26h-4.34
			C73.27,91.68,73.09,91.51,73.09,91.24z"/>
		<path class="st2" d="M86.7,91.24V71.46c0-0.27,0.27-0.44,0.68-0.44h4.25c0.38,0,0.71,0.18,0.71,0.44v4.25
			c0,0.27,0.21,0.44,0.62,0.44h0.97c0.38,0,0.65-0.18,0.65-0.44v-4.25c0-0.27,0.27-0.44,0.68-0.44h4.25c0.38,0,0.65,0.18,0.71,0.44
			v19.78c0,0.27-0.27,0.44-0.68,0.44h-4.28c-0.41,0-0.68-0.18-0.68-0.44V79.67c0-0.27-0.27-0.44-0.65-0.44h-0.97
			c-0.41,0-0.62,0.18-0.62,0.44v11.57c0,0.27-0.27,0.44-0.68,0.44h-4.19C87.06,91.68,86.7,91.51,86.7,91.24z"/>
	</g>
	<g>
		<path class="st1" d="M47.25,109.62c0-0.39,0.22-1.12,0.22-1.85l-0.08-0.64c0-0.17,0.2-0.39,0.28-0.5
			c0.95-1.23,1.57-2.57,1.93-3.41c0.06-0.11,0.08-0.22,0.14-0.31v-0.06c-0.03-0.06-0.08-0.08-0.14-0.08c-0.06,0-1.65,1.04-3.05,1.04
			c-2.46,0-4.05-2.38-4.05-4.67c0-4.5,3.77-10.06,7.21-12.75c1.06-0.84,2.46-1.2,3.8-1.2c2.15,0,3.69,1.31,3.69,3.52
			c0,1.71-1.15,3.91-4.14,5.06l-0.08,0.03c-0.22,0-0.33-0.39-0.33-0.62l0.06-1.59c0.03-0.95,1.98-1.23,1.98-2.74
			c0-0.81-0.56-1.26-1.34-1.26c-4.05,0-8.22,8.05-8.22,11.49c0,1.09,0.39,2.26,1.68,2.26c1.45,0,4.42-2.38,5.06-3.69
			c0.5-1.03,0.81-3.02,2.32-3.02c0.75,0,1.23,0.67,1.23,1.37c0,0.81-0.95,1.82-1.34,2.46c-0.28,0.45-0.56,1.57-0.75,2.12
			c-0.56,1.51-1.17,2.99-1.93,4.44c-0.59,1.12-1.26,2.18-1.99,3.21c-0.25,0.33-1.23,1.84-1.73,1.84
			C47.39,110.09,47.25,109.87,47.25,109.62z"/>
		<path class="st1" d="M65.55,98.66v2.07c-0.48,0.39-1.03,0.61-1.59,0.61c-0.36,0-0.73-0.08-1.04-0.28
			c-0.98,1.45-2.32,2.12-4.08,2.12c-2.21,0-3.16-1.29-3.16-3.38c0-3.21,2.21-6.68,5.7-6.68c1.51,0,2.99,0.84,2.99,2.52
			c0,0.64-0.2,1.06-0.62,1.54c0.11,0.31,0.25,0.64,0.25,0.98c0,0.36-0.17,0.73-0.34,1.03l-0.03,0.06c0.17,0.03,0.31,0.08,0.47,0.08
			C64.57,99.33,65.05,99.05,65.55,98.66z M57.95,99.41c0,0.84,0.34,1.76,1.31,1.76c0.84,0,1.51-0.59,2.1-1.12
			c-0.33-0.45-0.5-0.92-0.5-1.37c0-0.75,0.45-1.45,1.26-1.84c0.06-0.22,0.08-0.42,0.08-0.64c0-0.64-0.67-0.98-1.23-0.98
			C59.18,95.22,57.95,97.88,57.95,99.41z"/>
		<path class="st1" d="M75.28,98.66v2.07c-0.48,0.39-1.03,0.61-1.59,0.61c-0.36,0-0.73-0.08-1.04-0.28
			c-0.98,1.45-2.32,2.12-4.08,2.12c-2.21,0-3.16-1.29-3.16-3.38c0-3.21,2.21-6.68,5.7-6.68c1.51,0,2.99,0.84,2.99,2.52
			c0,0.64-0.2,1.06-0.62,1.54c0.11,0.31,0.25,0.64,0.25,0.98c0,0.36-0.17,0.73-0.34,1.03l-0.03,0.06c0.17,0.03,0.31,0.08,0.47,0.08
			C74.3,99.33,74.78,99.05,75.28,98.66z M67.68,99.41c0,0.84,0.34,1.76,1.31,1.76c0.84,0,1.51-0.59,2.1-1.12
			c-0.33-0.45-0.5-0.92-0.5-1.37c0-0.75,0.45-1.45,1.26-1.84c0.06-0.22,0.08-0.42,0.08-0.64c0-0.64-0.67-0.98-1.23-0.98
			C68.91,95.22,67.68,97.88,67.68,99.41z"/>
		<path class="st1" d="M87.19,98.66v2.07l-0.25,0.17c-1.09,0.75-3.21,2.24-4.61,2.24c-1.03,0-1.37-0.61-1.57-1.54
			c-0.89,0.89-1.68,1.54-2.99,1.54c-2.01,0-2.66-1.62-2.66-3.38c0-2.82,2.54-6.07,5.51-6.07c0.45,0,0.89,0.11,1.31,0.28
			c0.87-2.94,1.73-5.73,3.58-8.22c0.42-0.59,1.29-1.71,2.1-1.71c0.92,0,0.92,1.93,0.92,2.52c0,4.72-2.52,10.23-5.81,13.59v0.11
			c0,0.39,0,0.92,0.48,0.92C84,101.18,86.54,99.33,87.19,98.66z M80.76,99.83c0.03-1.48,0.36-2.88,0.75-4.31
			c-0.17-0.03-0.36-0.08-0.56-0.08c-2.07,0-3.47,2.46-3.47,4.3c0,0.59,0.17,1.45,0.92,1.45C79.19,101.2,80.17,100.28,80.76,99.83z
			 M82.85,97.74c2.38-3.77,3.66-7.46,4.3-11.88C85.17,88.99,83.49,94.08,82.85,97.74z"/>
		<path class="st1" d="M96.18,98.66v2.07c-1.4,1.12-2.88,2.21-4.72,2.21c-0.31,0-0.64-0.06-0.95-0.08c-0.31,0.2-0.62,0.36-0.98,0.36
			c-0.81,0-1.93-0.59-1.93-1.51c0-0.34,0.17-0.48,0.45-0.48h0.08c0.31,0.03,0.62,0.08,2.15,0.08c0.98-1.51,1.59-2.74,1.59-4.45
			c0-0.22,0-0.47-0.03-0.73c-0.06,0.03-0.11,0.06-0.14,0.11c-1.29,1.59-2.85,3.3-4.56,4.5v-2.07c1.82-1.54,3.3-3.13,4.81-5
			c0.06-1.12,0.14-2.82,1.62-2.82c0.67,0,1.09,0.53,1.09,1.17c0,0.73-0.39,1.23-0.81,1.76v2.54c0,1.82-0.36,3.86-1.84,5.03
			C93.81,100.56,94.7,100.06,96.18,98.66z"/>
	</g>
	<g>
		<g>
			<g>
				<path class="st3" d="M63.42,23.12C51.75,25.79,44.46,37.4,47.13,49.07c2.67,11.66,14.29,18.96,25.95,16.29
					c11.66-2.67,18.96-14.29,16.29-25.95C86.7,27.74,75.08,20.45,63.42,23.12z"/>
			</g>
		</g>
		<g>
			<path class="st1" d="M80.37,51.95c-2.51-1.43-8.6-4.73-10.41-5.71c-0.23-0.12-0.42-0.18-0.58-0.18c-0.09,0-0.16,0.02-0.24,0.05
				c-0.15,0.07-0.21,0.57-0.11,0.92l0,0.01l3.26,13.33c0,0.01,0.05,0.7,0.59,1.02c0.53,0.31,1.41,0.2,2.54-0.34
				c2.65-1.26,4.68-2.79,6.21-4.66c0.42-0.52,0.89-1.31,0.73-2.18C82.24,53.38,81.56,52.62,80.37,51.95z"/>
		</g>
		<g>
			<path class="st1" d="M85.18,39.66c-0.34-0.19-0.74-0.29-1.2-0.29c-0.53,0-1.14,0.13-1.82,0.38c-2.07,0.76-5.92,2.31-8.47,3.33
				c-0.83,0.33-1.51,0.6-1.93,0.77c-0.05,0.02-0.11,0.04-0.18,0.07c-0.29,0.11-1.17,0.43-1.24,0.74c0.01,0.18,0.72,0.71,1.33,0.98
				l0.01,0l11.75,5.7c0,0,0.57,0.41,1.17,0.2c0.58-0.21,1.06-0.96,1.37-2.16c0.74-2.84,0.88-5.38,0.42-7.76
				C86.26,40.97,85.95,40.1,85.18,39.66z"/>
		</g>
		<g>
			<path class="st1" d="M84.14,36.17c0.21-0.58-0.07-1.42-0.81-2.43c-1.74-2.36-3.62-4.07-5.75-5.23c-0.41-0.22-0.96-0.44-1.54-0.44
				c-0.25,0-0.49,0.04-0.74,0.14c-0.77,0.3-1.39,1.11-1.84,2.4c-0.97,2.83-3.22,9.9-3.66,11.29c-0.08,0.25-0.28,0.9-0.15,1.1
				c0.04,0.06,0.45,0.06,1.2-0.32l0.01,0l12.38-5.72C83.26,36.94,83.93,36.76,84.14,36.17z"/>
		</g>
		<g>
			<path class="st1" d="M59.61,29.36c-0.23,0.8,0.04,1.78,0.81,2.91c1.4,2.09,4.35,6.25,5.77,8.25l0.58,0.82
				c0.51,0.72,1.04,1.21,1.25,1.25c0.23-0.19,0.61-1.38,0.73-2.07l0-0.01l2.62-12.21c0-0.01,0.27-0.65-0.08-1.18
				c-0.34-0.52-1.18-0.8-2.43-0.82c-0.12,0-0.24,0-0.36,0c-2.78,0-5.16,0.47-7.27,1.43C60.62,28.01,59.85,28.51,59.61,29.36z"/>
		</g>
		<g>
			<path class="st1" d="M65.79,42.38l-8.17-10.81c0,0-0.33-0.62-0.96-0.7c-0.04,0-0.09-0.01-0.13-0.01c-0.59,0-1.3,0.46-2.06,1.34
				c-1.92,2.22-3.17,4.43-3.82,6.76c-0.18,0.64-0.29,1.56,0.21,2.29c0.47,0.69,1.39,1.11,2.75,1.26c2.31,0.25,7,0.62,9.8,0.85
				c0.71,0.06,1.29,0.1,1.67,0.14c0.05,0,0.1,0.01,0.15,0.02c0.32,0.03,0.85,0.09,0.96-0.16c0.09-0.19-0.07-0.56-0.4-0.97
				L65.79,42.38z"/>
		</g>
		<g>
			<path class="st1" d="M65.78,45.08c-0.04-0.23-0.36-0.32-0.97-0.28l-0.02,0l-13.56-0.07c0,0-0.09-0.02-0.22-0.02
				c-0.24,0-0.63,0.05-0.92,0.34c-0.43,0.44-0.53,1.32-0.29,2.55c0.58,2.88,1.56,5.22,3.01,7.16c0.4,0.53,1.06,1.18,1.94,1.24
				c0.83,0.05,1.73-0.42,2.68-1.4c2.01-2.09,6.69-7.18,8.08-8.7C65.73,45.67,65.83,45.36,65.78,45.08z"/>
		</g>
		<g>
			<path class="st1" d="M66.4,46.88l-8.27,11.27c0,0-0.51,0.49-0.4,1.11c0.1,0.61,0.76,1.21,1.89,1.73
				c2.67,1.22,5.14,1.79,7.57,1.76c0.67-0.01,1.58-0.16,2.14-0.84c0.53-0.64,0.67-1.65,0.43-2.99c-0.51-2.86-1.9-9.63-2.31-11.64
				l-0.03-0.14c-0.06-0.29-0.13-0.65-0.31-0.74C67.05,46.36,66.86,46.27,66.4,46.88z"/>
		</g>
	</g>
	<g>
		<g>
			<g>
				<path class="st2" d="M80.36,107.71c-0.05-0.06-1.25-1.46-3.93-1.17c-0.36,0.04-0.61,0.31-0.56,0.61
					c0.05,0.3,0.37,0.51,0.73,0.47c0.36-0.04,0.67-0.04,0.95-0.01c-0.21,0.69-0.7,2.04-1.67,3.4c-1.81,2.52-4.37,3.86-7.6,3.99
					c-3.21,0.13-5.75-1.06-7.54-3.51c-1.34-1.83-1.77-3.74-1.8-3.87c0.28-0.03,0.59-0.03,0.95,0.01c0.36,0.04,0.68-0.17,0.73-0.47
					c0.05-0.3-0.21-0.57-0.56-0.61c-2.68-0.29-3.88,1.11-3.93,1.17c-0.21,0.25-0.14,0.59,0.16,0.77c0.11,0.07,0.24,0.1,0.37,0.1
					c0.2,0,0.4-0.08,0.53-0.23c0.01-0.02,0.17-0.19,0.5-0.37c0.14,0.56,0.64,2.32,1.91,4.06c1.94,2.67,4.78,4.07,8.23,4.07
					c0.17,0,0.34,0,0.51-0.01c3.65-0.14,6.66-1.71,8.68-4.55c1.01-1.41,1.53-2.8,1.77-3.58c0.33,0.18,0.49,0.35,0.51,0.37
					c0.13,0.15,0.33,0.23,0.53,0.23c0.13,0,0.26-0.03,0.37-0.1C80.5,108.3,80.57,107.96,80.36,107.71z"/>
				<path class="st2" d="M67.84,116.61c-3.62,0-6.61-1.48-8.64-4.28c-0.96-1.31-1.49-2.62-1.78-3.49c-0.36,0.28-0.96,0.33-1.38,0.08
					c-0.28-0.16-0.46-0.43-0.52-0.72c-0.05-0.29,0.03-0.58,0.22-0.81c0.15-0.17,1.49-1.66,4.38-1.35c0.33,0.04,0.62,0.2,0.81,0.44
					c0.17,0.22,0.24,0.49,0.2,0.76c-0.09,0.57-0.65,0.97-1.29,0.9c-0.08-0.01-0.15-0.01-0.23-0.02c0.22,0.7,0.68,1.9,1.54,3.07
					c1.69,2.31,4.08,3.43,7.11,3.3c3.07-0.12,5.49-1.39,7.21-3.77c0.68-0.95,1.12-1.9,1.38-2.59c-0.06,0-0.12,0.01-0.19,0.02
					c-0.63,0.07-1.2-0.33-1.29-0.9c-0.04-0.27,0.03-0.54,0.2-0.76c0.19-0.25,0.49-0.41,0.81-0.44c2.94-0.31,4.3,1.26,4.38,1.35l0,0
					c0.19,0.23,0.27,0.52,0.22,0.81c-0.05,0.3-0.24,0.56-0.52,0.72c-0.44,0.26-1.04,0.2-1.41-0.11c-0.3,0.8-0.81,1.91-1.61,3.04
					c-2.12,2.97-5.25,4.61-9.07,4.76C68.18,116.61,68.01,116.61,67.84,116.61z M58.04,107.21l0.16,0.64
					c0.12,0.48,0.6,2.19,1.83,3.88c1.93,2.65,4.81,3.99,8.3,3.85c3.49-0.14,6.35-1.63,8.28-4.33c0.99-1.38,1.49-2.74,1.7-3.43
					l0.18-0.59l0.55,0.29c0.37,0.2,0.57,0.4,0.64,0.48c0.05,0.06,0.18,0.08,0.26,0.03l0,0l0.03,0c-0.05-0.06-1.09-1.25-3.48-0.99
					c-0.08,0.01-0.11,0.04-0.12,0.05c0.01-0.01,0.06,0.02,0.14,0.02c0.01,0,0.02,0,0.03,0c0.36-0.04,0.72-0.05,1.05-0.01l0.62,0.06
					l-0.18,0.6c-0.22,0.72-0.73,2.13-1.75,3.55c-1.91,2.65-4.6,4.07-8,4.2c-3.39,0.13-6.07-1.12-7.98-3.72
					c-1.42-1.94-1.87-3.98-1.88-4.07l-0.12-0.56l0.57-0.05c0.33-0.03,0.69-0.03,1.05,0.01c0.08,0.01,0.14-0.02,0.16-0.04
					c-0.01,0-0.05-0.02-0.11-0.03c-2.4-0.26-3.44,0.94-3.48,0.99c0.15,0.04,0.25,0.02,0.28-0.02c0.06-0.07,0.27-0.29,0.65-0.5
					L58.04,107.21z"/>
			</g>
		</g>
	</g>
</g>
</svg>
