<?xml version="1.0" encoding="UTF-8"?>
<svg id="Layer_1" xmlns="http://www.w3.org/2000/svg" version="1.1" viewBox="0 0 299.4 268.7">
  <!-- Generator: Adobe Illustrator 30.7.0, SVG Export Plug-In . SVG Version: 2.1.4 Build 114)  -->
  <defs>
    <style>
      .st0 {
        fill: #fff;
      }

      .st1 {
        fill: #ef4823;
      }
    </style>
  </defs>
  <polygon class="st1" points="232.2 222.5 223.6 187.3 262.2 187.6 238.3 160.4 270.2 147.3 239.7 130.7 265.4 105.1 226.6 100.3 231.9 71.2 196.6 83.1 193.5 42.6 166.4 70.6 146 39.5 128.4 69.4 100.9 43.8 95.5 75 56.3 65.2 72.5 97.8 38.3 105.5 64.6 129.1 30.8 147.2 71.3 160 59.2 181.3 92.2 180.6 92 212.3 130.1 195.9 141.6 225.9 162.5 202.7 190 226.5 194.2 195.4 232.2 222.5"/>
  <g>
    <path class="st0" d="M94.1,97.4c4-10.7,8.5-13.1,13-11.4,1.6.6,3.4,1.9,6.2,2.5l-3.1,8.2c-1.2-1.5-2.3-2.4-3.6-2.8-2.8-1-4.3.6-5.6,4-1.1,2.8-1.3,4.6-.3,5,1.1.4,2-1.6,3.2-6.7l6,2c-2.3,4.9-5,12.1-6.7,17.2-2.7-1.7-4.6-1.6-7-2.5-4.2-1.6-5.8-6.1-2.3-15.5Z"/>
    <path class="st0" d="M109.9,102.7c3-7.9,8.1-12.6,13.4-10.7,5.3,2,6,8.9,3,16.8-3,8.1-7.9,12.2-13.2,10.2-5.3-2-6.3-8.3-3.2-16.4ZM121,103.1c1-2.8.8-4.4-.2-4.7-.9-.3-2.2.7-3.2,3.5-.9,2.4-.5,3.8.4,4.1,1,.4,2.1-.5,3-2.9Z"/>
    <path class="st0" d="M127.6,109.4c3-7.9,8.1-12.6,13.4-10.7,5.3,2,6,8.9,3,16.8-3,8.1-7.9,12.2-13.2,10.2-5.3-2-6.3-8.3-3.2-16.4ZM138.8,109.7c1-2.8.8-4.4-.2-4.7-.9-.3-2.2.7-3.2,3.5-.9,2.4-.5,3.8.4,4.1,1,.4,2.1-.5,3-2.9Z"/>
    <path class="st0" d="M150.2,102.7c2.2.8,5.1,1.4,7.7,2.4,6.4,2.4,7.4,9,4.3,17.3-3.2,8.6-7.6,12.1-12.1,10.5-2.8-1-4.1-2-5.6-2.6s-3-1-4.3-1.1c4.3-9.4,7.9-19.1,9.9-26.5ZM156.4,117.4c.9-2.5.6-4.2-.3-4.6-1-.4-2.2.8-3.1,3.3-.9,2.4-.7,3.8.3,4.2,1,.4,2.2-.5,3.1-2.9Z"/>
    <path class="st0" d="M158.3,135.7l5.1-13.2c.9,2.5,4.4,4.9,6.2,5.6.9.3,1.7.2,1.9-.6.9-2.4-8.5-4.1-5.6-11.6,1.8-4.9,5.9-5.5,8.9-4.4,3.5,1.3,7.5,3.3,8.8,3.3l-4,10.4c-1-2.9-4.3-5.1-5.9-5.7-.9-.3-1.6-.2-1.8.5-1,2.6,8.7,3.8,5.2,13-2.2,5.9-6.2,7.7-11.1,5.9-2.5-.9-4.9-2.7-7.6-3.1Z"/>
    <path class="st0" d="M189.3,117.3c3.2,1.2,7.1,2.2,10.8,3.7,4.5,1.7,5.9,4.5,4.7,7.8-.9,2.4-2.8,3.2-4.4,3.6-.6.2-1,.4-1.2.8-.2.5,0,.9.4,1.4,1.5,1.9,2.3,4.3.9,7.9-1.8,4.9-5.8,7.1-10.3,5.4-2.6-1-4.1-2-6.2-2.8-1.7-.7-3.4-1.2-4.8-1.3,4.3-9.4,8-19.2,10-26.6ZM193.7,137.1c.6-1.6.5-3.2-.5-3.6-1-.4-2,.8-2.6,2.4-.6,1.7-.5,2.9.4,3.3.9.3,2-.5,2.6-2.2ZM197.1,128c.5-1.4.5-2.9-.5-3.3-1-.4-1.9.7-2.5,2.2-.5,1.2-.5,2.5.6,2.9,1,.4,1.9-.5,2.4-1.7Z"/>
    <path class="st0" d="M204.3,147.4c3.2-8.5-.3-11.2,3.2-23.2l9.7,3.6c-2,4-3.6,7.9-4.3,9.8-.4,1.1-.2,2.1.4,2.3.6.2,1.4-.4,1.8-1.5.7-1.9,2-5.9,3.3-10.1l7.8,2.9c-4.5,10-10.9,13.2-13.2,19.5-.5,1.4-.9,3-1.4,5l-9.5-3.6c1-1.8,1.7-3.3,2.2-4.6Z"/>
    <path class="st0" d="M99.3,121.6l4.2,1.6c3.4,1.3,4.5,3.8,1.4,13.4-.4,1.1-.5,2.1.3,2.3,2,.7,3-7.5,4.2-13.6l6.9,2.6c-3.4,7.2-6.7,15.9-9.8,26.2l-8.4-3.2c2.5-7,5.1-11.9,3.5-12.5-1.8-.7-3,5-4.9,12l-7.6-2.8c3.7-7.1,8.2-18.4,10.4-26Z"/>
    <path class="st0" d="M120.6,129.6l11.6,4.4c-2.4,7.6-2.8,17.4-5.9,27.7l-9.7-3.6c2.1-4.6,3.3-7.2,4-9.3.3-.9.1-1.7-.6-2-.7-.3-1.4.2-1.7,1.1-.8,2.1-1.6,4.8-3.1,9.7l-7.9-3c4.5-9.9,11-17.3,13.1-25ZM124.1,140.1c.8-2.2.7-3.5,0-3.8-.8-.3-1.7.6-2.6,2.8-.8,2.1-.5,3,.2,3.3.8.3,1.6-.3,2.4-2.3Z"/>
    <path class="st0" d="M135.6,146c.4-1.1.2-1.7-.7-2-.7-.2-1.6-.3-2.4-.2l2.9-8.5,14.3,5.4-3.4,8.3c-.6-.6-1.3-1.2-2-1.4-.8-.3-1.4,0-1.9,1.1-1.5,4-2.8,9.5-5.5,17.2l-8.5-3.2c3-7.5,5.7-12.6,7.2-16.5Z"/>
    <path class="st0" d="M145.2,157.3c1.3-3.5,4-10,5.7-16.3l8,3c-2.4,5.7-4.6,10.6-5.5,13-.4,1.1,0,2,.7,2.3.8.3,1.6-.1,2-1.2.9-2.4,2.6-7.5,4.4-13.4l6.2,2.3c-2.9,5.9-4.8,11.9-6.1,15.4-2.7,7.2-7.1,10-11.9,8.2-5.1-1.9-6.1-6.5-3.6-13.3Z"/>
    <path class="st0" d="M169.7,170.4c.2-.8,0-1.3-.5-1.5-.6-.2-1.1.2-1.3.9-.6,1.6-1.1,3.5-1.5,7l-8.1-3c2.2-4.9,4.2-9.5,5.8-13.9,1.6-4.4,3-8.5,4-12.3l9.9,3.7c4.3,1.6,5.9,5.8,4,11-1.5,4-4.5,5.8-7.2,4.8l-.9-.4c-.5-.2-.9,0-1.1.5-.4,1,.5,1.8,1.5,2.2,1.4.5,3.4.2,4.7-.5h0c0,1.4-.2,3.2-.8,4.9-1.5,3.9-3.8,6.6-6.7,5.5-2.7-1.1-3.3-3.4-1.8-8.7ZM174.8,160.9c.8-2.1.4-3.4-.4-3.7-.8-.3-2,.5-2.7,2.6-.8,2.1-.4,3.2.5,3.6.9.3,1.9-.3,2.7-2.4Z"/>
    <path class="st0" d="M186.7,154.4l14.5,5.4-3,6.8c-1.2-.9-2.9-1.8-4.5-2.4-1.6-.6-2.4-.3-2.8.7-.4,1,0,1.8.9,2.1,1.3.5,3.3.3,5.1,1l-2.3,6.1c-1.7-.7-3.3-1.9-4.5-2.4-1-.4-1.8,0-2.1.8-.4,1,.2,1.9,1.9,2.5,1.3.5,3.4.9,5.2.9l-3.4,10.3-14.9-5.6c4.4-9.8,7.7-18.5,9.8-26.2Z"/>
  </g>
</svg>
