<?xml version="1.0" encoding="utf-8"?>
<!-- Generator: Adobe Illustrator 30.2.1, SVG Export Plug-In . SVG Version: 9.03 Build 0)  -->
<svg version="1.0" id="Layer_1" xmlns="http://www.w3.org/2000/svg" xmlns:xlink="http://www.w3.org/1999/xlink" x="0px" y="0px"
	 viewBox="0 0 136.49 136.49" style="enable-background:new 0 0 136.49 136.49;" xml:space="preserve">
<style type="text/css">
	.st0{fill:#F7EB17;}
	.st1{fill:#FF4200;}
</style>
<g>
	<g>
		<g>
			<polygon class="st0" points="114.43,108.59 106.57,90.19 124.39,85.21 110.41,73.33 123.63,61.83 107.72,56.65 116.73,39.02
				98.33,41.51 97.57,24.65 82.62,35.96 76.68,13.92 67.29,33.08 54.45,18.52 49.66,37.49 34.14,26.95 35.1,44.96 15.93,44.77
				27.05,60.68 12.1,69.49 26.86,79.07 13.25,93.64 33.37,95.36 30.11,108.78 45.25,103.99 48.7,121.62 64.41,107.44 73.04,122.57
				80.13,106.86 95.46,116.44 93.93,98.62 			"/>
		</g>
	</g>
	<g>
		<g>
			<polygon class="st0" points="114.43,108.59 106.57,90.19 124.39,85.21 110.41,73.33 123.63,61.83 107.72,56.65 116.73,39.02
				98.33,41.51 97.57,24.65 82.62,35.96 76.68,13.92 67.29,33.08 54.45,18.52 49.66,37.49 34.14,26.95 35.1,44.96 15.93,44.77
				27.05,60.68 12.1,69.49 26.86,79.07 13.25,93.64 33.37,95.36 30.11,108.78 45.25,103.99 48.7,121.62 64.41,107.44 73.04,122.57
				80.13,106.86 95.46,116.44 93.93,98.62 			"/>
		</g>
	</g>
	<g>
		<g>
			<g>
				<path class="st1" d="M38,67.02c-0.06,2.82,0.34,3.57,0.98,3.45c0.4-0.08,0.61-0.53,0.63-1.09c0.01-0.59-0.21-0.93-0.49-1.14
					c-0.1-0.08-0.14-0.18-0.14-0.3c0-0.13,0.06-0.26,0.18-0.38c0.78-0.68,3-2.27,3.32-2.33c0.15-0.03,0.26,0.08,0.28,0.38
					c0.09,1.39,0.19,2.75,0.15,4.26c-0.06,2.57-1.54,4.46-4.13,4.95c-2.99,0.57-4.7-1.61-4.6-5.9c0.1-4.57,1.85-8.71,5.64-9.43
					c2.42-0.46,3.22,0.83,3.18,2.75c-0.01,0.42-0.16,0.77-0.38,1.08c-0.76,1.09-2.51,2.58-3.1,2.69c-0.13,0.03-0.23-0.07-0.23-0.3
					c0-0.15,0.02-0.42,0.03-0.63c0.01-0.63-0.07-1.33-0.47-1.26C38.33,63.94,38.04,64.93,38,67.02z"/>
			</g>
		</g>
		<g>
			<g>
				<path class="st1" d="M47.88,73c-3.48,0.66-4.49-1.69-4.42-4.76c0.11-5.03,1.76-9.85,4.74-10.41c2.98-0.56,4.42,3.68,4.31,8.7
					C52.43,69.6,51.3,72.36,47.88,73z M48.81,66.27c0.06-2.76-0.27-4.16-0.71-4.07c-0.5,0.09-0.84,1.62-0.91,4.38
					c-0.03,1.37,0.25,1.85,0.77,1.75C48.47,68.23,48.78,67.64,48.81,66.27z"/>
			</g>
		</g>
		<g>
			<g>
				<path class="st1" d="M57.37,71.21c-3.48,0.66-4.49-1.69-4.42-4.76c0.11-5.03,1.76-9.85,4.74-10.41c2.98-0.56,4.42,3.68,4.31,8.7
					C61.92,67.81,60.78,70.56,57.37,71.21z M58.3,64.47c0.06-2.76-0.27-4.16-0.71-4.07c-0.5,0.09-0.84,1.62-0.91,4.38
					c-0.03,1.37,0.25,1.85,0.77,1.75C57.96,66.43,58.26,65.84,58.3,64.47z"/>
			</g>
		</g>
		<g>
			<g>
				<path class="st1" d="M63.41,69.78c-0.25,0.03-0.37-0.03-0.43-0.2c-0.19-0.51-0.32-1.91-0.23-5.87c0.09-4,0.37-6.51,0.68-8.01
					c0.08-0.34,0.22-0.46,0.35-0.5c0.58-0.15,1.28-0.32,1.92-0.44c3.67-0.69,6.39,0.16,6.22,7.52c-0.09,4.09-0.99,6.12-5.5,6.97
					C65.87,69.35,63.73,69.74,63.41,69.78z M68.22,62.1c0.06-2.65-0.62-3.67-1.09-3.58c-0.09,0.02-0.18,0.07-0.25,0.18
					c-0.2,0.28-0.29,1.27-0.34,3.15c-0.05,2.36,0.09,3.21,0.3,3.45c0.09,0.1,0.17,0.12,0.26,0.1C67.55,65.32,68.17,64.5,68.22,62.1z
					"/>
			</g>
		</g>
		<g>
			<g>
				<path class="st1" d="M76.83,56.1c-0.35,0.07-0.49,0.32-0.5,0.59c-0.01,0.48,0.31,0.72,1.09,0.93c2.48,0.67,3.43,1.82,3.38,4.38
					c-0.06,2.59-1.48,5.06-4.48,5.62c-2.47,0.47-4.11-0.66-4.04-3.39c0.03-1.26,0.34-2.13,0.75-2.64c0.08-0.09,0.13-0.12,0.19-0.13
					c0.09-0.02,0.16,0.03,0.22,0.13c0.81,1.29,2.02,1.99,2.98,1.81c0.49-0.09,0.7-0.32,0.7-0.66c0.01-0.38-0.25-0.54-1.23-0.77
					c-1.78-0.44-3.31-1.38-3.25-4.09c0.06-2.59,1.56-4.9,4.24-5.41c1.56-0.3,2.83,0.03,3.68,0.73c0.13,0.11,0.18,0.27,0.18,0.44
					c-0.02,0.67-0.67,2.42-1.22,3.38c-0.06,0.11-0.12,0.16-0.21,0.17c-0.07,0.01-0.16-0.01-0.22-0.05
					C78.26,56.36,77.45,55.98,76.83,56.1z"/>
			</g>
		</g>
		<g>
			<g>
				<path class="st1" d="M83.99,63.5c-0.14,0.01-0.28,0.03-0.29-0.24c-0.07-1.41-0.09-2.77-0.06-4.1c0.04-1.92,0.19-3.65,0.41-5.24
					c0.02-0.21,0.14-0.32,0.29-0.36c0.38-0.11,1.17-0.3,1.95-0.45c1.4-0.27,2.31-0.36,2.81,0.22c0.23,0.27,0.35,0.67,0.34,1.23
					c-0.02,0.92-0.39,1.64-0.87,2.22c-0.09,0.12-0.13,0.19-0.14,0.27c0,0.05,0.03,0.11,0.09,0.15c0.78,0.58,1.11,1.18,1.09,2.36
					c-0.04,1.85-1.16,3.15-3.85,3.66C85.2,63.32,84.58,63.43,83.99,63.5z M87.09,55.47c0.01-0.41-0.32-0.48-0.59-0.43
					c-0.12,0.02-0.21,0.08-0.28,0.18c-0.13,0.19-0.2,0.55-0.22,1.25c-0.01,0.26,0.03,0.42,0.18,0.39
					C86.46,56.82,87.08,56.08,87.09,55.47z M87.1,59.33c0.01-0.56-0.15-0.98-0.38-0.94c-0.13,0.02-0.32,0.18-0.48,0.36
					c-0.15,0.2-0.22,0.51-0.23,0.82c-0.01,0.48,0.03,0.7,0.11,0.79c0.06,0.07,0.13,0.07,0.22,0.05
					C86.64,60.36,87.09,60.03,87.1,59.33z"/>
			</g>
		</g>
		<g>
			<g>
				<path class="st1" d="M90.85,62.19c-0.27,0.04-0.31-0.16-0.3-0.4c0.03-1.26,0.57-2.5,0.71-3.05c0.02-0.07,0.03-0.14,0.03-0.19
					c0-0.06-0.01-0.13-0.05-0.21c-0.42-0.69-1.46-2.32-1.39-5.3c0.01-0.44,0.14-0.53,0.37-0.6c0.33-0.1,0.7-0.17,1.09-0.25
					c0.38-0.07,0.73-0.13,0.94-0.15c0.42-0.05,0.46,0.12,0.42,0.33c-0.06,0.33-0.18,1.17-0.19,1.99c-0.02,0.88,0.09,1.75,0.27,1.95
					c0.05,0.06,0.08,0.08,0.14,0.06c0.04-0.01,0.08-0.04,0.11-0.09c0.2-0.28,0.28-1.32,0.3-2.28c0.02-1.06-0.04-1.54-0.04-1.83
					c0-0.19,0.09-0.3,0.25-0.36c0.2-0.06,0.55-0.14,0.9-0.21c0.41-0.08,0.84-0.15,1.09-0.17c0.4-0.04,0.48,0.04,0.47,0.51
					c-0.04,1.93-0.58,3.17-1.11,4.41c-0.5,1.18-0.98,2.34-1.02,4.09c-0.01,0.36,0.05,0.6,0.04,0.86c0,0.12-0.03,0.29-0.3,0.35
					c-0.32,0.07-0.84,0.19-1.38,0.29C91.69,62.06,91.18,62.14,90.85,62.19z"/>
			</g>
		</g>
		<g>
			<g>
				<polygon class="st1" points="95.88,50.55 83.53,52.75 83.62,51.72 95.98,49.52 				"/>
			</g>
		</g>
		<g>
			<g>
				<polygon class="st1" points="95.7,63.21 83.36,65.52 83.44,64.49 95.78,62.18 				"/>
			</g>
		</g>
	</g>
	<g>
		<g>
			<g>
				<path class="st1" d="M42.51,89.91c-0.22,0.02-0.35-0.07-0.37-0.33c-0.18-1.9-0.21-4.21-0.16-6.38c0.07-3.31,0.35-6.36,0.62-7.36
					c0.08-0.26,0.22-0.48,0.42-0.53c0.38-0.09,0.83-0.19,1.25-0.27c0.43-0.08,0.84-0.14,1.15-0.18c0.15-0.03,0.26,0.06,0.38,0.25
					c0.4,0.66,1.02,2.23,2.29,5.71c0.04,0.11,0.08,0.14,0.14,0.12c0.09-0.02,0.16-0.14,0.17-0.32c0.06-2.82-0.73-5.19-0.72-5.8
					c0.01-0.23,0.11-0.4,0.29-0.45c0.41-0.12,1.02-0.25,1.62-0.36c0.5-0.09,0.99-0.17,1.35-0.2c0.21-0.02,0.34,0.07,0.37,0.37
					c0.22,1.99,0.29,5.27,0.22,8.36c-0.04,1.94-0.14,3.8-0.31,5.18c-0.05,0.39-0.22,0.57-0.48,0.64c-0.41,0.12-1.12,0.27-1.75,0.39
					c-0.4,0.08-0.78,0.13-1.04,0.14c-0.34,0.01-0.44-0.05-0.49-0.46c-0.26-2.19-0.79-3.79-1.5-5.1c-0.08-0.14-0.16-0.2-0.24-0.18
					c-0.13,0.03-0.2,0.26-0.2,0.51c-0.04,1.68,0.49,4.99,0.48,5.22c-0.01,0.29-0.11,0.38-0.27,0.43c-0.4,0.11-1.03,0.25-1.65,0.37
					C43.49,89.78,42.92,89.87,42.51,89.91z"/>
			</g>
		</g>
		<g>
			<g>
				<path class="st1" d="M52.64,87.99c-0.31,0.04-0.47-0.01-0.49-0.34c-0.04-0.75-0.05-1.56-0.03-2.4
					c0.09-4.66,1.17-10.23,4.45-12.73c0.15-0.1,0.27-0.18,0.37-0.2c0.1-0.02,0.19,0,0.32,0.07c2.86,1.45,3.93,5.76,3.81,11.01
					c-0.02,0.74-0.06,1.53-0.13,2.32c-0.04,0.48-0.24,0.67-0.55,0.77c-0.46,0.14-0.99,0.26-1.5,0.36c-0.65,0.12-1.28,0.2-1.69,0.24
					c-0.21,0.02-0.34-0.07-0.33-0.34c0.01-0.38,0.26-1.32,0.29-2.5c0.01-0.51-0.16-0.69-0.47-0.63c-0.5,0.09-0.9,0.42-0.92,1.29
					c-0.02,0.91,0.07,1.6,0.06,2.11c0,0.19-0.07,0.32-0.29,0.38c-0.41,0.12-0.99,0.24-1.61,0.36
					C53.48,87.85,53.07,87.93,52.64,87.99z M56.63,80.64c0.13-0.06,0.27-0.16,0.4-0.25c0.15-0.12,0.23-0.25,0.23-0.52
					c0.02-0.7-0.15-1.81-0.33-2.36c-0.04-0.12-0.08-0.17-0.14-0.16c-0.07,0.01-0.13,0.08-0.2,0.23c-0.45,0.94-0.64,2.3-0.66,3.16
					c0,0.17,0.05,0.2,0.13,0.18C56.19,80.9,56.4,80.78,56.63,80.64z"/>
			</g>
		</g>
		<g>
			<g>
				<path class="st1" d="M63.16,86c-0.25,0.03-0.44-0.09-0.47-0.57c-0.03-0.45-0.03-1.23-0.01-2.1c0.08-3.48,0.46-5.92,0.47-6.55
					c0.01-0.29-0.05-0.48-0.34-0.43c-0.74,0.14-1.28,0.64-1.61,0.7c-0.12,0.02-0.2-0.06-0.2-0.3c0.02-0.67,0.29-3.16,0.48-4.17
					c0.06-0.2,0.17-0.37,0.39-0.51c0.49-0.3,1.78-0.85,3.53-1.18c1.53-0.29,2.75-0.27,3.3-0.02c0.29,0.19,0.31,0.41,0.29,0.91
					c-0.06,1.21-0.21,2.81-0.35,3.67c-0.05,0.22-0.11,0.31-0.21,0.32c-0.24,0.04-0.7-0.3-1.36-0.18c-0.22,0.04-0.33,0.21-0.39,0.59
					c-0.03,0.22-0.07,0.51-0.08,0.87c-0.09,3.92,0.56,7.04,0.54,7.74c-0.01,0.27-0.11,0.42-0.38,0.53c-0.33,0.12-1.06,0.3-1.78,0.43
					C64.39,85.87,63.66,85.97,63.16,86z"/>
			</g>
		</g>
		<g>
			<g>
				<path class="st1" d="M75.92,69.05c0.62-0.12,1.25-0.22,1.62-0.25c0.16-0.01,0.26,0.06,0.32,0.26c0.19,0.67,0.47,2.47,0.37,7.06
					c-0.1,4.59-1.17,7.54-4.67,8.2c-3.06,0.58-4.47-1.39-4.37-6.02c0.11-4.78,0.59-6.82,0.78-7.69c0.05-0.24,0.2-0.38,0.29-0.41
					c0.33-0.1,0.99-0.24,1.68-0.37c0.57-0.11,1.15-0.2,1.46-0.22c0.15-0.01,0.25,0.1,0.23,0.34c-0.06,0.81-0.45,4.54-0.51,6.94
					c-0.05,2.04,0.16,2.72,0.66,2.62c0.47-0.09,0.68-0.75,0.72-2.79c0.06-2.72-0.08-6.13-0.12-6.88c-0.01-0.24,0.04-0.42,0.22-0.48
					C74.87,69.27,75.39,69.15,75.92,69.05z"/>
			</g>
		</g>
		<g>
			<g>
				<path class="st1" d="M80.06,68.4c0.56-0.22,2.52-0.67,3.19-0.79c2.75-0.52,4.74,0.05,4.67,3.02c-0.04,1.68-0.59,2.86-1.41,4.06
					c-0.08,0.11-0.12,0.23-0.12,0.33c0,0.1,0.03,0.17,0.1,0.23c1.34,1.28,1.62,5.34,1.62,5.59c-0.01,0.29-0.14,0.46-0.36,0.52
					c-0.35,0.09-1.02,0.23-1.68,0.36c-0.54,0.1-1.09,0.19-1.46,0.24c-0.34,0.05-0.45-0.05-0.48-0.31c-0.17-2.7-0.35-4.16-0.86-4.06
					c-0.29,0.06-0.47,0.58-0.48,1.32c-0.03,1.18,0.22,2.76,0.21,3.01c0,0.21-0.11,0.32-0.29,0.38c-0.43,0.12-1.03,0.25-1.67,0.37
					c-0.5,0.09-1.02,0.17-1.49,0.22c-0.21,0.02-0.4,0-0.42-0.38c-0.09-1.63-0.18-3.66-0.13-5.97c0.05-2.34,0.24-4.96,0.69-7.67
					C79.73,68.6,79.85,68.48,80.06,68.4z M83,74.84c0.31-0.06,0.93-1.71,0.96-3.1c0.02-0.72-0.2-0.95-0.48-0.9
					c-0.12,0.02-0.25,0.1-0.36,0.26c-0.23,0.33-0.39,0.98-0.42,2.28C82.69,74.62,82.75,74.89,83,74.84z"/>
			</g>
		</g>
		<g>
			<g>
				<path class="st1" d="M88.89,81.14c-0.32,0.04-0.5,0-0.5-0.45c-0.01-0.79-0.01-1.67,0.01-2.58c0.08-3.39,0.39-7.58,0.98-11.05
					c0.05-0.26,0.2-0.53,0.41-0.59c0.59-0.17,1.86-0.45,3.17-0.69c1.34-0.25,2.71-0.47,3.46-0.54c0.22-0.02,0.28,0.08,0.27,0.23
					c-0.01,0.25-0.51,2.47-0.89,3.6c-0.06,0.16-0.15,0.24-0.26,0.26c-0.13,0.03-0.26-0.01-0.53-0.09c-0.42-0.13-0.98-0.21-1.63-0.09
					c-0.4,0.08-0.68,0.24-0.88,0.53c-0.17,0.24-0.25,0.52-0.25,0.86c-0.01,0.36,0.12,0.53,0.37,0.48c0.5-0.09,1.14-0.5,1.85-0.63
					c0.54-0.1,0.91-0.08,0.9,0.25c-0.01,0.46-0.44,2.57-0.68,3.46c-0.06,0.24-0.12,0.33-0.24,0.35c-0.19,0.04-0.8-0.13-1.39-0.02
					c-0.71,0.13-0.94,0.69-0.95,1.15c-0.01,0.65,0.26,0.88,0.91,0.76c1.22-0.23,1.97-1.06,2.39-1.5c0.14-0.14,0.18-0.2,0.27-0.22
					c0.07-0.01,0.13,0.03,0.16,0.14c0.22,0.77,0.51,3.47,0.49,4.42c-0.01,0.32-0.17,0.58-0.48,0.66c-1,0.25-2.21,0.51-3.38,0.73
					C91.11,80.81,89.8,81.02,88.89,81.14z"/>
			</g>
		</g>
	</g>
</g>
</svg>
