<?xml version="1.0" encoding="utf-8"?>
<!-- Generator: Adobe Illustrator 30.2.1, SVG Export Plug-In . SVG Version: 9.03 Build 0)  -->
<svg version="1.0" id="Layer_1" xmlns="http://www.w3.org/2000/svg" xmlns:xlink="http://www.w3.org/1999/xlink" x="0px" y="0px"
	 viewBox="0 0 136.49 136.49" style="enable-background:new 0 0 136.49 136.49;" xml:space="preserve">
<style type="text/css">
	.st0{fill:#FFFFFF;}
	.st1{fill:#FD4301;}
	.st2{fill:#EFD92E;}
</style>
<g>
	<path class="st0" d="M114.19,102.6l-0.07-1.04c-0.1-1.44-0.2-2.88-0.31-4.32c-0.26-3.55-0.52-7.22-0.74-10.83
		c-0.35-5.55-0.66-11.2-0.97-16.67l-0.18-3.27c-0.08-1.35-0.14-2.7-0.21-4.05c-0.1-2.02-0.2-4.11-0.34-6.18
		c-0.5-7.61-0.97-14.37-1.44-20.67c-0.1-1.34-0.29-2.63-0.47-3.89c-0.08-0.55-0.16-1.1-0.23-1.66c-0.14-1.06-0.76-2-1.69-2.53
		c-0.62-0.36-1.33-0.5-2.03-0.43c-0.27-0.19-0.58-0.35-0.91-0.46l-0.12-0.04c-0.17-0.06-0.27-0.09-0.35-0.11L102.28,26
		c-3.16-0.81-6.32-1.62-9.48-2.42c-0.27-0.07-0.53-0.11-0.79-0.12c-0.31-0.18-0.64-0.32-1-0.4l-1.63-0.36
		c-2.42-0.54-4.84-1.07-7.26-1.6c-0.79-0.17-1.63-0.1-2.5,0.23c-4.96,1.85-9.93,3.71-14.88,5.57c-0.09-0.6-0.18-1.19-0.25-1.78
		c-0.48-3.71-2.53-6.58-5.95-8.3l-0.49-0.25c-0.56-0.28-1.13-0.58-1.75-0.85c-3.25-1.46-6.61-2.45-9.85-3.4
		c-0.47-0.14-0.94-0.28-1.41-0.42c-2.96-0.88-5.93-1.76-8.9-2.64L30.2,7.5c-1.89-0.56-3.8-0.18-5.36,1.07
		c-2.01,1.61-3.05,3.94-2.92,6.57c0.13,2.66,1.64,4.59,4.24,5.44l1.6,0.52c1.34,0.43,2.73,0.88,4.07,1.34
		c5.45,1.87,11.27,3.86,17.11,5.9c0.65,0.23,1.35,0.61,1.94,0.96c0.19,0.92,0.37,1.83,0.55,2.75c0.04,0.21,0.08,0.43,0.13,0.64
		c-1.11,0.45-2.21,0.91-3.32,1.36l-1.53,0.63c-0.52,0.21-1.04,0.43-1.6,0.66l-0.79,0.33c-0.57,0.23-1.04,0.61-1.39,1.08
		c-0.25,0.11-0.5,0.24-0.72,0.41c-0.86,0.64-1.38,1.65-1.39,2.72l0,0.26c0,0.21,0,0.38,0,0.55c0.01,0.68,0.03,1.36,0.05,2.04
		c0.05,1.54,0.09,3,0.07,4.46c-0.02,1.27,0.16,2.43,0.52,3.51c-0.23,0.45-0.36,0.96-0.37,1.49l0,0.18c0,0.17,0,0.27,0,0.37
		c0.02,0.55,0.03,1.1,0.05,1.64c0.03,1.24,0.07,2.53,0.14,3.81c0.49,8.5,0.96,16.4,1.43,24.14c0.25,4.03,0.51,8.05,0.76,12.08
		c0.14,2.25,0.29,4.49,0.43,6.74l0.11,1.71c0.26,4.18,0.54,8.5,0.78,12.75c0.1,1.74,1.03,3.11,2.63,3.86
		c1.22,0.57,2.44,1.16,3.65,1.74c2.09,1,4.25,2.04,6.42,3.01c2.41,1.08,4.86,2.09,7.24,3.07c0.96,0.4,1.93,0.8,2.89,1.2
		c0.38,0.16,0.71,0.24,0.91,0.29l0.05,0.01c0.35,0.1,0.71,0.14,1.07,0.13c0.01,0,0.02,0,0.03,0c0.48,0.22,1.02,0.34,1.58,0.32
		c0.11,0,0.22-0.01,0.33-0.03l0.12-0.02c0.14-0.02,0.23-0.03,0.32-0.05c3.37-0.61,38.19-16.21,40.14-17.2
		c1.69-0.86,2.57-2.45,2.4-4.37C114.42,105.93,114.3,104.24,114.19,102.6z M105.88,107.08
		C105.88,107.08,105.88,107.08,105.88,107.08l-0.06,0.02c0-0.01,0-0.01,0-0.02c0.02-0.01,0.04-0.01,0.05-0.02
		C105.88,107.06,105.88,107.07,105.88,107.08z M74.86,104.09l0.01,0.03c-0.05-0.03-0.09-0.07-0.13-0.11
		C74.78,104.03,74.82,104.06,74.86,104.09z M105.86,107.33c0-0.04-0.01-0.08-0.02-0.12l0.04,0
		C105.88,107.25,105.87,107.29,105.86,107.33C105.87,107.33,105.86,107.33,105.86,107.33z"/>
	<g>
		<g id="JcmSrn.tif">
			<g>
				<path class="st1" d="M105.82,30.47c0.23,1.81,0.55,3.58,0.68,5.36c0.51,6.88,0.99,13.76,1.44,20.64c0.22,3.4,0.35,6.8,0.55,10.2
					c0.38,6.65,0.74,13.31,1.16,19.96c0.32,5.06,0.7,10.11,1.05,15.17c0.14,2.02,0.28,4.05,0.45,6.07c0.04,0.5-0.09,0.8-0.54,1.03
					c-2.72,1.39-36.65,16.43-39.19,16.89c-0.07,0.01-0.14,0.02-0.3,0.04c-0.09-0.57-0.22-1.13-0.28-1.69c-0.26-2.5-0.55-5-0.74-7.51
					c-0.52-6.82-1.03-13.65-1.49-20.48c-0.44-6.5-0.82-13.01-1.2-19.52c-0.4-6.76-0.78-13.52-1.17-20.28
					c-0.18-3.16-0.35-6.33-0.54-9.49c-0.03-0.43,0.09-0.64,0.5-0.8C79.1,41,91.99,35.93,104.88,30.87
					C105.15,30.76,105.41,30.64,105.82,30.47z"/>
				<path class="st1" d="M64.3,47.43c1.56,26.02,2.74,52.07,5.21,78.08c-0.18-0.05-0.38-0.09-0.57-0.17
					c-3.35-1.4-6.73-2.75-10.05-4.23c-3.37-1.51-6.67-3.16-10.01-4.73c-0.44-0.21-0.64-0.45-0.67-0.96
					c-0.28-4.83-0.59-9.65-0.89-14.48c-0.4-6.27-0.81-12.54-1.19-18.81c-0.49-8.04-0.97-16.09-1.43-24.13
					c-0.1-1.79-0.13-3.58-0.19-5.38c0-0.08,0-0.16,0-0.39c0.46,0.71,0.82,1.31,1.22,1.87c1.08,1.52,2.17,3.03,3.29,4.52
					c0.32,0.43,0.74,0.8,1.15,1.15c0.69,0.58,1.1,0.61,1.79,0.05c0.85-0.68,1.68-1.38,2.44-2.16c3.14-3.24,6.24-6.51,9.35-9.78
					c0.16-0.17,0.26-0.39,0.39-0.59C64.19,47.34,64.25,47.39,64.3,47.43z"/>
				<path class="st1" d="M62.04,31.64c1.03-0.41,1.99-0.82,2.97-1.19c5.26-1.98,10.53-3.95,15.8-5.92c0.18-0.07,0.4-0.13,0.58-0.09
					c2.96,0.64,5.92,1.3,8.88,1.96c0,0.05,0,0.1,0.01,0.15c-0.62,0.23-1.23,0.46-1.85,0.69c-8.43,3.12-16.86,6.24-25.29,9.35
					c-0.49,0.18-0.61,0.42-0.44,0.93c0.37-0.13,0.73-0.25,1.08-0.38c9.16-3.39,18.32-6.78,27.48-10.16c0.22-0.08,0.5-0.14,0.72-0.08
					c3.77,0.95,7.54,1.92,11.3,2.89c0.05,0.01,0.1,0.03,0.26,0.09c-0.85,0.34-1.61,0.65-2.37,0.95c-11.9,4.67-23.8,9.35-35.71,14.01
					c-0.23,0.09-0.54,0.14-0.77,0.06c-3.58-1.16-7.15-2.34-10.72-3.51c-0.19-0.06-0.37-0.13-0.65-0.22
					c1.15-0.46,2.21-0.89,3.26-1.31c-0.13-0.56-0.4-0.64-0.9-0.42c-1.04,0.46-2.11,0.86-3.18,1.26c-0.17,0.07-0.4,0.11-0.56,0.06
					c-2.06-0.61-4.12-1.24-6.31-1.91c0.87-0.36,1.63-0.68,2.39-0.99c2.31-0.95,4.61-1.91,6.93-2.84c0.36-0.15,0.51-0.3,0.43-0.71
					c-0.41-1.98-0.78-3.98-1.19-5.96c-0.19-0.91-0.81-1.55-1.57-1.99c-0.81-0.47-1.65-0.92-2.53-1.23
					c-5.7-1.99-11.42-3.95-17.13-5.91c-1.9-0.65-3.81-1.26-5.72-1.88c-1.22-0.4-1.82-1.09-1.88-2.36c-0.07-1.5,0.45-2.77,1.64-3.73
					c0.66-0.53,1.41-0.71,2.25-0.46c4.94,1.47,9.88,2.93,14.82,4.4c3.66,1.09,7.34,2.09,10.84,3.66c0.71,0.32,1.4,0.68,2.09,1.03
					c2.35,1.19,3.76,3.03,4.1,5.69c0.25,1.9,0.59,3.79,0.89,5.69C61.98,31.35,62.01,31.46,62.04,31.64z M51.82,24.4
					c0.85-1.25,1.71-2.6,2.27-4.13c0.13-0.36,0.08-0.55-0.31-0.69c-1.48-0.53-2.93-1.15-4.44-1.61c-5.55-1.69-11.13-3.33-16.69-4.98
					c-0.65-0.19-1.3-0.38-2.02-0.59c0.26,1.75-0.27,3.15-1.48,4.3C36.72,19.27,44.23,21.82,51.82,24.4z M56.09,31.9
					c0.11,0.64,0.23,1.2,0.31,1.77c0.18,1.33,0.32,2.66,0.5,3.98c0.21,1.52,1.24,2.25,2.98,2.11c1.27-0.1,1.63-0.62,1.6-2.31
					c0-0.05,0-0.11,0-0.16c-0.14-1.4-0.27-2.81-0.42-4.21c-0.09-0.85-0.22-1.7-0.34-2.64C59.33,31.52,57.83,31.96,56.09,31.9z
					 M26.46,14.53c0.03,1.39,0.76,1.96,1.67,1.47c0.99-0.54,1.69-2.13,1.41-3.23c-0.25-0.99-1.03-1.28-1.84-0.65
					C26.86,12.77,26.49,13.67,26.46,14.53z M54.96,27.09c0.81-0.66,1.65-1.23,2.35-1.94c0.57-0.58,0.97-1.33,1.41-2.03
					c0.08-0.12,0.06-0.4-0.03-0.53c-0.23-0.31-0.52-0.58-0.85-0.93c-0.78,1.97-2.16,3.25-3.53,4.56
					C54.51,26.48,54.68,26.71,54.96,27.09z M52.86,25.1c0.51,0.41,0.54,0.44,1-0.04c0.74-0.76,1.47-1.54,2.15-2.36
					c0.3-0.37,0.48-0.84,0.67-1.29c0.05-0.12-0.02-0.38-0.12-0.45c-0.39-0.25-0.81-0.45-1.13-0.63
					C54.55,21.96,53.71,23.53,52.86,25.1z M55.52,28.78c1.29-0.41,2.53-0.91,3.59-1.75c1-0.8,1.12-1.69,0.38-2.8
					c-0.92,1.55-2.23,2.7-3.75,3.6C55.31,28.08,55.21,28.33,55.52,28.78z M55.75,29.91c0.01,0.82,0.04,0.85,0.78,0.86
					c1.44,0.02,2.69-0.48,3.74-1.47c0.11-0.1,0.23-0.26,0.22-0.39c-0.03-0.44-0.12-0.87-0.2-1.41
					C58.91,28.74,57.35,29.39,55.75,29.91z"/>
				<path class="st1" d="M52.07,42.28c3.86,1.26,7.63,2.5,11.42,3.74c-0.94,1.19-10.6,11.48-11.66,12.06
					C51.91,52.81,51.99,47.59,52.07,42.28z"/>
				<path class="st1" d="M44.24,39.91c0.99,0.29,1.89,0.56,2.78,0.83c1.18,0.36,2.36,0.7,3.53,1.08c0.91,0.3,0.79,0.04,0.79,1.1
					c-0.01,2.06-0.06,4.13-0.09,6.19c-0.05,3.02-0.09,6.05-0.14,9.07c0,0.16-0.02,0.31-0.04,0.63c-0.41-0.45-0.78-0.78-1.05-1.16
					c-1.51-2.15-2.95-4.34-4.5-6.46c-0.88-1.2-1.18-2.48-1.16-3.94c0.03-2.21-0.08-4.42-0.12-6.62
					C44.23,40.42,44.23,40.22,44.24,39.91z"/>
			</g>
		</g>
		<g>
			<g>
				<g>
					<g>
						<path class="st0" d="M72.01,105.28c-0.34-1.76,0.57-3.32,2.36-4.02c1.79-0.7,3.13-0.01,3.47,1.74
							c0.34,1.75-0.57,3.32-2.36,4.02C73.69,107.73,72.35,107.03,72.01,105.28z M75.89,103.77c-0.14-0.72-0.66-0.88-1.16-0.69
							c-0.51,0.2-0.89,0.71-0.75,1.43c0.14,0.71,0.66,0.88,1.16,0.69C75.63,105.01,76.02,104.48,75.89,103.77z"/>
					</g>
					<g>
						<path class="st0" d="M82.22,104.2l-0.83-1.02l-1.02,0.4l0.24,1.25l-1.98,0.77l-1.04-5.4l3.05-1.19
							c1.43-0.56,2.39-0.27,2.68,1.26c0.14,0.7-0.04,1.31-0.36,1.78l1.19,1.4L82.22,104.2z M80.07,102.01l0.93-0.36
							c0.3-0.12,0.4-0.34,0.35-0.59c-0.05-0.25-0.21-0.37-0.51-0.25l-0.93,0.36L80.07,102.01z"/>
					</g>
					<g>
						<path class="st0" d="M88.2,101.24L86.26,102l-0.06,0.65l-2.04,0.8l0.75-6.1l2.77-1.08l2.84,4.7l-2.04,0.8L88.2,101.24z
							 M87.47,99.86l-0.62-1.15l-0.33,0.13l-0.12,1.44L87.47,99.86z"/>
					</g>
					<g>
						<path class="st0" d="M89.65,95.5l2.26-0.88l1.71,1.96l0.17-0.07l-0.47-2.44l1.92-0.75l1.04,5.4l-2.21,0.86l-1.75-1.94
							l-0.18,0.07l0.47,2.44l-1.92,0.75L89.65,95.5z"/>
					</g>
					<g>
						<path class="st0" d="M102.21,96.41l-0.99,0.38l-0.15-0.61l-0.04,0.01c-0.27,0.6-0.82,1.18-1.67,1.51
							c-1.56,0.61-2.99-0.05-3.33-1.8c-0.34-1.76,0.57-3.32,2.39-4.03c1.26-0.49,2.69-0.34,3.13,1.12l-1.96,0.76
							c-0.07-0.11-0.36-0.25-0.77-0.09c-0.62,0.24-0.96,0.8-0.83,1.46c0.13,0.67,0.64,0.89,1.17,0.68c0.09-0.04,0.65-0.23,0.73-0.79
							l-0.87,0.34l-0.19-0.96l2.77-1.08L102.21,96.41z"/>
					</g>
					<g>
						<path class="st0" d="M101.56,90.85L106.3,89l0.32,1.68l-2.77,1.08l0.07,0.36l2.66-1.04l0.26,1.33l-2.66,1.04l0.07,0.35
							l2.77-1.08l0.32,1.68l-4.75,1.85L101.56,90.85z"/>
					</g>
				</g>
				<g>
					<g>
						<path class="st0" d="M80.78,112.95l-1.14,0.44l-0.17-0.7l-0.04,0.02c-0.31,0.7-0.95,1.36-1.93,1.74
							c-1.8,0.7-3.45-0.06-3.84-2.08c-0.39-2.02,0.66-3.83,2.76-4.65c1.46-0.57,3.1-0.39,3.61,1.29l-2.26,0.88
							c-0.08-0.12-0.41-0.29-0.89-0.1c-0.71,0.28-1.11,0.92-0.96,1.69c0.15,0.77,0.74,1.03,1.35,0.79c0.1-0.04,0.75-0.26,0.84-0.91
							l-1.01,0.39l-0.22-1.11l3.2-1.25L80.78,112.95z"/>
					</g>
					<g>
						<path class="st0" d="M80.52,109.7c-0.39-2.02,0.65-3.83,2.73-4.64c2.07-0.81,3.62-0.01,4.01,2.01
							c0.39,2.02-0.65,3.83-2.72,4.64C82.46,112.52,80.91,111.72,80.52,109.7z M85,107.96c-0.16-0.83-0.76-1.02-1.34-0.79
							c-0.58,0.23-1.03,0.82-0.87,1.65c0.16,0.82,0.76,1.02,1.34,0.79C84.71,109.39,85.16,108.78,85,107.96z"/>
					</g>
					<g>
						<path class="st0" d="M87.56,106.96c-0.39-2.02,0.65-3.83,2.73-4.64c2.07-0.81,3.62-0.01,4.01,2.01
							c0.39,2.02-0.65,3.83-2.72,4.64C89.5,109.78,87.95,108.98,87.56,106.96z M92.03,105.21c-0.16-0.83-0.76-1.02-1.34-0.79
							c-0.58,0.23-1.03,0.82-0.87,1.65c0.16,0.82,0.76,1.02,1.34,0.79C91.74,106.64,92.19,106.04,92.03,105.21z"/>
					</g>
					<g>
						<path class="st0" d="M100.96,101.73c0.35,1.8-0.21,3.43-2.66,4.39l-3.09,1.21L94,101.1l3.09-1.21
							C99.54,98.93,100.61,99.92,100.96,101.73z M98.67,102.63c-0.17-0.87-0.68-0.9-1.17-0.71l-0.81,0.32l0.42,2.16l0.81-0.32
							C98.41,103.89,98.83,103.48,98.67,102.63z"/>
					</g>
					<g>
						<path class="st0" d="M101.34,102.58l2.05-0.8c0.06,0.31,0.35,0.4,1.1,0.11c0.63-0.23,0.83-0.48,0.8-0.63
							c-0.01-0.04,0-0.27-0.5-0.14l-0.79,0.17c-1.14,0.25-2.62,0.8-2.96-0.95c-0.25-1.27,0.54-2.43,2.54-3.21
							c1.78-0.69,3.1-0.73,3.41,1.23l-2.03,0.79c-0.12-0.29-0.42-0.37-1.06-0.12c-0.54,0.21-0.67,0.43-0.64,0.58
							c0.01,0.04,0.03,0.25,0.38,0.16l0.63-0.13c1.23-0.25,2.95-1.01,3.31,0.84c0.28,1.44-0.61,2.49-2.72,3.3
							C102.69,104.62,101.6,104.33,101.34,102.58z"/>
					</g>
				</g>
			</g>
			<g>
				<g>
					<path class="st0" d="M81.85,116.32l0.29,0.17c-0.09,0.21-0.19,0.4-0.31,0.59l-0.38-0.19c-0.09,0.07-0.2,0.14-0.31,0.19
						c-0.65,0.26-1.14,0-1.27-0.63c-0.12-0.64,0.21-1.21,0.86-1.46c0.65-0.25,1.14,0,1.26,0.6
						C82.03,115.85,81.97,116.1,81.85,116.32z M81,116.41c0.18-0.07,0.32-0.26,0.27-0.52c-0.05-0.26-0.24-0.32-0.42-0.25
						c-0.18,0.07-0.32,0.26-0.27,0.52C80.62,116.42,80.81,116.48,81,116.41z"/>
				</g>
				<g>
					<path class="st0" d="M82.1,115.67l-0.21-1.08l0.72-0.28l0.21,1.07c0.04,0.2,0.13,0.3,0.33,0.22c0.2-0.08,0.25-0.23,0.22-0.43
						l-0.21-1.07l0.72-0.28l0.21,1.08c0.13,0.67-0.13,1.08-0.81,1.34C82.61,116.5,82.23,116.33,82.1,115.67z"/>
				</g>
				<g>
					<path class="st0" d="M85.65,115.01l-0.71,0.28l-0.02,0.24l-0.74,0.29l0.27-2.22l1.01-0.39l1.03,1.71l-0.74,0.29L85.65,115.01z
						 M85.38,114.51l-0.22-0.42l-0.12,0.05l-0.04,0.52L85.38,114.51z"/>
				</g>
				<g>
					<path class="st0" d="M86.18,112.92l0.72-0.28l0.26,1.33l0.93-0.36l0.12,0.64l-1.65,0.64L86.18,112.92z"/>
				</g>
				<g>
					<path class="st0" d="M87.97,112.22l0.72-0.28l0.38,1.97l-0.72,0.28L87.97,112.22z"/>
				</g>
				<g>
					<path class="st0" d="M90.94,111.75L90.3,112l0.26,1.33l-0.72,0.28l-0.26-1.33l-0.64,0.25l-0.12-0.64l2.01-0.78L90.94,111.75z"
						/>
				</g>
				<g>
					<path class="st0" d="M92.57,111.9l0.12,0.6l-0.72,0.28l-0.12-0.6l-1.01-1.07l0.75-0.29l0.45,0.52l0.05-0.02l0.21-0.78
						l0.75-0.29L92.57,111.9z"/>
				</g>
				<g>
					<path class="st0" d="M96.07,111.17l-0.36,0.14l-0.05-0.22l-0.01,0.01c-0.1,0.22-0.3,0.43-0.61,0.55
						c-0.57,0.22-1.09-0.02-1.21-0.66c-0.12-0.64,0.21-1.21,0.87-1.47c0.46-0.18,0.98-0.12,1.14,0.41l-0.71,0.28
						c-0.02-0.04-0.13-0.09-0.28-0.03c-0.23,0.09-0.35,0.29-0.3,0.53c0.05,0.24,0.23,0.32,0.43,0.25c0.03-0.01,0.24-0.08,0.26-0.29
						l-0.32,0.12l-0.07-0.35l1.01-0.39L96.07,111.17z"/>
				</g>
				<g>
					<path class="st0" d="M95.99,110.15c-0.12-0.64,0.21-1.21,0.86-1.46c0.65-0.25,1.14,0,1.26,0.63c0.12,0.64-0.21,1.21-0.86,1.46
						C96.61,111.04,96.12,110.78,95.99,110.15z M97.41,109.6c-0.05-0.26-0.24-0.32-0.42-0.25c-0.18,0.07-0.32,0.26-0.27,0.52
						c0.05,0.26,0.24,0.32,0.42,0.25C97.32,110.05,97.46,109.86,97.41,109.6z"/>
				</g>
				<g>
					<path class="st0" d="M98.22,109.28c-0.12-0.64,0.21-1.21,0.86-1.46c0.65-0.25,1.14,0,1.26,0.63c0.12,0.64-0.21,1.21-0.86,1.46
						C98.83,110.17,98.34,109.92,98.22,109.28z M99.63,108.73c-0.05-0.26-0.24-0.32-0.42-0.25c-0.18,0.07-0.32,0.26-0.27,0.52
						c0.05,0.26,0.24,0.32,0.42,0.25C99.54,109.18,99.68,108.99,99.63,108.73z"/>
				</g>
				<g>
					<path class="st0" d="M102.45,107.63c0.11,0.57-0.07,1.08-0.84,1.38l-0.98,0.38l-0.38-1.97l0.98-0.38
						C102,106.75,102.34,107.06,102.45,107.63z M101.73,107.91c-0.05-0.27-0.22-0.28-0.37-0.22l-0.26,0.1l0.13,0.68l0.26-0.1
						C101.64,108.31,101.78,108.18,101.73,107.91z"/>
				</g>
				<g>
					<path class="st0" d="M102.57,107.9l0.65-0.25c0.02,0.1,0.11,0.13,0.35,0.04c0.2-0.07,0.26-0.15,0.25-0.2
						c0-0.01,0-0.09-0.16-0.04l-0.25,0.06c-0.36,0.08-0.83,0.25-0.93-0.3c-0.08-0.4,0.17-0.77,0.8-1.01
						c0.56-0.22,0.98-0.23,1.08,0.39l-0.64,0.25c-0.04-0.09-0.13-0.12-0.33-0.04c-0.17,0.07-0.21,0.14-0.2,0.18
						c0,0.01,0.01,0.08,0.12,0.05l0.2-0.04c0.39-0.08,0.93-0.32,1.04,0.26c0.09,0.45-0.19,0.79-0.86,1.04
						C103,108.54,102.65,108.45,102.57,107.9z"/>
				</g>
			</g>
		</g>
		<path class="st2" d="M69.3,56.17c0.09,1.63,0.19,3.26,0.28,4.88c0.29,5.05,0.59,10.26,0.89,15.39l0.13,2.25
			c0.3,5.13,0.97,14.1,1.32,19.33l34.55-13.06c-0.18-3.06-0.68-11.83-0.85-14.83c-0.06-1.1-0.12-2.19-0.19-3.29
			c-0.08-1.37-0.15-2.75-0.21-4.09c-0.1-2-0.2-4.06-0.33-6.08c-0.5-7.58-0.97-14.32-1.44-20.62c-0.03-0.43-0.08-0.85-0.13-1.29
			c-11.3,4.44-22.96,9.02-34.47,13.53c0.09,1.6,0.18,3.21,0.27,4.77C69.18,54.11,69.24,55.14,69.3,56.17z"/>
		<g>
			<g>
				<g>
					<g>
						<path class="st1" d="M101.94,59.76c1.36,8.63-3.84,17.88-11.63,20.66S75.1,78.46,73.74,69.83
							c-1.36-8.63,3.84-17.88,11.63-20.66S100.57,51.12,101.94,59.76z"/>
					</g>
				</g>
			</g>
			<g>
				<g>
					<g>
						<path class="st2" d="M90.91,63.6c0.93-0.33,1.37-2.6,0.99-5.07c-0.39-2.46-1.46-4.19-2.4-3.86c-0.93,0.33-1.37,2.6-0.99,5.07
							C88.9,62.21,89.97,63.93,90.91,63.6z"/>
					</g>
				</g>
				<g>
					<g>
						<path class="st2" d="M84.7,65.82c0.93-0.33,1.37-2.6,0.99-5.07c-0.39-2.46-1.46-4.19-2.4-3.86s-1.37,2.6-0.99,5.07
							C82.7,64.42,83.77,66.15,84.7,65.82z"/>
					</g>
				</g>
				<g>
					<g>
						<path class="st2" d="M97.75,64.03c-0.05-0.05-1.2-1.15-3.23-0.11c-0.27,0.14-0.42,0.49-0.34,0.78
							c0.08,0.29,0.37,0.42,0.64,0.28c0.27-0.14,0.51-0.22,0.73-0.28c-0.05,0.77-0.21,2.28-0.75,3.92c-1,3.07-2.76,5.14-5.24,6.16
							c-2.46,1.01-4.62,0.51-6.4-1.5c-1.33-1.5-1.97-3.32-2.01-3.45c0.21-0.1,0.46-0.19,0.74-0.25c0.28-0.06,0.5-0.37,0.49-0.68
							c-0.01-0.32-0.25-0.53-0.53-0.47c-2.12,0.44-2.82,2.2-2.85,2.28c-0.12,0.31-0.01,0.64,0.25,0.74c0.1,0.04,0.21,0.03,0.31,0
							c0.16-0.06,0.3-0.19,0.37-0.38c0.01-0.02,0.1-0.24,0.33-0.52c0.2,0.53,0.87,2.18,2.13,3.61c1.93,2.19,4.35,2.83,7.02,1.88
							c0.13-0.05,0.26-0.1,0.39-0.15c2.8-1.15,4.87-3.59,5.98-7.03c0.55-1.72,0.74-3.27,0.8-4.14c0.28,0.09,0.43,0.22,0.45,0.24
							c0.12,0.12,0.29,0.14,0.45,0.09c0.1-0.04,0.19-0.1,0.27-0.2C97.94,64.59,97.95,64.23,97.75,64.03z"/>
					</g>
				</g>
			</g>
		</g>
	</g>
</g>
</svg>
