<?xml version="1.0" encoding="utf-8"?>
<!-- Generator: Adobe Illustrator 30.2.1, SVG Export Plug-In . SVG Version: 9.03 Build 0)  -->
<svg version="1.0" id="Layer_1" xmlns="http://www.w3.org/2000/svg" xmlns:xlink="http://www.w3.org/1999/xlink" x="0px" y="0px"
	 viewBox="0 0 136.49 136.49" style="enable-background:new 0 0 136.49 136.49;" xml:space="preserve">
<style type="text/css">
	.st0{fill:#0C329E;}
	.st1{fill:#FD4301;}
</style>
<g>
	<g>
		<path class="st0" d="M68.25,115.34c-16.62,0-32.36-4.46-44.32-12.56C10.8,93.89,3.58,81.62,3.58,68.24
			c0-13.38,7.23-25.64,20.36-34.53c11.96-8.1,27.69-12.56,44.32-12.56c16.62,0,32.36,4.46,44.31,12.56l0,0
			c13.13,8.89,20.36,21.15,20.36,34.53c0,13.38-7.23,25.64-20.36,34.53C100.61,110.88,84.87,115.34,68.25,115.34z M68.25,28.21
			c-15.22,0-29.56,4.03-40.36,11.35C16.76,47.1,10.63,57.28,10.63,68.24c0,10.96,6.13,21.15,17.26,28.69
			c10.8,7.32,25.13,11.35,40.36,11.35c15.22,0,29.56-4.03,40.35-11.35c11.13-7.54,17.26-17.73,17.26-28.69
			c0-10.96-6.13-21.15-17.26-28.68l0,0C97.8,32.24,83.47,28.21,68.25,28.21z"/>
	</g>
	<g>
		<g>
			<path class="st1" d="M44.82,42.05c-15.5,0-25.83,10.48-25.83,26.27c0,15.64,10.33,26.12,25.83,26.12
				c15.5,0,25.83-10.48,25.83-26.12C70.65,52.53,60.32,42.05,44.82,42.05z M44.82,79.89c-5.97,0-9.97-4.66-9.97-11.57
				c0-6.91,4-11.57,9.97-11.57c5.97,0,9.97,4.66,9.97,11.57C54.79,75.23,50.79,79.89,44.82,79.89z"/>
		</g>
	</g>
	<g>
		<g>
			<g>
				<path class="st1" d="M110.15,62.64H90.09c-0.65,0-1.02,0.51-0.95,0.95l1.02,10.19c0.07,0.44,0.58,0.95,1.24,0.95h6.66v4.22
					c-0.8,0.87-2.62,1.38-5.31,1.38c-6.7,0-11.21-4.8-11.21-12.08c0-7.13,4.51-11.94,11.21-11.94c3.64,0,7.5,0.95,10.48,2.55
					c0.65,0.15,1.16-0.07,1.38-0.58l3.64-10.7c0.15-0.44-0.07-1.02-0.65-1.31c-4.22-2.62-9.9-4.22-15.28-4.22
					c-9.5,0-17.09,3.83-21.6,10.34c2.53,4.56,3.85,9.96,3.85,15.94c0,5.92-1.31,11.28-3.84,15.81c4.52,6.49,12.09,10.32,21.59,10.32
					c6.99,0,13.68-2.18,18.05-5.89c0.51-0.44,0.87-1.09,0.87-1.75V63.66C111.24,63.15,110.73,62.64,110.15,62.64z"/>
			</g>
		</g>
	</g>
</g>
</svg>
