<?xml version="1.0" encoding="utf-8"?>
<!-- Generator: Adobe Illustrator 30.2.1, SVG Export Plug-In . SVG Version: 9.03 Build 0)  -->
<svg version="1.0" id="Layer_1" xmlns="http://www.w3.org/2000/svg" xmlns:xlink="http://www.w3.org/1999/xlink" x="0px" y="0px"
	 viewBox="0 0 136.49 136.49" style="enable-background:new 0 0 136.49 136.49;" xml:space="preserve">
<style type="text/css">
	.st0{fill:#FD4301;}
	.st1{fill:#FFFFFF;}
</style>
<g>
	<polygon class="st0" points="132,76.47 132.01,76.47 131.99,76.41 132.03,76.4 116.28,6.09 8.8,29.71 8.81,29.77 8.78,29.78
		8.79,29.82 8.73,29.84 8.74,29.89 8.72,29.89 8.73,29.95 8.69,29.95 8.7,30 8.67,30 8.68,30.06 8.65,30.07 8.66,30.12 8.63,30.13
		8.64,30.17 8.6,30.18 8.61,30.24 8.59,30.25 8.6,30.3 8.57,30.31 8.58,30.36 8.54,30.37 8.55,30.41 8.5,30.42 8.51,30.47
		8.49,30.48 8.51,30.54 8.47,30.55 8.49,30.63 8.46,30.64 8.46,30.65 8.41,30.66 8.43,30.71 8.41,30.72 8.42,30.78 8.39,30.78
		8.41,30.83 8.37,30.84 8.38,30.89 8.35,30.89 8.36,30.95 8.32,30.96 8.34,31.05 8.31,31.05 8.31,31.07 8.31,31.07 8.32,31.14
		8.28,31.14 8.29,31.19 8.24,31.2 8.26,31.28 8.24,31.29 8.25,31.31 8.22,31.32 8.23,31.4 8.18,31.41 8.19,31.43 8.16,31.43
		8.17,31.49 8.13,31.5 8.14,31.54 8.11,31.54 8.13,31.6 8.09,31.61 8.1,31.66 8.05,31.67 8.06,31.72 8.02,31.73 8.04,31.81
		8.03,31.82 8.04,31.84 8,31.85 8.02,31.93 7.99,31.94 7.99,31.95 7.94,31.96 7.95,32.02 7.94,32.02 7.96,32.08 7.92,32.09
		7.93,32.14 7.89,32.15 7.91,32.2 7.88,32.2 7.89,32.25 7.85,32.26 7.86,32.32 7.84,32.32 7.85,32.38 7.81,32.38 7.82,32.43
		7.79,32.43 7.8,32.49 7.77,32.5 7.79,32.59 7.75,32.59 7.76,32.61 7.74,32.62 7.76,32.68 7.73,32.68 7.74,32.73 7.68,32.74
		7.7,32.82 7.67,32.83 7.67,32.84 7.64,32.85 7.65,32.91 7.62,32.92 7.63,32.97 7.6,32.97 7.61,33.02 7.55,33.03 7.56,33.08
		7.56,33.08 7.57,33.15 7.53,33.15 7.55,33.24 7.52,33.25 7.52,33.26 7.46,33.27 7.48,33.32 7.45,33.33 7.46,33.38 7.44,33.38
		7.46,33.44 7.43,33.45 7.44,33.49 7.38,33.5 7.4,33.56 7.36,33.56 7.37,33.62 7.36,33.62 7.38,33.68 7.34,33.69 7.35,33.74
		7.34,33.74 7.35,33.79 7.29,33.81 7.31,33.86 7.28,33.86 7.29,33.92 7.27,33.92 7.29,33.98 7.26,33.99 7.27,34.03 7.21,34.04
		7.22,34.09 7.19,34.1 7.2,34.15 7.19,34.16 7.21,34.24 7.15,34.25 7.16,34.27 7.13,34.28 7.14,34.33 7.1,34.34 7.11,34.38
		7.08,34.39 7.09,34.42 7.06,34.42 7.08,34.51 7.04,34.52 7.05,34.56 6.99,34.57 7,34.62 7,34.62 7.01,34.69 6.97,34.69 6.98,34.75
		6.96,34.75 6.97,34.8 6.93,34.81 6.94,34.86 6.89,34.87 6.9,34.92 6.89,34.92 6.9,34.98 6.87,34.99 6.88,35.03 6.83,35.04
		6.83,35.06 6.82,35.07 6.84,35.16 6.81,35.17 6.82,35.22 6.78,35.23 6.79,35.28 6.78,35.28 6.8,35.33 6.74,35.35 6.75,35.4
		6.72,35.4 6.73,35.46 6.72,35.46 6.73,35.52 6.7,35.53 6.71,35.57 6.65,35.58 6.66,35.63 6.64,35.64 6.65,35.69 6.63,35.7
		6.64,35.71 6.58,35.73 6.6,35.81 6.57,35.82 6.57,35.83 6.52,35.84 6.54,35.93 6.5,35.93 6.52,36.02 6.51,36.02 6.51,36.05
		6.49,36.06 6.5,36.1 6.43,36.11 6.45,36.16 6.42,36.17 6.43,36.22 6.41,36.23 6.43,36.29 6.4,36.29 6.41,36.34 6.37,36.35
		6.38,36.4 6.33,36.41 6.35,36.46 6.33,36.46 6.34,36.49 6.31,36.5 6.33,36.58 6.29,36.59 6.3,36.63 6.27,36.64 6.28,36.7
		6.25,36.71 6.26,36.76 6.24,36.76 6.26,36.82 6.23,36.83 6.24,36.87 6.18,36.89 6.19,36.94 6.16,36.94 6.18,37 6.14,37 6.15,37.05
		6.12,37.05 6.13,37.11 6.1,37.12 6.1,37.14 6.07,37.15 6.09,37.22 6.05,37.23 6.06,37.29 6.03,37.3 6.05,37.35 6.01,37.36
		6.03,37.44 5.99,37.45 6,37.46 5.95,37.47 5.96,37.53 5.94,37.53 5.96,37.59 5.93,37.6 5.94,37.65 5.9,37.66 5.91,37.7 5.86,37.71
		5.87,37.76 5.83,37.77 5.85,37.82 5.84,37.82 5.85,37.88 5.81,37.89 5.82,37.94 5.8,37.94 5.81,38 5.77,38.01 5.78,38.06
		5.76,38.07 5.77,38.12 5.76,38.12 5.77,38.19 5.73,38.19 5.74,38.24 5.69,38.25 5.7,38.3 5.69,38.3 5.7,38.36 5.67,38.37
		5.68,38.45 5.63,38.46 5.63,38.48 5.61,38.48 5.62,38.54 5.58,38.55 5.59,38.59 5.56,38.59 5.57,38.66 5.54,38.66 5.55,38.71
		5.5,38.72 5.51,38.77 5.47,38.78 5.49,38.86 5.48,38.87 5.48,38.89 5.46,38.9 5.47,38.95 5.43,38.96 5.44,39 5.38,39.01 5.4,39.1
		5.39,39.1 5.4,39.13 5.37,39.14 5.38,39.19 5.34,39.2 5.35,39.25 5.33,39.25 5.34,39.3 5.3,39.31 5.31,39.37 5.28,39.37 5.3,39.43
		5.26,39.43 5.27,39.48 5.24,39.48 5.25,39.54 5.21,39.55 5.23,39.64 5.2,39.64 5.2,39.66 5.19,39.67 5.21,39.76 5.18,39.77
		5.18,39.78 5.13,39.79 5.15,39.87 5.14,39.88 5.14,39.9 5.11,39.91 5.12,39.95 5.06,39.97 5.08,40.02 5.05,40.02 5.06,40.07
		5,40.08 5.01,40.13 5,40.13 5.02,40.2 4.98,40.2 4.99,40.26 4.96,40.26 4.97,40.31 4.91,40.32 4.93,40.4 4.9,40.41 4.9,40.43
		4.89,40.43 4.9,40.49 4.88,40.5 4.89,40.54 4.83,40.56 4.85,40.64 4.81,40.65 4.82,40.67 4.81,40.67 4.82,40.73 4.79,40.74
		4.8,40.79 4.77,40.8 4.78,40.84 4.74,40.85 4.75,40.91 4.73,40.91 4.74,40.97 4.72,40.97 4.74,41.06 4.71,41.07 4.71,41.08
		4.66,41.09 4.67,41.14 4.64,41.15 4.65,41.2 4.64,41.21 4.65,41.26 4.6,41.27 4.61,41.32 4.58,41.33 4.59,41.38 4.55,41.39
		4.56,41.43 4.53,41.44 4.55,41.5 4.51,41.51 4.52,41.56 4.49,41.57 4.5,41.61 4.46,41.62 20.21,111.93 31.37,109.47 35.51,130.4
		46.25,106.19 127.72,88.31 127.71,88.3 127.77,88.29 127.75,88.2 127.79,88.19 127.78,88.14 127.78,88.14 127.77,88.08
		127.81,88.07 127.79,88 127.85,87.98 127.84,87.96 127.87,87.96 127.86,87.91 127.87,87.9 127.86,87.84 127.89,87.84 127.88,87.78
		127.92,87.77 127.91,87.73 127.93,87.73 127.92,87.66 127.96,87.66 127.95,87.6 127.95,87.6 127.94,87.54 127.98,87.53
		127.97,87.48 127.99,87.48 127.98,87.43 128.04,87.42 128.03,87.37 128.04,87.37 128.03,87.31 128.09,87.3 128.07,87.22
		128.1,87.21 128.1,87.19 128.12,87.18 128.11,87.14 128.17,87.13 128.16,87.08 128.17,87.07 128.15,86.98 128.19,86.97
		128.18,86.96 128.23,86.95 128.22,86.9 128.26,86.89 128.25,86.84 128.25,86.84 128.24,86.78 128.28,86.77 128.27,86.72
		128.3,86.71 128.29,86.67 128.35,86.65 128.33,86.6 128.34,86.6 128.33,86.54 128.36,86.53 128.35,86.48 128.39,86.47
		128.38,86.43 128.41,86.42 128.39,86.33 128.42,86.32 128.42,86.3 128.45,86.29 128.43,86.21 128.44,86.21 128.44,86.19
		128.49,86.18 128.48,86.12 128.52,86.12 128.5,86.06 128.51,86.06 128.5,86 128.54,85.99 128.53,85.95 128.57,85.94 128.56,85.89
		128.6,85.88 128.58,85.79 128.59,85.79 128.59,85.77 128.64,85.76 128.63,85.68 128.66,85.67 128.66,85.66 128.71,85.65
		128.7,85.59 128.73,85.59 128.71,85.54 128.73,85.53 128.71,85.47 128.75,85.46 128.74,85.42 128.79,85.41 128.78,85.36
		128.82,85.35 128.81,85.3 128.83,85.29 128.82,85.24 128.84,85.24 128.83,85.18 128.85,85.17 128.84,85.13 128.9,85.11
		128.88,85.03 128.9,85.03 128.89,85 128.92,84.99 128.91,84.94 128.94,84.93 128.93,84.88 128.94,84.88 128.93,84.79 128.98,84.78
		128.98,84.76 128.98,84.76 128.97,84.7 129.01,84.69 129,84.64 129.02,84.63 129.01,84.59 129.07,84.58 129.06,84.52 129.09,84.52
		129.08,84.47 129.1,84.46 129.08,84.38 129.13,84.36 129.13,84.35 129.16,84.34 129.15,84.3 129.2,84.28 129.19,84.23 129.2,84.23
		129.19,84.17 129.22,84.16 129.21,84.11 129.24,84.1 129.23,84.06 129.29,84.05 129.28,83.99 129.28,83.99 129.27,83.93
		129.31,83.92 129.3,83.87 129.33,83.87 129.32,83.82 129.38,83.81 129.36,83.76 129.39,83.75 129.38,83.7 129.4,83.7 129.38,83.64
		129.41,83.63 129.4,83.59 129.46,83.57 129.45,83.52 129.46,83.52 129.44,83.46 129.48,83.45 129.46,83.37 129.47,83.36
		129.47,83.33 129.49,83.33 129.49,83.29 129.54,83.27 129.53,83.22 129.54,83.22 129.53,83.19 129.57,83.18 129.55,83.11
		129.61,83.09 129.59,83.01 129.62,83 129.62,82.98 129.65,82.98 129.64,82.93 129.68,82.93 129.66,82.86 129.69,82.86
		129.68,82.81 129.72,82.8 129.71,82.76 129.76,82.74 129.74,82.69 129.78,82.68 129.76,82.6 129.78,82.6 129.77,82.57 129.8,82.56
		129.79,82.55 129.85,82.54 129.83,82.46 129.85,82.45 129.83,82.39 129.86,82.39 129.85,82.33 129.88,82.33 129.87,82.27
		129.91,82.26 129.9,82.22 129.93,82.22 129.91,82.15 129.95,82.15 129.94,82.09 129.97,82.09 129.96,82.04 129.97,82.03
		129.96,81.98 130.01,81.97 130,81.92 130.03,81.91 130.03,81.89 130.04,81.89 130.02,81.8 130.06,81.79 130.05,81.74 130.1,81.73
		130.09,81.68 130.12,81.67 130.1,81.59 130.12,81.58 130.11,81.57 130.16,81.56 130.15,81.5 130.19,81.49 130.18,81.45
		130.23,81.44 130.22,81.39 130.23,81.39 130.22,81.32 130.25,81.32 130.24,81.27 130.27,81.26 130.26,81.21 130.31,81.2
		130.3,81.15 130.34,81.14 130.33,81.09 130.33,81.09 130.32,81.03 130.36,81.02 130.35,80.98 130.4,80.97 130.39,80.92
		130.42,80.91 130.41,80.86 130.43,80.85 130.41,80.79 130.44,80.79 130.43,80.73 130.47,80.72 130.46,80.68 130.49,80.67
		130.47,80.58 130.5,80.57 130.5,80.55 130.5,80.55 130.49,80.49 130.53,80.48 130.52,80.43 130.55,80.43 130.54,80.38 130.6,80.37
		130.58,80.32 130.59,80.32 130.58,80.25 130.62,80.25 130.6,80.17 130.65,80.16 130.65,80.14 130.68,80.13 130.67,80.09
		130.73,80.08 130.71,80.03 130.73,80.02 130.71,79.93 130.74,79.92 130.74,79.91 130.78,79.9 130.77,79.85 130.79,79.84
		130.78,79.78 130.8,79.78 130.79,79.73 130.83,79.72 130.82,79.67 130.85,79.66 130.84,79.62 130.9,79.6 130.89,79.55
		130.89,79.55 130.88,79.49 130.91,79.48 130.9,79.43 130.94,79.42 130.93,79.38 130.98,79.37 130.96,79.28 130.98,79.28
		130.97,79.25 131,79.24 130.98,79.16 131,79.16 130.99,79.14 131.04,79.13 131.03,79.07 131.07,79.07 131.06,79.01 131.06,79.01
		131.05,78.95 131.09,78.94 131.08,78.9 131.13,78.89 131.11,78.84 131.15,78.83 131.13,78.74 131.15,78.74 131.14,78.72
		131.2,78.71 131.18,78.63 131.21,78.62 131.21,78.6 131.24,78.59 131.23,78.55 131.28,78.54 131.27,78.49 131.28,78.48
		131.26,78.39 131.3,78.38 131.29,78.37 131.34,78.36 131.33,78.31 131.37,78.3 131.36,78.25 131.36,78.25 131.35,78.19
		131.39,78.18 131.38,78.13 131.41,78.12 131.4,78.08 131.46,78.06 131.44,77.98 131.45,77.98 131.44,77.95 131.47,77.94
		131.46,77.89 131.49,77.88 131.48,77.83 131.5,77.83 131.49,77.77 131.53,77.76 131.52,77.71 131.56,77.7 131.54,77.65
		131.56,77.65 131.55,77.6 131.6,77.59 131.59,77.53 131.62,77.53 131.61,77.47 131.64,77.47 131.63,77.42 131.65,77.41
		131.64,77.36 131.68,77.35 131.67,77.3 131.71,77.29 131.7,77.25 131.73,77.24 131.72,77.18 131.75,77.17 131.74,77.12
		131.77,77.11 131.76,77.06 131.8,77.05 131.78,76.98 131.83,76.96 131.83,76.94 131.84,76.94 131.82,76.88 131.86,76.87
		131.85,76.82 131.88,76.82 131.87,76.81 131.93,76.79 131.91,76.71 131.94,76.7 131.93,76.65 131.95,76.65 131.93,76.58
		131.96,76.58 131.95,76.54 132.01,76.52 	"/>
	<g>
		<g>
			<g>
				<polygon class="st1" points="111.98,10.47 9.84,32.9 25.13,101.07 36.58,98.56 39.65,113.84 46.29,96.43 127.49,78.6 				"/>
			</g>
		</g>
	</g>
	<g>
		<g>
			<g>
				<path class="st0" d="M33.13,45.5c0.67,2.4,0.9,4.85,0.64,7.3c-0.2,1.58-0.59,3.09-1.29,4.48c-0.45,0.99-1.05,1.84-1.78,2.63
					c-1.4,1.46-2.86,2-5.19,0.92c-1.71-0.77-3.18-1.96-4.33-3.46c-0.75-1.02-1.39-2.09-1.87-3.29c-0.92-2.14-1.62-4.4-1.9-6.72
					c-0.33-2.54-0.41-5.08,0.14-7.51c0.32-1.21,0.71-2.32,1.39-3.33c1.12-1.65,2.68-2.55,4.67-2.65c0.98-0.06,1.83,0.17,2.65,0.64
					c0.85,0.49,1.56,1.09,2.21,1.82c1.78,2.17,3.2,4.49,4.05,7.16C32.71,44.15,32.95,44.83,33.13,45.5z M22.44,48.15
					c0.34,2.08,1.35,3.86,2.63,5.47c0.27,0.31,0.5,0.57,0.81,0.81c0.44,0.32,0.9,0.33,1.45,0.12c0.47-0.17,0.83-0.48,1.01-0.92
					c0.22-0.51,0.37-0.99,0.45-1.5c0.37-2.08,0.29-4.16-0.14-6.25c-0.35-1.62-1.03-3.09-1.94-4.47c-0.42-0.7-0.94-1.23-1.64-1.67
					c-0.88-0.62-1.64-0.44-2.2,0.57c-0.12,0.2-0.24,0.45-0.31,0.73c-0.26,0.83-0.46,1.7-0.51,2.59
					C21.94,45.17,22.04,46.68,22.44,48.15z"/>
			</g>
		</g>
		<g>
			<g>
				<path class="st0" d="M41.18,46.02c-0.01,0.09-0.01,0.2,0.01,0.31c0.38,1.76,0.74,3.58,1.15,5.33c0.32,1.4,0.71,2.82,1.03,4.22
					c0.07,0.3,0.1,0.66,0.1,0.94c0,0.51-0.2,0.87-0.7,1.04c-0.88,0.26-1.84,0.54-2.74,0.66c-0.65,0.12-1.06-0.18-1.3-0.81
					c-0.14-0.22-0.21-0.52-0.26-0.76c-0.57-2.57-1.1-5.12-1.7-7.71c-0.58-2.62-1.19-5.24-1.77-7.89c-0.5-2.3-0.94-4.67-1.35-7.05
					c-0.12-0.54-0.14-1.08-0.14-1.59c0-0.48,0.21-0.82,0.64-0.92c2.46-0.68,4.93-1.43,7.5-1.34c1.83,0.06,3.4,0.69,4.52,2.11
					c0.75,0.79,1.15,1.78,1.39,2.83c0.6,2.59,0.39,5.14-1,7.48c-0.22,0.39-0.42,0.78-0.7,1.16c-0.24,0.31-0.21,0.59-0.07,0.93
					c0.46,0.77,0.88,1.47,1.28,2.2c0.97,1.62,2.04,3.28,3.01,4.9c0.4,0.62,0.7,1.2,1.02,1.84c0.13,0.31,0.2,0.63,0.25,0.94
					c0.09,0.49-0.13,0.91-0.59,1.02c-0.67,0.18-1.27,0.29-1.85,0.37c-0.58,0.08-1.07-0.07-1.37-0.53c-1.27-1.67-2.53-3.31-3.55-5.15
					c-0.81-1.4-1.64-2.89-2.42-4.3c-0.06-0.13-0.19-0.21-0.26-0.37C41.28,45.94,41.22,45.96,41.18,46.02z M39.94,40.77
					c0.13,0.06,0.29,0.13,0.42,0.1c1.06-0.19,2.01-0.66,2.51-1.55c0.96-1.5,0.25-3.47-1.57-3.7c-0.88-0.11-1.66-0.04-2.45,0.11
					C38.83,36,39.71,40.28,39.94,40.77z"/>
			</g>
		</g>
		<g>
			<g>
				<path class="st0" d="M62.39,48.87c-1.67,0.39-3.17,0.54-4.63,0.87c-0.12,0.45-0.07,0.67-0.19,1.12c0,0.88-0.06,1.58-0.08,2.46
					c-0.05,0.66-0.12,1.33-1,1.31c-0.84,0.19-1.84,0.65-2.72,0.63c-0.62,0.14-0.81-0.69-0.74-1.36c-0.05-1.1-0.03-1.98-0.01-2.87
					c-0.02-5.71,0-11.4-0.01-17.1c-0.01-1.99,0.18-3.99,0.15-5.97l-0.1-0.43c0.12-0.45,0.34-0.5,0.55-0.55l1.24-0.29
					c0.62-0.14,1.1-0.03,1.51-0.12c0.62-0.14,0.88-0.01,1.2,0.38c0.36,0.57,0.5,1.19,0.84,1.79c1.37,2.98,2.76,6.15,4.15,9.33
					c1.32,2.99,2.93,6.14,4.32,9.34c0.5,1.19,0.96,2.19,1.47,3.41c0.38,0.79,0.24,1.02-0.57,1.21c-0.67,0.16-2.08,0.71-2.72,0.63
					c-0.45-0.1-0.76-0.48-1.07-0.83c-0.05-0.22-0.37-0.6-0.41-0.79C63.2,50.44,62.79,49.66,62.39,48.87z M59.8,43.33
					c-0.24-1.05-1.29-3.62-1.73-4.63c-0.19,1.15-0.19,3.97-0.21,4.85C58.48,43.41,59.17,43.47,59.8,43.33z"/>
			</g>
		</g>
		<g>
			<g>
				<path class="st0" d="M74.88,33.61c-0.07-0.3-0.1-0.57-0.17-0.87c-0.61-2.87-1.19-5.75-1.8-8.65l-0.06-0.27
					c-0.11-0.85,0.09-1.21,0.92-1.32c0.82-0.13,1.72-0.54,2.54-0.56c0.92-0.07,1.12,0.42,1.39,1.33c0.29,1.01,0.6,1.99,0.78,3
					c0.61,2.87,1.14,5.76,1.75,8.66c0.55,2.86,1.15,5.7,1.77,8.51c0.24,1.14,0.59,2.28,0.87,3.41c0.38,1.39,0.2,1.72-1.25,1.97
					c-0.73,0.14-1.51,0.24-2.26,0.32c-0.33,0.05-0.59-0.09-0.79-0.36c-0.2-0.24-0.35-0.54-0.54-0.84l-2.9-5.27
					c-0.45-0.83-0.95-1.66-1.45-2.48c-0.28,0.12-0.17,0.38-0.13,0.54c0.51,2.69,1.08,5.38,1.58,8.05c0.06,0.24,0.12,0.54,0.15,0.79
					c0.04,0.42-0.12,0.71-0.53,0.92c-0.11,0.02-0.23,0.11-0.37,0.11c-1.03,0.21-2.1,0.4-3.16,0.36c-0.09-0.15-0.15-0.28-0.18-0.41
					c-1.49-5.31-3.06-10.63-4.12-16.07c-0.57-2.96-1.09-5.92-1.66-8.88c-0.05-0.33-0.07-0.67-0.06-0.98c0-0.48,2.41-0.99,3.24-0.98
					c0.43,0.01,0.77,0.28,0.99,0.59c0.22,0.32,0.43,0.61,0.59,0.94c1.23,2.24,2.44,4.52,3.68,6.79
					C74.03,32.53,74.26,33.16,74.88,33.61z"/>
			</g>
		</g>
		<g>
			<g>
				<path class="st0" d="M93.56,35l-1.97,0.46c-0.3,0.07-0.58,0.19-0.89,0.21c-0.73,0.14-1.11-0.03-1.28-0.73
					c-0.2-0.86-0.29-1.72-0.46-2.59c0.02-0.15,0.02-0.29,0.02-0.4c0.03-0.46,0.23-0.73,0.71-0.85c0.37-0.11,0.7-0.16,1.08-0.25
					c1.38-0.32,2.74-0.66,4.12-0.98c0.4-0.09,0.84-0.19,1.25-0.26c0.58-0.08,0.93,0.07,1.18,0.55c0.14,0.22,0.19,0.47,0.24,0.68
					c0.4,1.61,0.81,3.25,0.94,4.93c0.11,1.59,0.16,3.15-0.13,4.72c-0.12,0.57-0.26,1.2-0.48,1.73c-0.98,2.41-2.84,3.7-5.4,3.92
					c-1.1,0.06-2.21-0.23-3.18-0.83c-1.04-0.58-1.86-1.39-2.59-2.33c-0.83-1.14-1.5-2.41-2.04-3.68c-0.96-2.19-1.63-4.45-2.02-6.75
					c-0.34-1.97-0.41-3.97-0.15-5.91c0.26-1.94,0.93-3.71,2.16-5.27c1.01-1.29,2.35-2.02,3.99-2.29c1.01-0.18,1.97,0.03,2.89,0.58
					c0.62,0.37,1.11,0.85,1.59,1.36c1.11,1.22,1.88,2.72,2.49,4.25c0.19,0.44,0.25,0.94,0.34,1.46c0.07,0.81-0.15,1.17-0.91,1.46
					c-0.49,0.2-1,0.35-1.53,0.5c-0.16,0.04-0.38,0.09-0.6,0.11c-0.54,0.01-0.79-0.22-0.99-0.71c-0.18-0.53-0.33-1.06-0.56-1.57
					c-0.25-0.6-0.63-1.11-1.15-1.52c-0.8-0.61-1.82-0.52-2.4,0.42c-0.3,0.41-0.48,0.88-0.59,1.39c-0.23,1.08-0.29,2.2-0.18,3.28
					c0.32,2.99,1.15,5.82,2.58,8.44c0.25,0.45,0.6,0.88,0.95,1.29c0.32,0.41,0.77,0.62,1.28,0.75c0.63,0.14,1.11-0.11,1.45-0.62
					c0.14-0.15,0.19-0.3,0.26-0.46C94.05,38.01,94.05,36.53,93.56,35z"/>
			</g>
		</g>
		<g>
			<g>
				<path class="st0" d="M103.13,20.53c0.48,2.19,0.93,4.36,1.42,6.49c0.04,0.16,0.1,0.32,0.19,0.55c0.7-0.05,1.36-0.26,1.99-0.38
					c0.33-0.05,0.69-0.1,1.03-0.1c0.44-0.05,0.76,0.19,0.9,0.59c0.35,0.91,0.49,1.88,0.53,2.89c0.02,0.34-0.18,0.58-0.48,0.74
					c-0.34,0.13-0.68,0.27-0.97,0.37l-2.08,0.48c-0.02,0.17-0.05,0.29-0.01,0.43l1.28,5.53c0.61,0.06,1.2-0.11,1.81-0.16
					c1.08-0.14,2.19-0.25,3.3-0.34c0.56-0.02,0.96,0.23,1.09,0.77c0.18,0.78,0.29,1.61,0.35,2.36c0.04,0.42-0.29,0.61-0.65,0.75
					c-0.58,0.19-1.16,0.41-1.8,0.56c-1.94,0.48-3.89,0.99-5.89,1.45c-1.35,0.29-1.57,0.08-1.8-1.29c-0.97-5.4-1.79-8.94-2.84-13.98
					c-0.67-3.14-1.46-6.28-2.18-9.41c-0.08-0.35-0.16-0.7-0.18-1.01c-0.04-0.53,0.17-0.98,0.72-1.19c0.4-0.12,0.84-0.28,1.28-0.35
					c1.98-0.43,3.98-0.84,5.96-1.24c0.22-0.05,0.43-0.1,0.6-0.11c0.71-0.11,1.09,0.03,1.31,0.75c0.23,0.86,0.41,1.75,0.55,2.63
					c0.09,0.49-0.14,0.74-0.55,0.92c-0.26,0.12-0.5,0.17-0.77,0.24c-1.24,0.29-2.45,0.6-3.69,0.88
					C103.44,20.38,103.36,20.42,103.13,20.53z"/>
			</g>
		</g>
	</g>
	<g>
		<g>

				<rect x="24.83" y="54.97" transform="matrix(0.9773 -0.2116 0.2116 0.9773 -13.3001 16.8909)" class="st0" width="94.85" height="31.21"/>
		</g>
	</g>
	<g>
		<g>
			<g>
				<path class="st1" d="M41.83,79.92l-1.95,0.44c-0.29,0.07-0.57,0.19-0.88,0.2c-0.73,0.14-1.1-0.03-1.26-0.72
					c-0.19-0.85-0.28-1.7-0.44-2.56c0.02-0.15,0.02-0.29,0.02-0.4c0.04-0.46,0.23-0.72,0.71-0.83c0.37-0.11,0.69-0.16,1.07-0.24
					c1.36-0.31,2.71-0.65,4.07-0.96c0.4-0.09,0.83-0.19,1.23-0.25c0.57-0.07,0.91,0.07,1.16,0.55c0.13,0.22,0.19,0.46,0.24,0.67
					c0.39,1.59,0.79,3.21,0.91,4.87c0.11,1.57,0.15,3.11-0.14,4.66c-0.12,0.56-0.26,1.18-0.48,1.71c-0.97,2.38-2.82,3.64-5.35,3.85
					c-1.08,0.05-2.18-0.23-3.13-0.83c-1.03-0.58-1.83-1.38-2.54-2.31c-0.82-1.13-1.47-2.39-2.01-3.64c-0.94-2.17-1.59-4.4-1.97-6.67
					c-0.33-1.94-0.39-3.92-0.12-5.83c0.27-1.91,0.93-3.66,2.15-5.2c1-1.27,2.32-1.99,3.95-2.24c1-0.17,1.94,0.03,2.85,0.58
					c0.62,0.36,1.09,0.85,1.57,1.35c1.09,1.21,1.85,2.69,2.45,4.21c0.18,0.43,0.24,0.93,0.33,1.44c0.07,0.8-0.16,1.16-0.91,1.44
					c-0.49,0.2-0.99,0.34-1.52,0.49c-0.16,0.04-0.37,0.09-0.59,0.11c-0.53,0.01-0.78-0.22-0.97-0.7c-0.17-0.52-0.32-1.05-0.55-1.56
					c-0.25-0.59-0.61-1.09-1.13-1.51c-0.78-0.61-1.8-0.52-2.38,0.4c-0.3,0.4-0.48,0.87-0.59,1.37c-0.23,1.06-0.29,2.17-0.19,3.24
					c0.31,2.96,1.11,5.75,2.52,8.34c0.24,0.45,0.59,0.87,0.93,1.27c0.32,0.4,0.76,0.61,1.26,0.75c0.62,0.14,1.1-0.11,1.43-0.61
					c0.14-0.14,0.19-0.29,0.26-0.45C42.32,82.9,42.32,81.44,41.83,79.92z"/>
			</g>
		</g>
		<g>
			<g>
				<path class="st1" d="M63.39,71.87c0.63,2.28,0.83,4.61,0.58,6.93c-0.2,1.5-0.57,2.93-1.24,4.25c-0.43,0.93-1.01,1.74-1.7,2.49
					c-1.33,1.38-2.73,1.89-4.93,0.85c-1.62-0.74-3.02-1.88-4.09-3.3c-0.71-0.97-1.32-1.99-1.76-3.13c-0.87-2.04-1.52-4.18-1.78-6.39
					c-0.31-2.41-0.37-4.82,0.16-7.13c0.3-1.15,0.68-2.2,1.33-3.16c1.07-1.57,2.55-2.41,4.45-2.5c0.93-0.05,1.74,0.17,2.51,0.61
					c0.81,0.46,1.48,1.04,2.09,1.73c1.68,2.07,3.02,4.27,3.82,6.82C62.99,70.58,63.22,71.23,63.39,71.87z M53.22,74.35
					c0.32,1.98,1.27,3.67,2.48,5.21c0.26,0.29,0.47,0.54,0.77,0.77c0.42,0.31,0.85,0.32,1.37,0.12c0.45-0.16,0.79-0.45,0.96-0.87
					c0.21-0.48,0.35-0.94,0.43-1.42c0.36-1.97,0.29-3.95-0.11-5.93c-0.32-1.54-0.97-2.93-1.83-4.25c-0.39-0.67-0.89-1.17-1.55-1.59
					c-0.84-0.59-1.55-0.43-2.09,0.53c-0.12,0.19-0.23,0.43-0.3,0.69c-0.25,0.79-0.44,1.61-0.49,2.46
					C52.76,71.51,52.85,72.95,53.22,74.35z"/>
			</g>
		</g>
		<g>
			<g>
				<path class="st1" d="M80.73,68.3c0.63,2.28,0.83,4.61,0.58,6.93c-0.2,1.5-0.57,2.93-1.24,4.25c-0.43,0.93-1.01,1.74-1.7,2.49
					c-1.33,1.38-2.72,1.89-4.93,0.85c-1.62-0.74-3.02-1.88-4.09-3.3c-0.71-0.97-1.32-1.99-1.76-3.13c-0.87-2.04-1.52-4.18-1.78-6.39
					c-0.31-2.41-0.37-4.82,0.16-7.13c0.3-1.15,0.68-2.2,1.33-3.16c1.07-1.57,2.55-2.41,4.45-2.5c0.93-0.05,1.74,0.17,2.51,0.61
					c0.81,0.46,1.48,1.04,2.09,1.73c1.68,2.07,3.02,4.27,3.82,6.82C80.33,67.02,80.56,67.66,80.73,68.3z M70.56,70.78
					c0.32,1.98,1.27,3.67,2.48,5.21c0.26,0.29,0.47,0.54,0.77,0.77c0.42,0.31,0.85,0.32,1.37,0.12c0.45-0.16,0.79-0.45,0.96-0.87
					c0.21-0.48,0.35-0.94,0.43-1.42c0.36-1.97,0.29-3.95-0.11-5.93c-0.32-1.54-0.96-2.93-1.83-4.25c-0.39-0.67-0.89-1.17-1.55-1.59
					c-0.84-0.59-1.55-0.43-2.09,0.53c-0.12,0.19-0.23,0.43-0.3,0.69c-0.25,0.79-0.44,1.61-0.49,2.46
					C70.1,67.94,70.19,69.38,70.56,70.78z"/>
			</g>
		</g>
		<g>
			<g>
				<path class="st1" d="M84.91,67.37c-0.57-2.51-1.14-5.02-1.54-7.58l-0.83-3.67c-0.04-0.18,0.12-0.43,0.07-0.64
					c-0.13-0.56,0.21-0.86,0.8-0.99c1.7-0.58,3.62-1.01,5.5-0.82c2.69,0.2,4.62,1.59,5.91,3.7c0.95,1.43,1.68,2.88,2.22,4.4
					c0.22,0.95,0.63,1.69,0.8,2.46c0.84,2.86,0.73,5.93,0.12,8.71c-0.49,1.54-0.97,2.86-1.76,3.85c-0.43,0.72-0.98,1.03-1.52,1.37
					c-0.89,0.61-1.97,1.07-2.99,1.08c-1,0.23-1.79,0.19-2.8,0.23c-0.21,0.05-0.38,0.09-0.61-0.08c-0.45-0.09-0.68-0.25-0.76-0.63
					l-0.18-0.77C86.53,74.52,85.75,71.06,84.91,67.37z M91.19,74.49c0.63,0.05,1.18-0.27,1.32-0.49c0.5-0.54,0.79-1.02,1.09-1.49
					c0.34-1.1,0.58-1.97,0.53-2.98c-0.04-0.99-0.05-2.01-0.27-2.96c-0.24-1.99-0.84-3.69-2.03-5.25c-0.58-0.87-1.13-1.55-1.86-2
					c-0.72-0.43-1.17-0.76-1.98-0.76c0,0-0.21,0.05-0.41,0.09l0.08,0.36c0.36,1.56,0.71,3.1,1.06,4.67L91.19,74.49z"/>
			</g>
		</g>
		<g>
			<g>
				<path class="st1" d="M110.52,75.65c-1.69,0.39-3.08,0.08-4.44-0.66c-1.58-0.91-2.77-2.23-3.71-3.74
					c-0.17-0.28-0.21-0.57,0.02-0.84c0.54-0.69,1.06-1.37,1.69-2.06c0.31-0.4,0.71-0.43,1.16-0.13c0.31,0.17,0.52,0.37,0.78,0.58
					c0.47,0.41,0.93,0.76,1.42,1.13c0.42,0.31,0.93,0.43,1.46,0.39c0.89-0.1,1.3-0.7,0.89-1.55c-0.43-0.84-1.04-1.6-1.77-2.21
					c-0.86-0.72-1.75-1.41-2.61-2.13c-1.09-0.86-2.14-1.83-3.03-2.9c-1.11-1.31-1.93-2.8-2.28-4.47c-0.35-1.65-0.1-3.18,0.75-4.62
					c0.79-1.37,2.05-2.14,3.66-2.26c1.8-0.14,3.45,0.37,4.92,1.47c0.57,0.38,1.07,0.89,1.42,1.51c0.36,0.65,0.42,1.25,0.02,1.88
					c-0.39,0.55-0.76,1.06-1.1,1.57c-0.6,0.78-1.21,0.95-1.96,0.04c-0.3-0.39-0.69-0.76-1.01-1.12c-0.17-0.15-0.34-0.3-0.53-0.42
					c-0.35-0.24-0.72-0.21-1.12-0.04c-0.55,0.31-0.74,0.76-0.44,1.37c0.38,0.83,0.94,1.51,1.68,2.07c0.62,0.45,1.25,0.87,1.86,1.3
					c1.15,0.79,2.3,1.55,3.27,2.52c0.99,1.02,1.88,2.11,2.4,3.42c0.91,2.33,1.09,4.66,0.08,6.99
					C113.27,74.38,112.02,75.26,110.52,75.65z"/>
			</g>
		</g>
	</g>
</g>
</svg>
