<?xml version="1.0" encoding="utf-8"?>
<!-- Generator: Adobe Illustrator 30.2.1, SVG Export Plug-In . SVG Version: 9.03 Build 0)  -->
<svg version="1.0" id="Layer_1" xmlns="http://www.w3.org/2000/svg" xmlns:xlink="http://www.w3.org/1999/xlink" x="0px" y="0px"
	 viewBox="0 0 136.49 136.49" style="enable-background:new 0 0 136.49 136.49;" xml:space="preserve">
<style type="text/css">
	.st0{fill:#0C329E;}
	.st1{fill:#FFFFFF;}
</style>
<g>
	<g>
		<path class="st0" d="M55.56,121.01c-29.09-7-47.07-36.36-40.08-65.45c7-29.09,36.36-47.07,65.45-40.08
			c29.09,7,47.07,36.36,40.08,65.45C114.02,110.03,84.65,128.01,55.56,121.01z"/>
	</g>
	<g>
		<path class="st1" d="M62.15,96.28c-15.34-3.69-24.82-19.17-21.13-34.51c3.69-15.34,19.17-24.82,34.51-21.13
			c15.34,3.69,24.82,19.17,21.13,34.51C92.97,90.49,77.49,99.97,62.15,96.28z"/>
	</g>
	<g>
		<path class="st1" d="M45.78,42.33c-2.52,2.14-5.65,1.85-7.81-0.71c-2.17-2.56-1.93-5.67,0.6-7.81c2.52-2.14,5.65-1.85,7.81,0.72
			c0.82,0.95,1.3,1.98,1.44,3.06l1.63-0.04c0.17-0.01,0.24,0.06,0.22,0.22l-0.23,2.68c-0.03,0.14-0.12,0.19-0.26,0.17l-1.79-0.33
			C47.04,41.04,46.5,41.72,45.78,42.33z M42.21,35.63c-0.61-0.09-1.17,0.08-1.67,0.5c-1.01,0.86-1.03,2.21-0.04,3.38
			c0.99,1.17,2.33,1.37,3.34,0.51c0.13-0.11,0.24-0.22,0.34-0.35l-0.73-0.14c-0.13-0.02-0.2-0.1-0.19-0.25l0.13-1.41
			c0.01-0.14,0.08-0.21,0.19-0.22l0.89-0.02C44.25,36.97,43.44,35.81,42.21,35.63z"/>
		<path class="st1" d="M54.35,25.14l2.51-0.9c0.14-0.05,0.29,0.02,0.34,0.16l2.19,6.08c0.93,2.58,0.03,4.44-2.59,5.38
			c-2.62,0.94-4.48,0.08-5.46-2.48l-2.19-6.08c-0.05-0.14,0.02-0.29,0.16-0.34l2.51-0.9c0.14-0.05,0.28,0.02,0.33,0.16l2.28,6.34
			c0.24,0.66,0.77,0.92,1.41,0.69c0.64-0.23,0.88-0.76,0.64-1.41l-2.29-6.36C54.14,25.35,54.21,25.19,54.35,25.14z"/>
		<path class="st1" d="M73.56,33.6l-3.07,0.01c-0.16,0-0.26-0.07-0.33-0.2l-0.47-1.62l-2.91,0.01l-0.46,1.63
			c-0.06,0.14-0.17,0.21-0.32,0.21l-3.06,0.01c-0.12,0-0.18-0.09-0.15-0.2l3.45-10.29c0.06-0.14,0.18-0.21,0.37-0.21l3.16-0.02
			c0.19,0,0.31,0.07,0.37,0.2l3.55,10.26C73.73,33.49,73.68,33.6,73.56,33.6z M67.39,29.58l1.67-0.01l-0.85-2.94L67.39,29.58z"/>
		<path class="st1" d="M82.79,25.51l-2.39,7.28l2.74,0.9c0.13,0.04,0.17,0.14,0.12,0.27l-0.93,2.17c-0.07,0.13-0.17,0.17-0.31,0.13
			l-5.32-1.74c-0.12-0.04-0.18-0.17-0.15-0.28l3.19-9.72c0.04-0.11,0.18-0.2,0.29-0.15l2.61,0.86
			C82.76,25.25,82.83,25.39,82.79,25.51z"/>
		<path class="st1" d="M91.04,28.94l2.34,1.44c0.14,0.08,0.16,0.19,0.08,0.32l-5.38,8.71c-0.08,0.12-0.18,0.15-0.32,0.06l-2.34-1.44
			c-0.08-0.05-0.13-0.2-0.07-0.3l5.38-8.71C90.8,28.92,90.95,28.88,91.04,28.94z"/>
		<path class="st1" d="M98.41,34.01l5.73,6.04c0.1,0.1,0.09,0.25-0.01,0.31l-1.87,1.45c-0.12,0.08-0.23,0.08-0.33-0.02l-1.59-1.67
			l-5.56,5.29c-0.07,0.07-0.23,0.08-0.31-0.01l-1.89-1.99c-0.08-0.09-0.08-0.24,0-0.32l5.56-5.29l-1.77-1.86
			c-0.07-0.07-0.08-0.23,0.01-0.31l1.69-1.61C98.17,33.93,98.34,33.94,98.41,34.01z"/>
		<path class="st1" d="M110.34,50.91l1.34,2.93c0.06,0.13,0,0.28-0.15,0.26l-7.03-0.55l-3.69,1.69c-0.09,0.04-0.24-0.01-0.3-0.12
			l-1.13-2.48c-0.05-0.11,0-0.26,0.1-0.3l3.69-1.68l4.18-5.67c0.08-0.13,0.24-0.08,0.3,0.05l1.34,2.93c0.07,0.15,0.04,0.3-0.08,0.43
			l-2,2.31l3.06,0C110.15,50.68,110.27,50.76,110.34,50.91z"/>
	</g>
	<g>
		<path class="st1" d="M107.52,81.21l-1.28,4c-0.04,0.12-0.18,0.19-0.27,0.16l-4.7-1.51c-0.14-0.04-0.24-0.14-0.29-0.29
			c-0.5-1.2-0.49-2.57,0-4.12c0.99-3.09,3.82-4.55,7-3.53c3.18,1.02,4.63,3.82,3.6,7.02c-0.37,1.15-0.99,2.09-1.85,2.82
			c-0.1,0.11-0.2,0.13-0.31,0.05l-1.93-1.44c-0.09-0.09-0.11-0.19-0.02-0.32c0.54-0.53,0.93-1.15,1.17-1.88
			c0.47-1.45-0.22-2.66-1.68-3.13c-1.46-0.47-2.73,0.17-3.12,1.41c-0.2,0.61-0.24,1.03-0.1,1.25l0.85,0.27l0.44-1.35
			c0.04-0.14,0.13-0.2,0.24-0.18l2.09,0.46C107.52,80.93,107.58,81.03,107.52,81.21z"/>
		<path class="st1" d="M103.35,97.22l-1.64,2.1c-0.09,0.11-0.25,0.14-0.37,0.05l-5.1-3.97c-2.17-1.69-2.39-3.74-0.68-5.93
			c1.71-2.2,3.74-2.46,5.94-0.82l5.1,3.97c0.11,0.09,0.13,0.26,0.05,0.37L105,95.09c-0.09,0.11-0.25,0.13-0.37,0.04l-5.32-4.14
			c-0.55-0.43-1.14-0.37-1.56,0.17c-0.42,0.54-0.34,1.11,0.21,1.54l5.33,4.15C103.41,96.93,103.43,97.1,103.35,97.22z"/>
		<path class="st1" d="M82.62,100.35l2.58-1.66c0.13-0.09,0.26-0.09,0.38,0l1.27,1.12l2.45-1.57l-0.48-1.62
			c-0.02-0.15,0.03-0.26,0.16-0.35l2.58-1.66c0.1-0.07,0.2-0.02,0.23,0.09l2.61,10.54c0.02,0.15-0.04,0.27-0.2,0.37l-2.66,1.71
			c-0.16,0.1-0.3,0.11-0.42,0.03l-8.5-6.75C82.53,100.54,82.52,100.42,82.62,100.35z M89.98,100.43l-1.41,0.9l2.3,2.02L89.98,100.43
			z"/>
		<path class="st1" d="M71.3,103.13l3.25-0.7c0.16-0.04,0.3,0.02,0.4,0.17l2.29,2.96l0.18-0.04l-0.72-3.33
			c-0.02-0.09,0.07-0.24,0.2-0.27l2.67-0.58c0.12-0.03,0.24,0.06,0.27,0.17l2.16,10.01c0.03,0.12-0.05,0.26-0.17,0.28l-4,0.86
			c-2.34,0.51-4.17-0.52-4.61-2.59c-0.26-1.21,0.22-2.57,1.23-3.29l-3.24-3.37C71.09,103.3,71.16,103.16,71.3,103.13z M78.32,109.7
			l-0.35-1.61l-0.89,0.19c-0.52,0.11-0.79,0.51-0.69,0.99c0.1,0.48,0.51,0.73,1.04,0.61L78.32,109.7z"/>
		<path class="st1" d="M58.19,101.85l3.04,0.44c0.16,0.02,0.25,0.1,0.29,0.25l0.23,1.68l2.88,0.41l0.7-1.54
			c0.08-0.13,0.19-0.18,0.35-0.16l3.03,0.44c0.12,0.02,0.17,0.12,0.11,0.22l-4.93,9.68c-0.08,0.13-0.21,0.18-0.4,0.15l-3.13-0.45
			c-0.19-0.03-0.3-0.11-0.34-0.25l-2-10.68C58,101.93,58.07,101.83,58.19,101.85z M63.7,106.73l-1.66-0.24l0.41,3.03L63.7,106.73z"
			/>
		<path class="st1" d="M44.85,107.1l-2.39-1.34c-0.14-0.08-0.17-0.18-0.09-0.32l5-8.94c0.07-0.13,0.17-0.15,0.31-0.08l2.34,1.31
			c0.12,0.07,0.18,0.18,0.18,0.34l0,5.52l2.35-4.2c0.07-0.13,0.17-0.15,0.31-0.08l2.4,1.34c0.11,0.06,0.13,0.2,0.08,0.29l-5,8.94
			c-0.08,0.14-0.17,0.17-0.3,0.1l-2.35-1.31c-0.15-0.09-0.22-0.2-0.21-0.35l0.01-5.51L45.16,107
			C45.1,107.11,44.94,107.15,44.85,107.1z"/>
		<path class="st1" d="M37.13,101.41l-5.5-6.25c-0.09-0.11-0.08-0.25,0.02-0.31l1.92-1.38c0.12-0.08,0.23-0.07,0.33,0.04l1.52,1.73
			l5.77-5.07c0.07-0.07,0.23-0.07,0.31,0.02l1.81,2.06c0.08,0.09,0.07,0.24-0.01,0.32l-5.77,5.07l1.7,1.93
			c0.06,0.07,0.07,0.23-0.02,0.31l-1.76,1.54C37.36,101.5,37.19,101.49,37.13,101.41z"/>
		<path class="st1" d="M33.01,84.14l1.21-0.52l-1.68-3.88c-0.06-0.15-0.03-0.24,0.1-0.29l2.17-0.94c0.09-0.04,0.24,0.01,0.29,0.12
			l2.86,6.62c0.05,0.12,0.01,0.22-0.12,0.31l-9.4,4.07c-0.13,0.06-0.23,0.02-0.29-0.11l-2.8-6.47c-0.06-0.13,0-0.27,0.1-0.32
			l2.15-0.93c0.15-0.06,0.25-0.02,0.31,0.14l1.6,3.71l1.12-0.48l-1.3-3.01c-0.05-0.11,0.01-0.24,0.11-0.26l2.08-0.67
			c0.13-0.03,0.23,0.02,0.29,0.16L33.01,84.14z"/>
		<path class="st1" d="M29.86,72.52l1.31-0.12l-0.4-4.21c-0.02-0.16,0.04-0.24,0.18-0.25l2.36-0.22c0.1-0.01,0.23,0.08,0.24,0.21
			l0.68,7.18c0.01,0.13-0.06,0.21-0.21,0.26l-10.19,0.97c-0.14,0.01-0.23-0.05-0.24-0.19l-0.67-7.02c-0.01-0.14,0.08-0.26,0.19-0.27
			l2.33-0.22c0.16-0.02,0.24,0.06,0.26,0.23l0.38,4.02l1.21-0.12l-0.31-3.27c-0.01-0.12,0.09-0.23,0.19-0.22l2.18,0
			c0.14,0.01,0.21,0.09,0.22,0.25L29.86,72.52z"/>
		<path class="st1" d="M23.32,61.83l0.85-3.5c0.77-3.2,3.35-4.81,6.47-4.05s4.7,3.37,3.92,6.57l-0.85,3.5
			c-0.02,0.1-0.15,0.18-0.28,0.15l-9.93-2.4C23.38,62.06,23.29,61.92,23.32,61.83z M26.73,59.59l4.96,1.2l0.19-0.78
			c0.28-1.17-0.52-2.19-2.02-2.54c-1.5-0.36-2.66,0.17-2.95,1.34L26.73,59.59z"/>
	</g>
	<g>
		<circle class="st1" cx="33.98" cy="48.23" r="2.29"/>
	</g>
	<g>
		<circle class="st1" cx="107.82" cy="66.17" r="2.29"/>
	</g>
	<g>
		<g>
			<g>
				<g>
					<g>

							<ellipse transform="matrix(0.2338 -0.9723 0.9723 0.2338 0.928 122.0134)" class="st0" cx="77.88" cy="60.42" rx="8.88" ry="3.73"/>
					</g>
				</g>
			</g>
			<g>
				<g>
					<g>

							<ellipse transform="matrix(0.2338 -0.9723 0.9723 0.2338 -6.1605 106.6164)" class="st0" cx="64.56" cy="57.22" rx="8.88" ry="3.73"/>
					</g>
				</g>
			</g>
			<g>
				<g>
					<g>
						<path class="st0" d="M88.29,77.62c-0.05-0.14-1.37-3.38-5.96-3.88c-0.61-0.07-1.16,0.38-1.22,0.99
							c-0.07,0.61,0.38,1.16,0.99,1.22c0.61,0.06,1.13,0.19,1.58,0.36c-0.68,1.29-2.13,3.75-4.39,6.03
							c-4.2,4.25-9.09,5.87-14.51,4.83c-5.38-1.03-9.04-4.38-10.86-9.94c-1.36-4.15-1.16-8.08-1.14-8.35c0.48,0.06,1,0.18,1.57,0.4
							c0.57,0.22,1.22-0.07,1.44-0.64c0.22-0.57-0.07-1.22-0.64-1.44c-4.31-1.65-6.96,0.64-7.07,0.74c-0.46,0.41-0.51,1.11-0.1,1.57
							c0.16,0.18,0.36,0.29,0.57,0.35c0.34,0.08,0.71,0,0.99-0.25c0.03-0.03,0.38-0.31,1.01-0.53c-0.04,1.16-0.03,4.82,1.24,8.77
							c1.96,6.05,6,9.94,11.73,11.32c0.28,0.07,0.56,0.13,0.84,0.18c6.13,1.18,11.86-0.73,16.56-5.5c2.35-2.38,3.87-4.9,4.64-6.35
							c0.46,0.48,0.64,0.89,0.66,0.94c0.14,0.35,0.43,0.58,0.77,0.67c0.21,0.05,0.44,0.04,0.66-0.05
							C88.23,78.84,88.51,78.2,88.29,77.62z"/>
					</g>
				</g>
			</g>
		</g>
	</g>
</g>
</svg>
