<?xml version="1.0" encoding="UTF-8"?>
<svg id="Layer_1" xmlns="http://www.w3.org/2000/svg" version="1.1" viewBox="0 0 5039.99 97.63">
  <!-- Generator: Adobe Illustrator 30.2.1, SVG Export Plug-In . SVG Version: 2.1.1 Build 1)  -->
  <defs>
    <style>
      .st0 {
        fill: #0b32a0;
      }
    </style>
  </defs>
  <g>
    <rect class="st0" x="24.23" y="12.81" width="32.64" height="32.64" rx="8.06" ry="8.06"/>
    <rect class="st0" x="63.59" y="52.17" width="32.64" height="32.64" rx="8.06" ry="8.06"/>
    <rect class="st0" x="102.94" y="12.81" width="32.64" height="32.64" rx="8.06" ry="8.06"/>
    <rect class="st0" x="142.3" y="52.17" width="32.64" height="32.64" rx="8.06" ry="8.06"/>
    <rect class="st0" x="181.66" y="12.81" width="32.64" height="32.64" rx="8.06" ry="8.06"/>
    <rect class="st0" x="221.01" y="52.17" width="32.64" height="32.64" rx="8.06" ry="8.06"/>
    <rect class="st0" x="260.37" y="12.81" width="32.64" height="32.64" rx="8.06" ry="8.06"/>
  </g>
  <g>
    <rect class="st0" x="260.37" y="12.81" width="32.64" height="32.64" rx="8.06" ry="8.06"/>
    <rect class="st0" x="299.73" y="52.17" width="32.64" height="32.64" rx="8.06" ry="8.06"/>
    <rect class="st0" x="339.08" y="12.81" width="32.64" height="32.64" rx="8.06" ry="8.06"/>
    <rect class="st0" x="378.44" y="52.17" width="32.64" height="32.64" rx="8.06" ry="8.06"/>
    <rect class="st0" x="417.79" y="12.81" width="32.64" height="32.64" rx="8.06" ry="8.06"/>
    <rect class="st0" x="457.15" y="52.17" width="32.64" height="32.64" rx="8.06" ry="8.06"/>
    <rect class="st0" x="496.51" y="12.81" width="32.64" height="32.64" rx="8.06" ry="8.06"/>
  </g>
  <g>
    <rect class="st0" x="496.51" y="12.81" width="32.64" height="32.64" rx="8.06" ry="8.06"/>
    <rect class="st0" x="535.86" y="52.17" width="32.64" height="32.64" rx="8.06" ry="8.06"/>
    <rect class="st0" x="575.22" y="12.81" width="32.64" height="32.64" rx="8.06" ry="8.06"/>
    <rect class="st0" x="614.58" y="52.17" width="32.64" height="32.64" rx="8.06" ry="8.06"/>
    <rect class="st0" x="653.93" y="12.81" width="32.64" height="32.64" rx="8.06" ry="8.06"/>
    <rect class="st0" x="693.29" y="52.17" width="32.64" height="32.64" rx="8.06" ry="8.06"/>
    <rect class="st0" x="732.64" y="12.81" width="32.64" height="32.64" rx="8.06" ry="8.06"/>
  </g>
  <g>
    <rect class="st0" x="732.64" y="12.81" width="32.64" height="32.64" rx="8.06" ry="8.06"/>
    <rect class="st0" x="772" y="52.17" width="32.64" height="32.64" rx="8.06" ry="8.06"/>
    <rect class="st0" x="811.36" y="12.81" width="32.64" height="32.64" rx="8.06" ry="8.06"/>
    <rect class="st0" x="850.71" y="52.17" width="32.64" height="32.64" rx="8.06" ry="8.06"/>
    <rect class="st0" x="890.07" y="12.81" width="32.64" height="32.64" rx="8.06" ry="8.06"/>
    <rect class="st0" x="929.43" y="52.17" width="32.64" height="32.64" rx="8.06" ry="8.06"/>
    <rect class="st0" x="968.78" y="12.81" width="32.64" height="32.64" rx="8.06" ry="8.06"/>
  </g>
  <g>
    <rect class="st0" x="968.78" y="12.81" width="32.64" height="32.64" rx="8.06" ry="8.06"/>
    <rect class="st0" x="1008.14" y="52.17" width="32.64" height="32.64" rx="8.06" ry="8.06"/>
    <rect class="st0" x="1047.49" y="12.81" width="32.64" height="32.64" rx="8.06" ry="8.06"/>
    <rect class="st0" x="1086.85" y="52.17" width="32.64" height="32.64" rx="8.06" ry="8.06"/>
    <rect class="st0" x="1126.21" y="12.81" width="32.64" height="32.64" rx="8.06" ry="8.06"/>
    <rect class="st0" x="1165.56" y="52.17" width="32.64" height="32.64" rx="8.06" ry="8.06"/>
    <rect class="st0" x="1204.92" y="12.81" width="32.64" height="32.64" rx="8.06" ry="8.06"/>
  </g>
  <g>
    <rect class="st0" x="1204.92" y="12.81" width="32.64" height="32.64" rx="8.06" ry="8.06"/>
    <rect class="st0" x="1244.28" y="52.17" width="32.64" height="32.64" rx="8.06" ry="8.06"/>
    <rect class="st0" x="1283.63" y="12.81" width="32.64" height="32.64" rx="8.06" ry="8.06"/>
    <rect class="st0" x="1322.99" y="52.17" width="32.64" height="32.64" rx="8.06" ry="8.06"/>
    <rect class="st0" x="1362.34" y="12.81" width="32.64" height="32.64" rx="8.06" ry="8.06"/>
    <rect class="st0" x="1401.7" y="52.17" width="32.64" height="32.64" rx="8.06" ry="8.06"/>
    <rect class="st0" x="1441.06" y="12.81" width="32.64" height="32.64" rx="8.06" ry="8.06"/>
  </g>
  <g>
    <rect class="st0" x="1441.06" y="12.81" width="32.64" height="32.64" rx="8.06" ry="8.06"/>
    <rect class="st0" x="1480.41" y="52.17" width="32.64" height="32.64" rx="8.06" ry="8.06"/>
    <rect class="st0" x="1519.77" y="12.81" width="32.64" height="32.64" rx="8.06" ry="8.06"/>
    <rect class="st0" x="1559.13" y="52.17" width="32.64" height="32.64" rx="8.06" ry="8.06"/>
    <rect class="st0" x="1598.48" y="12.81" width="32.64" height="32.64" rx="8.06" ry="8.06"/>
    <rect class="st0" x="1637.84" y="52.17" width="32.64" height="32.64" rx="8.06" ry="8.06"/>
    <rect class="st0" x="1677.19" y="12.81" width="32.64" height="32.64" rx="8.06" ry="8.06"/>
  </g>
  <g>
    <rect class="st0" x="1677.19" y="12.81" width="32.64" height="32.64" rx="8.06" ry="8.06"/>
    <rect class="st0" x="1716.55" y="52.17" width="32.64" height="32.64" rx="8.06" ry="8.06"/>
    <rect class="st0" x="1755.91" y="12.81" width="32.64" height="32.64" rx="8.06" ry="8.06"/>
    <rect class="st0" x="1795.26" y="52.17" width="32.64" height="32.64" rx="8.06" ry="8.06"/>
    <rect class="st0" x="1834.62" y="12.81" width="32.64" height="32.64" rx="8.06" ry="8.06"/>
    <rect class="st0" x="1873.97" y="52.17" width="32.64" height="32.64" rx="8.06" ry="8.06"/>
    <rect class="st0" x="1913.33" y="12.81" width="32.64" height="32.64" rx="8.06" ry="8.06"/>
  </g>
  <g>
    <rect class="st0" x="1913.33" y="12.81" width="32.64" height="32.64" rx="8.06" ry="8.06"/>
    <rect class="st0" x="1952.69" y="52.17" width="32.64" height="32.64" rx="8.06" ry="8.06"/>
    <rect class="st0" x="1992.04" y="12.81" width="32.64" height="32.64" rx="8.06" ry="8.06"/>
    <rect class="st0" x="2031.4" y="52.17" width="32.64" height="32.64" rx="8.06" ry="8.06"/>
    <rect class="st0" x="2070.76" y="12.81" width="32.64" height="32.64" rx="8.06" ry="8.06"/>
    <rect class="st0" x="2110.11" y="52.17" width="32.64" height="32.64" rx="8.06" ry="8.06"/>
    <rect class="st0" x="2149.47" y="12.81" width="32.64" height="32.64" rx="8.06" ry="8.06"/>
  </g>
  <g>
    <rect class="st0" x="2149.47" y="12.81" width="32.64" height="32.64" rx="8.06" ry="8.06"/>
    <rect class="st0" x="2188.82" y="52.17" width="32.64" height="32.64" rx="8.06" ry="8.06"/>
    <rect class="st0" x="2228.18" y="12.81" width="32.64" height="32.64" rx="8.06" ry="8.06"/>
    <rect class="st0" x="2267.54" y="52.17" width="32.64" height="32.64" rx="8.06" ry="8.06"/>
    <rect class="st0" x="2306.89" y="12.81" width="32.64" height="32.64" rx="8.06" ry="8.06"/>
    <rect class="st0" x="2346.25" y="52.17" width="32.64" height="32.64" rx="8.06" ry="8.06"/>
    <rect class="st0" x="2385.61" y="12.81" width="32.64" height="32.64" rx="8.06" ry="8.06"/>
  </g>
  <g>
    <rect class="st0" x="2385.61" y="12.81" width="32.64" height="32.64" rx="8.06" ry="8.06"/>
    <rect class="st0" x="2424.96" y="52.17" width="32.64" height="32.64" rx="8.06" ry="8.06"/>
    <rect class="st0" x="2464.32" y="12.81" width="32.64" height="32.64" rx="8.06" ry="8.06"/>
    <rect class="st0" x="2503.67" y="52.17" width="32.64" height="32.64" rx="8.06" ry="8.06"/>
    <rect class="st0" x="2543.03" y="12.81" width="32.64" height="32.64" rx="8.06" ry="8.06"/>
    <rect class="st0" x="2582.39" y="52.17" width="32.64" height="32.64" rx="8.06" ry="8.06"/>
    <rect class="st0" x="2621.74" y="12.81" width="32.64" height="32.64" rx="8.06" ry="8.06"/>
  </g>
  <g>
    <rect class="st0" x="2621.74" y="12.81" width="32.64" height="32.64" rx="8.06" ry="8.06"/>
    <rect class="st0" x="2661.1" y="52.17" width="32.64" height="32.64" rx="8.06" ry="8.06"/>
    <rect class="st0" x="2700.46" y="12.81" width="32.64" height="32.64" rx="8.06" ry="8.06"/>
    <rect class="st0" x="2739.81" y="52.17" width="32.64" height="32.64" rx="8.06" ry="8.06"/>
    <rect class="st0" x="2779.17" y="12.81" width="32.64" height="32.64" rx="8.06" ry="8.06"/>
    <rect class="st0" x="2818.52" y="52.17" width="32.64" height="32.64" rx="8.06" ry="8.06"/>
    <rect class="st0" x="2857.88" y="12.81" width="32.64" height="32.64" rx="8.06" ry="8.06"/>
  </g>
  <g>
    <rect class="st0" x="2857.88" y="12.81" width="32.64" height="32.64" rx="8.06" ry="8.06"/>
    <rect class="st0" x="2897.24" y="52.17" width="32.64" height="32.64" rx="8.06" ry="8.06"/>
    <rect class="st0" x="2936.59" y="12.81" width="32.64" height="32.64" rx="8.06" ry="8.06"/>
    <rect class="st0" x="2975.95" y="52.17" width="32.64" height="32.64" rx="8.06" ry="8.06"/>
    <rect class="st0" x="3015.31" y="12.81" width="32.64" height="32.64" rx="8.06" ry="8.06"/>
    <rect class="st0" x="3054.66" y="52.17" width="32.64" height="32.64" rx="8.06" ry="8.06"/>
    <rect class="st0" x="3094.02" y="12.81" width="32.64" height="32.64" rx="8.06" ry="8.06"/>
  </g>
  <g>
    <rect class="st0" x="3094.02" y="12.81" width="32.64" height="32.64" rx="8.06" ry="8.06"/>
    <rect class="st0" x="3133.37" y="52.17" width="32.64" height="32.64" rx="8.06" ry="8.06"/>
    <rect class="st0" x="3172.73" y="12.81" width="32.64" height="32.64" rx="8.06" ry="8.06"/>
    <rect class="st0" x="3212.09" y="52.17" width="32.64" height="32.64" rx="8.06" ry="8.06"/>
    <rect class="st0" x="3251.44" y="12.81" width="32.64" height="32.64" rx="8.06" ry="8.06"/>
    <rect class="st0" x="3290.8" y="52.17" width="32.64" height="32.64" rx="8.06" ry="8.06"/>
    <rect class="st0" x="3330.16" y="12.81" width="32.64" height="32.64" rx="8.06" ry="8.06"/>
  </g>
  <g>
    <rect class="st0" x="3330.16" y="12.81" width="32.64" height="32.64" rx="8.06" ry="8.06"/>
    <rect class="st0" x="3369.51" y="52.17" width="32.64" height="32.64" rx="8.06" ry="8.06"/>
    <rect class="st0" x="3408.87" y="12.81" width="32.64" height="32.64" rx="8.06" ry="8.06"/>
    <rect class="st0" x="3448.22" y="52.17" width="32.64" height="32.64" rx="8.06" ry="8.06"/>
    <rect class="st0" x="3487.58" y="12.81" width="32.64" height="32.64" rx="8.06" ry="8.06"/>
    <rect class="st0" x="3526.94" y="52.17" width="32.64" height="32.64" rx="8.06" ry="8.06"/>
    <rect class="st0" x="3566.29" y="12.81" width="32.64" height="32.64" rx="8.06" ry="8.06"/>
  </g>
  <g>
    <rect class="st0" x="3566.29" y="12.81" width="32.64" height="32.64" rx="8.06" ry="8.06"/>
    <rect class="st0" x="3605.65" y="52.17" width="32.64" height="32.64" rx="8.06" ry="8.06"/>
    <rect class="st0" x="3645.01" y="12.81" width="32.64" height="32.64" rx="8.06" ry="8.06"/>
    <rect class="st0" x="3684.36" y="52.17" width="32.64" height="32.64" rx="8.06" ry="8.06"/>
    <rect class="st0" x="3723.72" y="12.81" width="32.64" height="32.64" rx="8.06" ry="8.06"/>
    <rect class="st0" x="3763.07" y="52.17" width="32.64" height="32.64" rx="8.06" ry="8.06"/>
    <rect class="st0" x="3802.43" y="12.81" width="32.64" height="32.64" rx="8.06" ry="8.06"/>
  </g>
  <g>
    <rect class="st0" x="3802.43" y="12.81" width="32.64" height="32.64" rx="8.06" ry="8.06"/>
    <rect class="st0" x="3841.79" y="52.17" width="32.64" height="32.64" rx="8.06" ry="8.06"/>
    <rect class="st0" x="3881.14" y="12.81" width="32.64" height="32.64" rx="8.06" ry="8.06"/>
    <rect class="st0" x="3920.5" y="52.17" width="32.64" height="32.64" rx="8.06" ry="8.06"/>
    <rect class="st0" x="3959.85" y="12.81" width="32.64" height="32.64" rx="8.06" ry="8.06"/>
    <rect class="st0" x="3999.21" y="52.17" width="32.64" height="32.64" rx="8.06" ry="8.06"/>
    <rect class="st0" x="4038.57" y="12.81" width="32.64" height="32.64" rx="8.06" ry="8.06"/>
  </g>
  <g>
    <rect class="st0" x="4038.57" y="12.81" width="32.64" height="32.64" rx="8.06" ry="8.06"/>
    <rect class="st0" x="4077.92" y="52.17" width="32.64" height="32.64" rx="8.06" ry="8.06"/>
    <rect class="st0" x="4117.28" y="12.81" width="32.64" height="32.64" rx="8.06" ry="8.06"/>
    <rect class="st0" x="4156.64" y="52.17" width="32.64" height="32.64" rx="8.06" ry="8.06"/>
    <rect class="st0" x="4195.99" y="12.81" width="32.64" height="32.64" rx="8.06" ry="8.06"/>
    <rect class="st0" x="4235.35" y="52.17" width="32.64" height="32.64" rx="8.06" ry="8.06"/>
    <rect class="st0" x="4274.7" y="12.81" width="32.64" height="32.64" rx="8.06" ry="8.06"/>
  </g>
  <g>
    <rect class="st0" x="4274.7" y="12.81" width="32.64" height="32.64" rx="8.06" ry="8.06"/>
    <rect class="st0" x="4314.06" y="52.17" width="32.64" height="32.64" rx="8.06" ry="8.06"/>
    <rect class="st0" x="4353.42" y="12.81" width="32.64" height="32.64" rx="8.06" ry="8.06"/>
    <rect class="st0" x="4392.77" y="52.17" width="32.64" height="32.64" rx="8.06" ry="8.06"/>
    <rect class="st0" x="4432.13" y="12.81" width="32.64" height="32.64" rx="8.06" ry="8.06"/>
    <rect class="st0" x="4471.49" y="52.17" width="32.64" height="32.64" rx="8.06" ry="8.06"/>
    <rect class="st0" x="4510.84" y="12.81" width="32.64" height="32.64" rx="8.06" ry="8.06"/>
  </g>
  <g>
    <rect class="st0" x="4510.84" y="12.81" width="32.64" height="32.64" rx="8.06" ry="8.06"/>
    <rect class="st0" x="4550.2" y="52.17" width="32.64" height="32.64" rx="8.06" ry="8.06"/>
    <rect class="st0" x="4589.55" y="12.81" width="32.64" height="32.64" rx="8.06" ry="8.06"/>
    <rect class="st0" x="4628.91" y="52.17" width="32.64" height="32.64" rx="8.06" ry="8.06"/>
    <rect class="st0" x="4668.27" y="12.81" width="32.64" height="32.64" rx="8.06" ry="8.06"/>
    <rect class="st0" x="4707.62" y="52.17" width="32.64" height="32.64" rx="8.06" ry="8.06"/>
    <rect class="st0" x="4746.98" y="12.81" width="32.64" height="32.64" rx="8.06" ry="8.06"/>
  </g>
  <g>
    <rect class="st0" x="4746.98" y="12.81" width="32.64" height="32.64" rx="8.06" ry="8.06"/>
    <rect class="st0" x="4786.34" y="52.17" width="32.64" height="32.64" rx="8.06" ry="8.06"/>
    <rect class="st0" x="4825.69" y="12.81" width="32.64" height="32.64" rx="8.06" ry="8.06"/>
    <rect class="st0" x="4865.05" y="52.17" width="32.64" height="32.64" rx="8.06" ry="8.06"/>
    <rect class="st0" x="4904.4" y="12.81" width="32.64" height="32.64" rx="8.06" ry="8.06"/>
    <rect class="st0" x="4943.76" y="52.17" width="32.64" height="32.64" rx="8.06" ry="8.06"/>
    <rect class="st0" x="4983.12" y="12.81" width="32.64" height="32.64" rx="8.06" ry="8.06"/>
  </g>
</svg>